<?xml version="1.0" encoding="utf-8"?>
<!-- Generator: Adobe Illustrator 24.3.0, SVG Export Plug-In . SVG Version: 6.00 Build 0)  -->
<svg version="1.1"
	 id="car-style-2" xmlns:cc="http://creativecommons.org/ns#" xmlns:dc="http://purl.org/dc/elements/1.1/" xmlns:rdf="http://www.w3.org/1999/02/22-rdf-syntax-ns#"
	 xmlns="http://www.w3.org/2000/svg" xmlns:xlink="http://www.w3.org/1999/xlink" x="0px" y="0px" viewBox="0 0 474.6 979"
	 style="enable-background:new 0 0 474.6 979;" xml:space="preserve">
<style type="text/css">
	.st0{fill-rule:evenodd;clip-rule:evenodd;fill:#FF1414;stroke:#000000;stroke-width:0.75;}
	.st1{opacity:0.4;fill-rule:evenodd;clip-rule:evenodd;stroke:#000000;stroke-width:0.75;enable-background:new    ;}
	.st2{fill-rule:evenodd;clip-rule:evenodd;fill-opacity:0.8306;stroke:#000000;}
	
		.st3{opacity:0.4;fill-rule:evenodd;clip-rule:evenodd;fill:#FFFFFF;fill-opacity:0.75;stroke:#020202;stroke-miterlimit:10;enable-background:new    ;}
	.st4{opacity:0.4;fill-rule:evenodd;clip-rule:evenodd;fill:#FFFFFF;fill-opacity:0.75;stroke:#020202;enable-background:new    ;}
	.st5{fill-rule:evenodd;clip-rule:evenodd;fill-opacity:0.5806;stroke:#000000;}
	.st6{opacity:0.6;fill-rule:evenodd;clip-rule:evenodd;fill:#141414;stroke:#000000;stroke-width:0.5;enable-background:new    ;}
	.st7{opacity:0.4;fill:#FFFFFF;stroke:#000000;stroke-miterlimit:10;enable-background:new    ;}
	.st8{fill:none;stroke:#000000;stroke-width:3.5;stroke-opacity:0.6452;}
	.st9{fill:none;stroke:#000000;stroke-width:2.75;stroke-opacity:0.6613;}
	.st10{opacity:0.9;fill-rule:evenodd;clip-rule:evenodd;fill:#262626;stroke:#000000;enable-background:new    ;}
	.st11{fill:none;stroke:#000000;stroke-width:2.4343;stroke-opacity:0.4677;}
	.st12{fill:#5B5B5B;}
	.st13{fill:none;stroke:#000000;stroke-width:1.625;stroke-opacity:0.5242;}
</style>
<path id="car-color" class="st0" d="M236.4,6.2C412,12.3,465.2,36.5,445.8,294.6c-3,7.1-6.1,14.3-9.2,21.4
	c3.6,119.1,7.2,238.9,0,357.3c11.7,12.8,6.1,29.9,9.2,44.8c5,38.5,7.1,92.7,2,145.6c-8.5,118.7-132.2,107.8-202.6,109.9
	c-78.4-1.8-184.2,23.8-213.7-109c-2.9-61.2-3.6-110.2,0-177.1c2.7-5.1,5.4-10.2,8.1-15.3c-3.3-117.7-7.3-233.1-1.2-357.3
	c-3.6-9.8-7.2-19.7-10.8-29.5C14.4,31.1,64.6,15.1,236.4,6.2L236.4,6.2z"/>
<path id="path1234" class="st1" d="M436.6,102.2C399.3,27.9,314.1,18.7,233,16.7c-86.2,3.7-154,5.4-197.5,96.7
	C47.4,78.8,35.9,8.5,234,4.5C413.9,7.9,424.7,56,436.6,102.2L436.6,102.2z"/>
<path id="path1229" class="st2" d="M67.1,238.6c80.4-91.3,260.6-99.1,339,1c-5.4,47.5-10.9,95-16.3,142.5
	c-74-16.6-190.7-34.3-304.4,5.1C79.3,337.7,73.2,288.1,67.1,238.6L67.1,238.6z"/>
<path id="path1230" class="st2" d="M98.6,710.9c99.1,10.5,191,17,278.9-5.1v145.6c-87.2,58-192.7,55-276.9,3
	C100,806.6,99.3,758.8,98.6,710.9L98.6,710.9z"/>
<path id="path1232" class="st2" d="M445.2,296.1c23.2,10.7,27.1,35.6,19.9,41.2c-8.1-0.9-20.4-12.4-28.5-14.2
	c-0.2-2.4-0.3-4.8-0.5-7.1C439.5,309.5,441.9,302.6,445.2,296.1z"/>
<path id="path1233" class="st2" d="M30.2,293.6C6.5,303.3,1.5,328,8.6,333.9c8.2-0.5,20.9-11.5,29.1-13c0.3-2.4,0.5-4.7,0.8-7.1
	C35.4,307.3,33.3,300.2,30.2,293.6L30.2,293.6z"/>
<path id="path1235" class="st3" d="M386.7,49.3c-24.9,6.1-20.9,19.3,3.1,39.7c19.5,14.1,31.4,16.5,32.6-5.1
	C420.6,71.3,392,50.6,386.7,49.3z"/>
<path id="path1236" class="st4" d="M88.2,48.3c25.3,4.1,22.4,17.6,0.2,39.8c-18.3,15.6-30,18.9-32.9-2.4C56.1,73,83,50,88.2,48.3z"
	/>
<path id="path1237" class="st2" d="M54.9,274.2c-9.2,147.3-7.1,283.3-2,425.5c4,25.1,7.1,51.3,11.1,76.4
	c12.4-62,20.2-192.6,14.3-315.6C73,394.3,64.7,336.8,54.9,274.2L54.9,274.2z"/>
<path id="path1238" class="st2" d="M422.2,262.7c9.2,147.3,7.1,283.3,2,425.5c-4.1,25.1-7.1,51.2-11.2,76.3
	c-12.4-61.9-20.2-192.6-14.2-315.6C404.1,382.8,412.4,325.3,422.2,262.7L422.2,262.7z"/>
<path id="path1239" class="st5" d="M198.2,901.6l82.8-0.7l-2.2,8.6l-76.3,0.7L198.2,901.6z"/>
<path id="path1241" class="st6" d="M257.2,928.2c0,3.6-7.6,6.5-16.9,6.5c-9.3,0-16.9-2.9-16.9-6.5l0,0c0-3.6,7.6-6.5,16.9-6.5
	S257.2,924.6,257.2,928.2L257.2,928.2z"/>
<path id="path1242" class="st7" d="M359.4,922.5c5.5-10.1,49.2-28.1,57.6-21.6c6,18-25.4,36.7-38.1,41
	C368.1,941.9,358.7,933.3,359.4,922.5L359.4,922.5z"/>
<path id="path1243" class="st7" d="M123,924.3c-5.5-10.1-49.2-28.1-57.6-21.6c-6,18,25.4,36.7,38.1,41
	C114.4,943.8,123.7,935.1,123,924.3z"/>
<path id="path1244" class="st8" d="M387.5,384.8c-11.5,108-12.2,214.5-10.8,316.7"/>
<path id="path1245" class="st9" d="M85.9,388.4C95.7,506.2,99.1,606,99.6,707.3"/>
<path id="path1251" class="st10" d="M174.4,941.2c-0.4,5.6-2.2,10.6-4.3,15.8c47.6,2.6,99.2,3.1,148.3-2.9c-3-3.8-4.9-9.1-5.8-15.8
	C268.7,942.9,221.2,943.1,174.4,941.2L174.4,941.2z"/>
<path id="path1271" class="st6" d="M256.1,30.5c0,2.7-8.4,4.8-18.7,4.8s-18.7-2.2-18.7-4.8l0,0c0-2.7,8.4-4.8,18.7-4.8
	S256.1,27.9,256.1,30.5z"/>
<path id="path1276" class="st11" d="M66.6,233.4C72.7,96.5,130.7,31.8,236.1,24.9c131,3.9,162.2,87.5,170,209.1"/>
<path id="text1278" class="st12" d="M206.4,952.6v0.7h-6.8c0-0.1,0-0.3,0.1-0.5c0.2-0.2,0.5-0.4,0.8-0.7c0.4-0.2,0.9-0.5,1.6-0.8
	c1.1-0.5,1.9-0.9,2.2-1.2s0.6-0.6,0.6-0.9c0-0.2-0.2-0.5-0.5-0.7c-0.4-0.2-0.8-0.3-1.4-0.3c-0.6,0-1.1,0.1-1.4,0.3
	c-0.4,0.2-0.5,0.5-0.6,0.8l-1.3-0.1c0.1-0.5,0.4-0.9,1-1.2s1.3-0.4,2.3-0.4s1.8,0.1,2.3,0.4c0.6,0.4,0.9,0.7,0.9,1.2
	c0,0.2-0.1,0.4-0.3,0.7c-0.2,0.2-0.4,0.4-0.8,0.7c-0.4,0.2-1,0.6-1.9,1c-0.7,0.4-1.2,0.6-1.4,0.7c-0.2,0.1-0.4,0.2-0.5,0.4
	L206.4,952.6L206.4,952.6z M208,951.9l1.2-0.1c0.1,0.4,0.3,0.6,0.6,0.7c0.3,0.1,0.7,0.2,1.1,0.2c0.4,0,0.7-0.1,1-0.1
	c0.3-0.1,0.5-0.2,0.7-0.4c0.2-0.1,0.3-0.4,0.5-0.7c0.1-0.2,0.2-0.5,0.2-0.8v-0.1c-0.3,0.2-0.6,0.4-1,0.5s-0.9,0.2-1.4,0.2
	c-0.9,0-1.6-0.1-2.2-0.5c-0.6-0.3-0.9-0.7-0.9-1.3s0.3-1,0.9-1.4c0.6-0.3,1.4-0.5,2.3-0.5c0.7,0,1.3,0.1,1.8,0.3s1,0.5,1.2,0.9
	c0.3,0.4,0.4,0.9,0.4,1.6c0,0.7-0.1,1.3-0.4,1.8c-0.3,0.4-0.7,0.7-1.3,1c-0.6,0.2-1.2,0.3-2,0.3s-1.4-0.1-2-0.4
	C208.4,952.7,208.1,952.3,208,951.9L208,951.9z M213.1,949.4c0-0.4-0.2-0.7-0.6-1c-0.4-0.2-0.8-0.4-1.4-0.4c-0.6,0-1,0.1-1.5,0.4
	c-0.4,0.3-0.6,0.6-0.6,1s0.2,0.7,0.6,0.9c0.4,0.2,0.9,0.4,1.4,0.4c0.6,0,1.1-0.1,1.4-0.4C212.9,950.1,213.1,949.8,213.1,949.4
	L213.1,949.4z M215.7,951.7l1.2-0.1c0.1,0.4,0.4,0.7,0.7,0.8s0.8,0.3,1.3,0.3c0.6,0,1.1-0.1,1.5-0.4c0.4-0.2,0.6-0.5,0.6-0.8
	c0-0.4-0.2-0.6-0.6-0.8c-0.4-0.2-0.9-0.3-1.4-0.3c-0.2,0-0.5,0-0.9,0.1l0.1-0.6h0.2c0.5,0,1-0.1,1.4-0.2c0.4-0.1,0.6-0.4,0.6-0.7
	c0-0.2-0.1-0.4-0.5-0.7c-0.3-0.1-0.7-0.2-1.2-0.2s-0.9,0.1-1.2,0.3c-0.3,0.1-0.5,0.4-0.6,0.7l-1.3-0.1c0.1-0.4,0.5-0.8,1-1
	c0.5-0.3,1.2-0.4,2-0.4c0.6,0,1.1,0.1,1.5,0.2c0.5,0.1,0.8,0.3,1.1,0.5c0.2,0.2,0.4,0.5,0.4,0.7s-0.1,0.4-0.4,0.7
	c-0.2,0.2-0.6,0.4-1,0.5c0.6,0.1,1.1,0.2,1.4,0.4c0.3,0.2,0.5,0.6,0.5,0.9c0,0.5-0.3,1-1,1.3c-0.6,0.4-1.5,0.5-2.5,0.5
	c-0.9,0-1.6-0.1-2.2-0.4S215.8,952.2,215.7,951.7L215.7,951.7z M223.9,951.9l1.2-0.1c0.1,0.4,0.3,0.6,0.6,0.7
	c0.3,0.1,0.7,0.2,1.1,0.2c0.4,0,0.7-0.1,1-0.1c0.3-0.1,0.5-0.2,0.7-0.4c0.2-0.1,0.3-0.4,0.5-0.7c0.1-0.2,0.2-0.5,0.2-0.8v-0.1
	c-0.2,0.2-0.6,0.4-1,0.5s-0.9,0.2-1.4,0.2c-0.8,0-1.6-0.1-2.1-0.5c-0.6-0.3-0.9-0.7-0.9-1.3s0.3-1,0.9-1.4c0.6-0.3,1.4-0.5,2.3-0.5
	c0.7,0,1.3,0.1,1.8,0.3s1,0.5,1.3,0.9s0.4,0.9,0.4,1.6c0,0.7-0.1,1.3-0.4,1.8c-0.3,0.4-0.7,0.7-1.3,1c-0.6,0.2-1.2,0.3-2,0.3
	s-1.5-0.1-2-0.4C224.3,952.7,224,952.3,223.9,951.9L223.9,951.9z M229,949.4c0-0.4-0.2-0.7-0.6-1s-0.8-0.4-1.4-0.4
	c-0.6,0-1,0.1-1.5,0.4c-0.4,0.3-0.6,0.6-0.6,1s0.2,0.7,0.6,0.9c0.4,0.2,0.9,0.4,1.4,0.4s1.1-0.1,1.4-0.4
	C228.8,950.1,229,949.8,229,949.4L229,949.4z M231.6,951.7l1.3-0.1c0.1,0.4,0.4,0.7,0.7,0.8s0.8,0.3,1.3,0.3c0.6,0,1.1-0.1,1.5-0.4
	c0.4-0.2,0.6-0.5,0.6-0.8c0-0.4-0.2-0.6-0.6-0.8c-0.4-0.2-0.9-0.3-1.4-0.3c-0.2,0-0.5,0-0.9,0.1l0.1-0.6h0.2c0.5,0,1-0.1,1.4-0.2
	s0.6-0.4,0.6-0.7c0-0.2-0.2-0.4-0.5-0.7c-0.3-0.1-0.7-0.2-1.2-0.2s-0.9,0.1-1.2,0.3c-0.3,0.1-0.5,0.4-0.6,0.7l-1.3-0.1
	c0.2-0.4,0.5-0.8,1.1-1c0.5-0.3,1.2-0.4,2-0.4c0.6,0,1.1,0.1,1.5,0.2c0.5,0.1,0.8,0.3,1.1,0.5s0.4,0.5,0.4,0.7s-0.1,0.4-0.3,0.7
	c-0.2,0.2-0.6,0.4-1.1,0.5c0.6,0.1,1.1,0.2,1.4,0.4s0.5,0.6,0.5,0.9c0,0.5-0.3,1-1,1.3c-0.7,0.4-1.5,0.5-2.5,0.5
	c-0.9,0-1.6-0.1-2.2-0.4C232.1,952.6,231.7,952.2,231.6,951.7L231.6,951.7z M242.9,953.2l3.9-5.7h1.4l4.2,5.7h-1.5l-1.2-1.7h-4.3
	l-1.1,1.7H242.9z M245.9,950.9h3.5l-1.1-1.6c-0.3-0.5-0.6-0.9-0.7-1.2c-0.1,0.4-0.3,0.7-0.5,1L245.9,950.9L245.9,950.9z
	 M253.5,953.2v-5.7h3.8c0.8,0,1.4,0,1.9,0.1s0.8,0.3,1.1,0.5c0.3,0.2,0.4,0.5,0.4,0.7s-0.1,0.5-0.3,0.7s-0.6,0.4-1.1,0.5
	c0.6,0.1,1.1,0.3,1.4,0.5c0.3,0.3,0.5,0.5,0.5,0.9c0,0.2-0.1,0.5-0.3,0.7c-0.2,0.2-0.5,0.4-0.7,0.5c-0.3,0.1-0.7,0.2-1.1,0.3
	s-1,0.1-1.6,0.1L253.5,953.2L253.5,953.2z M254.8,950h2.2c0.6,0,1-0.1,1.3-0.1c0.3-0.1,0.6-0.1,0.8-0.3s0.3-0.3,0.3-0.5
	c0-0.1-0.1-0.3-0.2-0.4s-0.4-0.3-0.7-0.3c-0.3-0.1-0.8-0.1-1.6-0.1h-2L254.8,950L254.8,950L254.8,950z M254.8,952.6h3.5
	c0.3-0.1,0.6-0.1,0.8-0.1c0.2-0.1,0.4-0.2,0.5-0.4c0.1-0.1,0.2-0.3,0.2-0.4c0-0.2-0.1-0.4-0.3-0.6c-0.2-0.1-0.5-0.2-0.8-0.3
	s-0.8-0.1-1.5-0.1h-2.4L254.8,952.6L254.8,952.6z M273,948.9l-1.2,0.1c-0.1-0.3-0.3-0.4-0.5-0.6c-0.3-0.2-0.7-0.3-1.2-0.3
	c-0.4,0-0.7,0.1-1.1,0.2c-0.4,0.1-0.7,0.4-0.9,0.7c-0.2,0.3-0.3,0.7-0.3,1.3c0.3-0.3,0.7-0.4,1.1-0.6c0.4-0.1,0.9-0.2,1.4-0.2
	c0.8,0,1.6,0.2,2.1,0.5c0.6,0.4,0.9,0.8,0.9,1.3c0,0.4-0.1,0.7-0.4,1s-0.7,0.5-1.1,0.7c-0.5,0.1-1,0.2-1.6,0.2c-1,0-1.9-0.2-2.6-0.6
	c-0.7-0.4-1-1.2-1-2.2s0.4-1.9,1.1-2.4c0.6-0.4,1.5-0.7,2.6-0.7c0.8,0,1.5,0.1,2,0.4C272.6,948.2,272.9,948.5,273,948.9L273,948.9z
	 M267.9,951.4c0,0.2,0.1,0.5,0.3,0.7c0.2,0.1,0.4,0.4,0.8,0.4c0.3,0.1,0.7,0.2,1,0.2c0.5,0,1-0.1,1.4-0.4c0.4-0.2,0.6-0.6,0.6-1
	s-0.2-0.7-0.6-1s-0.9-0.3-1.4-0.3c-0.6,0-1,0.1-1.4,0.3C268.1,950.7,267.9,951,267.9,951.4L267.9,951.4z M281.1,952.6v0.7h-6.8
	c0-0.1,0-0.3,0.1-0.5c0.2-0.2,0.5-0.4,0.8-0.7c0.4-0.2,0.9-0.5,1.6-0.8c1.1-0.5,1.9-0.9,2.3-1.2s0.6-0.6,0.6-0.9
	c0-0.2-0.2-0.5-0.5-0.7s-0.8-0.3-1.4-0.3s-1.1,0.1-1.5,0.3s-0.5,0.5-0.5,0.8l-1.3-0.1c0.1-0.5,0.4-0.9,1-1.2s1.4-0.4,2.3-0.4
	c1,0,1.8,0.1,2.3,0.4c0.6,0.4,0.9,0.7,0.9,1.2c0,0.2-0.1,0.4-0.3,0.7c-0.2,0.2-0.4,0.4-0.8,0.7s-1,0.6-1.9,1
	c-0.7,0.4-1.2,0.6-1.4,0.7c-0.2,0.1-0.4,0.2-0.5,0.4L281.1,952.6L281.1,952.6z"/>
<path id="path1281" class="st13" d="M412,767c-4.8,112.3-68.6,181.4-169.9,172.8C155.2,942.7,72.7,889.4,63.6,780"/>
</svg>
