<?xml version="1.0" encoding="utf-8"?>
<!-- Generator: Adobe Illustrator 24.3.0, SVG Export Plug-In . SVG Version: 6.00 Build 0)  -->
<svg version="1.1"
	 id="car-style-3" xmlns:cc="http://creativecommons.org/ns#" xmlns:dc="http://purl.org/dc/elements/1.1/" xmlns:rdf="http://www.w3.org/1999/02/22-rdf-syntax-ns#"
	 xmlns="http://www.w3.org/2000/svg" xmlns:xlink="http://www.w3.org/1999/xlink" x="0px" y="0px" viewBox="0 0 370 792.5"
	 style="enable-background:new 0 0 370 792.5;" xml:space="preserve">
<style type="text/css">
	.st0{fill-rule:evenodd;clip-rule:evenodd;fill:#60585A;}
	.st1{fill:#4A00AD;}
	.st2{fill-rule:evenodd;clip-rule:evenodd;fill:#4A00AD;}
	.st3{fill-rule:evenodd;clip-rule:evenodd;fill:#FF1414;stroke:#000000;}
	.st4{opacity:0.3;fill-rule:evenodd;clip-rule:evenodd;enable-background:new    ;}
	
		.st5{opacity:0.2;fill-rule:evenodd;clip-rule:evenodd;fill:#FFFFFF;stroke:#000000;stroke-opacity:0.4591;enable-background:new    ;}
	.st6{fill-rule:evenodd;clip-rule:evenodd;fill-opacity:0.7044;stroke:#000000;}
	.st7{fill-rule:evenodd;clip-rule:evenodd;fill-opacity:0.7862;stroke:#000000;}
	.st8{fill-rule:evenodd;clip-rule:evenodd;fill:#2D2D2D;stroke:#000000;stroke-width:1.25;stroke-opacity:0.5535;}
	.st9{fill-rule:evenodd;clip-rule:evenodd;fill:#2D2D2D;stroke:#000000;stroke-opacity:0.5472;}
	
		.st10{fill-rule:evenodd;clip-rule:evenodd;fill:#2E87CF;fill-opacity:0.566;stroke:#000000;stroke-width:1.082;stroke-opacity:0.2516;}
	.st11{fill:none;stroke:#000000;stroke-opacity:0.3711;}
	.st12{fill-rule:evenodd;clip-rule:evenodd;fill-opacity:0.6855;stroke:#000000;}
	.st13{fill:none;stroke:#000000;}
	.st14{fill-rule:evenodd;clip-rule:evenodd;fill-opacity:0.7484;stroke:#000000;}
</style>
<path id="rect959" class="st0" d="M29.9,626.1h10.6c4.7,0,8.6,3.8,8.6,8.6v61.5c0,4.7-3.8,8.6-8.6,8.6H29.9c-4.7,0-8.6-3.8-8.6-8.6
	v-61.5C21.3,630,25.1,626.1,29.9,626.1z"/>
<path id="rect958" class="st0" d="M324.9,616.1h10.6c4.7,0,8.6,3.8,8.6,8.6v61.5c0,4.7-3.8,8.6-8.6,8.6h-10.6
	c-4.7,0-8.6-3.8-8.6-8.6v-61.5C316.3,620,320.1,616.1,324.9,616.1z"/>
<g id="g786" transform="matrix(-1 0 0 -1 282.65 766.12)">
	<path id="path787" class="st1" d="M71.6,696.1c-5.5-0.3-11.1-0.4-16.6,0.3c-3.6,0.7-11.5,3.8-7.7,8.7c5.2,5,14.5,4.3,21.2,3.7
		l0.5,6c-9.1,0.8-20.2,1-26.8-6.3c-6-9.5,3.4-16.4,12-18c5.8-0.7,11.6-0.3,17.4-0.7V696.1L71.6,696.1z"/>
	<path id="path788" class="st1" d="M71.6,727.7c-5.5,0.3-11.1,0.4-16.6-0.3c-3.6-0.7-11.5-3.8-7.7-8.7c5.2-5,14.5-4.3,21.2-3.7
		l0.5-6c-9.1-0.8-20.2-1-26.8,6.3c-6,9.5,3.4,16.4,12,18c5.8,0.7,11.6,0.3,17.4,0.7V727.7L71.6,727.7z"/>
	<path id="path789" class="st1" d="M93,714c-2.1-0.2-4.2-0.1-6.3-0.1c-1.8,0-7.6-0.9-8.7,1c-0.4,1.4,0.3,2.9,1.4,3.7
		c2.8,1.4,6.5,0.7,9.4,0.6c3.6-0.2,8.5-0.6,9.6,3.8c0.3,3.6-1.9,7-4.7,9.1c-3.7,2.3-7.9,1.9-12,1.3c-2.5-0.3-4.9-0.7-7.4-1l0.5-3.8
		c2.5,0.3,4.9,0.7,7.4,1c3,0.4,6.5,0.9,9.2-0.7c1.6-1.1,3.1-3.2,3.1-5.2c0-1.5-4.7-0.9-5.6-0.9c-4,0.2-8.3,0.9-12-1.2
		c-2.9-2.2-4.2-6.4-1.9-9.5c3-2.8,7.8-2.1,11.6-2.1c2.1,0,4.2,0.1,6.3-0.1L93,714L93,714z"/>
	<g id="g790" transform="matrix(1.166 0 0 1.0624 -26.21 -45.238)">
		<path id="path791" class="st1" d="M105,710.9c2.1,0.2,4.2,0.1,6.2,0.2c3.9,0,7.8,0,11.7,0c0.8,0,1.6,0,2.3,0v3.2
			c-0.8,0-1.6,0-2.3,0c-3.9,0-7.8,0-11.7,0c-2.1,0-4.2-0.1-6.2,0.2V710.9L105,710.9z"/>
		<path id="path792" class="st1" d="M116.4,713.3c-0.2,1.2-0.1,2.6-0.1,3.8c0,2.5,0,5,0,7.5c0,1.6,0,3.3,0,4.9c0,1,0,2,0,3H113
			c0-1,0-2,0-3c0-1.6,0-3.3,0-4.9c0-2.5,0-5,0-7.5c0-1.2,0.1-2.6-0.1-3.8C113,713.3,116.4,713.3,116.4,713.3z"/>
	</g>
	<g id="g793">
		<path id="path794" class="st1" d="M124.5,710.8c-0.2,1.7-0.1,3.5-0.1,5.2c0,4.3-0.1,8.6,0,12.9c0,1.4,0,2.8,0.1,4.2h-3.3
			c0-1.4,0-2.8,0.1-4.2c0-4.3,0-8.6,0-12.9c0-1.7,0.1-3.5-0.1-5.2H124.5L124.5,710.8z"/>
		<path id="path795" class="st1" d="M122.4,709.7c1.4,0.2,2.9,0.1,4.3,0.1c3,0.1,5.7,1,6.1,4.4c0.1,3.4-1.8,5.4-5.1,6.1
			c-1.5,0.2-3.1,0.1-4.6,0l0.4-3.2c1.2,0.1,2.4,0.2,3.6,0.1c1.6-0.3,2.4-0.9,2.4-2.6c-0.1-1.5-1.6-1.5-2.9-1.5
			c-1.4,0-2.8-0.1-4.2,0.1V709.7L122.4,709.7z"/>
		<path id="path796" class="st1" d="M123.8,718.8c1.2,0.1,2.5,0.1,3.7,0.1c2.6,0,5.6-0.2,7.8,1.5c1.9,2,1.2,4.4,0.5,6.7
			c-0.5,1.6-0.9,3.1-0.9,4.8c0,0.3,0,0.6,0,1l-3.3,0.1c0-0.4,0-0.8,0-1.1c0.1-1.9,0.5-3.7,1.1-5.6c0.3-0.8,1-2.4,0.5-3.3
			c-1.1-1.3-4.2-0.8-5.6-0.8c-1.2,0-2.5-0.1-3.7,0.1L123.8,718.8L123.8,718.8z"/>
		<rect id="rect797" x="121.1" y="709.7" class="st2" width="2.4" height="3"/>
	</g>
	<path id="path798" class="st2" d="M160.4,721.7c0,7-5.2,12.6-11.6,12.6s-11.6-5.6-11.6-12.6s5.2-12.6,11.6-12.6
		S160.4,714.7,160.4,721.7L160.4,721.7z M156.7,721.3c0,4.7-3.5,8.6-7.9,8.6s-7.9-3.8-7.9-8.6c0-4.7,3.5-8.6,7.9-8.6
		C153.2,712.8,156.7,716.6,156.7,721.3z"/>
</g>
<path id="rect317" class="st0" d="M332.4,101.1H343c4.7,0,8.6,3.8,8.6,8.6v61.5c0,4.7-3.8,8.6-8.6,8.6h-10.6c-4.7,0-8.6-3.8-8.6-8.6
	v-61.5C323.8,105,327.6,101.1,332.4,101.1z"/>
<path id="rect316" class="st0" d="M22.2,104.2h10.6c4.7,0,8.6,3.8,8.6,8.6v61.5c0,4.7-3.8,8.6-8.6,8.6H22.2c-4.7,0-8.6-3.8-8.6-8.6
	v-61.5C13.6,108.1,17.5,104.2,22.2,104.2z"/>
<path id="car-color" class="st3" d="M183.7,786.1c-113.1,2.4-130.4-17.9-147.1-21.3C19.9,726,16.7,399.1,26.8,372.4
	c7.5-60.5-4.9-70.6-8.7-143.5c-7.1-85.2,9.8-37.8-4.4-124.5C35.3,14.1-5.5,12.3,182.2,3.7c172.2,2.4,147.9,10.4,169.6,100.6
	c-14.3,86.7,2.7,39.3-4.4,124.5c-3.8,73-16.2,83-8.7,143.5c10,26.7,6.9,353.7-9.9,392.5C302.6,780,233.3,786.1,183.7,786.1
	L183.7,786.1z"/>
<path id="path272" class="st4" d="M46.5,285L68,367.4c0,0,0,154.6-3.1,157.2S37.2,571,37.2,571S43.5,290.1,46.5,285L46.5,285z"/>
<path id="path274" class="st4" d="M323.8,280l-21.5,82.4c0,0,0,154.6,3.1,157.2s27.7,46.4,27.7,46.4S326.9,285.1,323.8,280
	L323.8,280z"/>
<path id="path230" class="st5" d="M42.2,47.6C30.5,66.3,31.4,243.8,50,257.8c18-14.9,122.5-28.6,142.3-27.4
	c20.3-1.5,99.7,8.1,124.1,22.7c6.6,2.1,19.7-205.6,1.1-219.6C259.2,17.3,65.5,17.3,42.2,47.6L42.2,47.6z"/>
<path id="path275" class="st4" d="M46.8,260.5c0,0,65.5-26.9,138.6-27.6c65.8-0.6,95.6,9.6,135.6,25c-4.9,48.8-9.7,94.9-21.8,110.3
	c-111.6-28.2-118.9-28.2-230.6,0C66.2,352.9,44.3,263.1,46.8,260.5L46.8,260.5z"/>
<path id="path185" class="st6" d="M50.5,263.3c0,0,63.8-24.8,134.9-25.4c64.1-0.6,93,8.9,132,23c-4.7,44.9-9.4,87.4-21.3,101.6
	c-108.7-26-115.8-26-224.4,0C69.4,348.3,48.2,265.7,50.5,263.3L50.5,263.3z"/>
<path id="path270" class="st4" d="M80.7,534.5c-12.4,59.4-22.3,173.2-22.3,173.2c19.8,17.3,121.2,24.7,123.7,24.7
	c7.4,0,108.8-7.4,126.2-32.2c0-14.8-9.9-121.2-19.8-168.2C201.9,544.4,85.7,539.5,80.7,534.5L80.7,534.5z"/>
<path id="path188" class="st7" d="M85.9,539.7c-11.8,56.7-21.2,165.4-21.2,165.4c18.9,16.5,115.7,23.6,118.1,23.6
	c7.1,0,103.9-7.1,120.5-30.7c0-14.2-9.5-115.8-18.9-160.6C201.7,549.1,90.7,544.4,85.9,539.7L85.9,539.7z"/>
<path id="path189" class="st8" d="M326.9,282.2l28.3,2.4c0,0,14.2,14.2,4.7,21.3c-9.5,7.1-33.1-2.4-33.1-2.4v-21.3H326.9z"/>
<path id="path190" class="st9" d="M41.9,286.9l-28.3,2.4c0,0-14.2,14.2-4.7,21.3c9.5,7.1,33.1-2.4,33.1-2.4L41.9,286.9z"/>
<path id="path304" class="st10" d="M57.6,20.1c-9,1.6-19.3,19-14.6,21.9c11.3-5.7,33.3-13.5,55-15.7c4.3-2.3,10.1-9.4,10.4-10.9
	C93.5,14.6,67.4,18.2,57.6,20.1z"/>
<path id="path306" class="st10" d="M303.7,15.2c9,1.6,19.3,14.6,14.6,17.5c-11.3-5.6-33.3-7.5-55-9.6c-4.3-2.3-10.1-11-10.4-12.6
	C267.8,9.7,293.9,13.3,303.7,15.2L303.7,15.2z"/>
<path id="path307" class="st11" d="M117.3,13.5c37.1-6.5,99.8-6,126.6-2.7"/>
<path id="path308" class="st11" d="M117.3,16.2c37.1-6.5,99.8-6,126.6-2.7"/>
<path id="path309" class="st11" d="M117.3,19.5c37.1-6.5,99.8-6,126.6-2.7"/>
<path id="path310" class="st11" d="M117.3,23.3c37.1-6,98.2-4.9,124.4-3.3"/>
<path id="path186" class="st12" d="M48.1,298.7l16.5,75.6c0,0,0,141.7-2.4,144.1s-21.3,42.5-21.3,42.5S45.8,303.5,48.1,298.7
	L48.1,298.7z"/>
<path id="path211" class="st13" d="M41.3,313.6C39,339.3,26.4,757.1,46,757c69.9,26.5,221.6,23.6,278.5-7
	c17.5-0.1,7-417.7,4.7-443.3"/>
<path id="path187" class="st14" d="M322.2,294l-16.5,75.6c0,0,0,141.7,2.4,144.1s21.3,42.5,21.3,42.5S324.5,298.7,322.2,294
	L322.2,294z"/>
</svg>
