<svg id="Layer_1" enable-background="new 0 0 498.863 498.863" height="512" viewBox="0 0 498.863 498.863" width="512" xmlns="http://www.w3.org/2000/svg"><g><path d="m444.764 75.312 11.674-11.674 21.213 21.214 21.213-21.213-21.214-21.213-21.213-21.213-21.212-21.213-21.213 21.213 21.213 21.213-11.674 11.674c-29.104-19.249-68.781-16.071-94.392 9.539v.001c-6.02 6.02-10.779 12.823-14.32 20.077-34.517 3.372-66.713 18.529-91.392 43.209l-223.447 223.445 148.493 148.492 222.738-222.738c24.785-24.784 39.95-57.108 43.236-91.764 7.51-3.572 14.549-8.448 20.757-14.656l31.112 31.113 21.213-21.213-35.554-35.555c8.752-22.407 6.351-48.2-7.231-68.738zm-296.271 381.126-106.066-106.067 21.92-21.92 106.066 106.065zm43.133-43.133-106.066-106.067 21.214-21.214 106.066 106.067zm158.392-158.393-115.965 115.965-106.067-106.066c38.963-32.308 124.605-145.743 179.278-149.747-.9 42.356 33.258 77.126 75.955 76.549-4.327 23.866-15.805 45.903-33.201 63.299zm63.994-106.42c-42.584 41.075-104.699-21.094-63.641-63.64 42.584-41.075 104.698 21.096 63.641 63.64z"/><path d="m214.607 217.789c-41.044 42.476 20.871 104.73 63.64 63.637 41.135-42.545-21.107-104.706-63.64-63.637zm31.82 46.819c-28.297-2.725-11.329-43.672 10.607-25.606 9.441 8.898 2.427 26.014-10.607 25.606z"/></g></svg>