<?xml version="1.0" encoding="utf-8"?>
<!-- Generator: Adobe Illustrator 24.3.0, SVG Export Plug-In . SVG Version: 6.00 Build 0)  -->
<svg version="1.1" id="_20-push_start" xmlns="http://www.w3.org/2000/svg" xmlns:xlink="http://www.w3.org/1999/xlink" x="0px"
	 y="0px" viewBox="0 0 512 512" style="enable-background:new 0 0 512 512;" xml:space="preserve">
<style type="text/css">
	.st0{fill:#FFFFFF;}
</style>
<path class="st0" d="M256,0C114.6,0,0,114.6,0,256s114.6,256,256,256s256-114.6,256-256C511.8,114.7,397.3,0.2,256,0z M256,448
	c-106,0-192-86-192-192S150,64,256,64s192,86,192,192C447.9,362,362,447.9,256,448z"/>
<path class="st0" d="M232.8,163h46.5v116.2h-46.5V163z"/>
<path class="st0" d="M356.6,197.9l-40.2,23.3c19.2,33.4,7.8,76-25.6,95.2s-76,7.8-95.2-25.6c-12.4-21.5-12.4-48.1,0-69.6l-40.2-23.3
	c-32.1,55.6-13,126.6,42.6,158.7s126.6,13,158.7-42.6C377.4,278.1,377.4,233.8,356.6,197.9z"/>
</svg>
