<?xml version="1.0" encoding="UTF-8" standalone="no"?>
<!-- Created with Inkscape (http://www.inkscape.org/) -->

<svg
   width="414.44394mm"
   height="59.086132mm"
   viewBox="0 0 414.44393 59.086131"
   version="1.1"
   id="svg5"
   inkscape:version="1.1 (c68e22c387, 2021-05-23)"
   sodipodi:docname="grass.svg"
   xmlns:inkscape="http://www.inkscape.org/namespaces/inkscape"
   xmlns:sodipodi="http://sodipodi.sourceforge.net/DTD/sodipodi-0.dtd"
   xmlns="http://www.w3.org/2000/svg"
   xmlns:svg="http://www.w3.org/2000/svg">
  <sodipodi:namedview
     id="namedview7"
     pagecolor="#ffffff"
     bordercolor="#666666"
     borderopacity="1.0"
     inkscape:pageshadow="2"
     inkscape:pageopacity="0.0"
     inkscape:pagecheckerboard="0"
     inkscape:document-units="mm"
     showgrid="false"
     inkscape:zoom="0.50000001"
     inkscape:cx="694.99998"
     inkscape:cy="-109"
     inkscape:window-width="1600"
     inkscape:window-height="837"
     inkscape:window-x="-8"
     inkscape:window-y="-8"
     inkscape:window-maximized="1"
     inkscape:current-layer="layer1" />
  <defs
     id="defs2" />
  <g
     inkscape:label="Layer 1"
     inkscape:groupmode="layer"
     id="layer1"
     transform="translate(114.12693,-225.99029)">
    <path
       sodipodi:type="star"
       style="fill:#5ee2d4;fill-opacity:0.983936;stroke-width:12.102;stroke-linecap:square"
       id="path1808-1"
       inkscape:flatsided="true"
       sodipodi:sides="3"
       sodipodi:cx="291.328"
       sodipodi:cy="152.73506"
       sodipodi:r1="147.07822"
       sodipodi:r2="73.539108"
       sodipodi:arg1="0.52359878"
       sodipodi:arg2="1.5707963"
       inkscape:rounded="-0.00246961"
       inkscape:randomized="0"
       transform="matrix(0.26458333,0,0,0.24924653,-31.39158,228.64051)"
       inkscape:transform-center-y="-9.1645553"
       d="m 418.70147,226.27417 c 0.31457,-0.54484 -255.0615,-0.54484 -254.74694,0 0.31456,0.54484 128.0026,-220.6173249 127.37347,-220.6173249 -0.62912,0 127.05891,221.1621649 127.37347,220.6173249 z" />
    <path
       sodipodi:type="star"
       style="fill:#5ee2d4;fill-opacity:1;stroke-width:12.102;stroke-linecap:square"
       id="path1808"
       inkscape:flatsided="true"
       sodipodi:sides="3"
       sodipodi:cx="291.328"
       sodipodi:cy="152.73506"
       sodipodi:r1="147.07822"
       sodipodi:r2="73.539108"
       sodipodi:arg1="0.52359878"
       sodipodi:arg2="1.5707963"
       inkscape:rounded="-0.00246961"
       inkscape:randomized="0"
       d="m 418.70147,226.27417 c 0.31457,-0.54484 -255.0615,-0.54484 -254.74694,0 0.31456,0.54484 128.0026,-220.6173249 127.37347,-220.6173249 -0.62912,0 127.05891,221.1621649 127.37347,220.6173249 z"
       transform="matrix(0.26458333,0,0,0.25019196,-157.5035,228.04245)"
       inkscape:transform-center-y="-9.1993208" />
    <path
       id="path1808-81"
       style="fill:#5ee29a;stroke-width:12.102;stroke-linecap:square"
       inkscape:transform-center-y="-9.7284781"
       transform="matrix(0.26458333,0,0,0.26458333,-191.19991,224.86776)"
       d="m 418.70147,226.27417 c 0.31457,-0.54484 -127.71599,-0.8542 -127.40143,-0.30936 0.31456,0.54484 0.65709,-220.3079649 0.028,-220.3079649 -0.62912,0 127.05891,221.1621649 127.37347,220.6173249 z"
       sodipodi:nodetypes="ssss" />
    <path
       sodipodi:type="star"
       style="fill:#5ee2af;fill-opacity:1;stroke-width:12.102;stroke-linecap:square"
       id="path1808-9"
       inkscape:flatsided="true"
       sodipodi:sides="3"
       sodipodi:cx="291.328"
       sodipodi:cy="152.73506"
       sodipodi:r1="147.07822"
       sodipodi:r2="73.539108"
       sodipodi:arg1="0.52359878"
       sodipodi:arg2="1.5707963"
       inkscape:rounded="-0.00246961"
       inkscape:randomized="0"
       transform="matrix(0.26458333,0,0,0.15603682,-122.40825,249.20238)"
       inkscape:transform-center-y="-5.7373262"
       d="m 418.70147,226.27417 c 0.31457,-0.54484 -255.0615,-0.54484 -254.74694,0 0.31456,0.54484 128.0026,-220.6173249 127.37347,-220.6173249 -0.62912,0 127.05891,221.1621649 127.37347,220.6173249 z" />
    <path
       sodipodi:type="star"
       style="fill:#1bda1e;fill-opacity:1;stroke-width:12.102;stroke-linecap:square"
       id="path1808-2"
       inkscape:flatsided="true"
       sodipodi:sides="3"
       sodipodi:cx="291.328"
       sodipodi:cy="152.73506"
       sodipodi:r1="147.07822"
       sodipodi:r2="73.539108"
       sodipodi:arg1="0.52359878"
       sodipodi:arg2="1.5707963"
       inkscape:rounded="-0.00246961"
       inkscape:randomized="0"
       transform="matrix(0.26458333,0,0,0.26458333,-73.460332,224.90559)"
       inkscape:transform-center-y="-9.7284781"
       d="m 418.70147,226.27417 c 0.31457,-0.54484 -255.0615,-0.54484 -254.74694,0 0.31456,0.54484 128.0026,-220.6173249 127.37347,-220.6173249 -0.62912,0 127.05891,221.1621649 127.37347,220.6173249 z" />
    <path
       sodipodi:type="star"
       style="fill:#62c3b8;fill-opacity:1;stroke-width:12.102;stroke-linecap:square"
       id="path1808-8"
       inkscape:flatsided="true"
       sodipodi:sides="3"
       sodipodi:cx="291.328"
       sodipodi:cy="152.73506"
       sodipodi:r1="147.07822"
       sodipodi:r2="73.539108"
       sodipodi:arg1="0.52359878"
       sodipodi:arg2="1.5707963"
       inkscape:rounded="-0.00246961"
       inkscape:randomized="0"
       transform="matrix(0.26458333,0,0,0.13850806,3.53342,253.69788)"
       inkscape:transform-center-y="-5.0928136"
       d="m 418.70147,226.27417 c 0.31457,-0.54484 -255.0615,-0.54484 -254.74694,0 0.31456,0.54484 128.0026,-220.6173249 127.37347,-220.6173249 -0.62912,0 127.05891,221.1621649 127.37347,220.6173249 z" />
    <path
       sodipodi:type="star"
       style="fill:#9fe25e;fill-opacity:1;stroke-width:12.102;stroke-linecap:square"
       id="path1808-94"
       inkscape:flatsided="true"
       sodipodi:sides="3"
       sodipodi:cx="291.328"
       sodipodi:cy="152.73506"
       sodipodi:r1="147.07822"
       sodipodi:r2="73.539108"
       sodipodi:arg1="0.52359878"
       sodipodi:arg2="1.5707963"
       inkscape:rounded="-0.00246961"
       inkscape:randomized="0"
       transform="matrix(0.26458333,0,0,0.26458333,88.20009,224.64103)"
       inkscape:transform-center-y="-9.7284781"
       d="m 418.70147,226.27417 c 0.31457,-0.54484 -255.0615,-0.54484 -254.74694,0 0.31456,0.54484 128.0026,-220.6173249 127.37347,-220.6173249 -0.62912,0 127.05891,221.1621649 127.37347,220.6173249 z" />
    <path
       sodipodi:type="star"
       style="fill:#5ee283;fill-opacity:1;stroke-width:12.102;stroke-linecap:square"
       id="path1808-3"
       inkscape:flatsided="true"
       sodipodi:sides="3"
       sodipodi:cx="291.328"
       sodipodi:cy="152.73506"
       sodipodi:r1="147.07822"
       sodipodi:r2="73.539108"
       sodipodi:arg1="0.52359878"
       sodipodi:arg2="1.5707963"
       inkscape:rounded="-0.00246961"
       inkscape:randomized="0"
       transform="matrix(0.26458333,0,0,0.23526666,113.22591,231.84142)"
       inkscape:transform-center-y="-8.6505261"
       d="m 418.70147,226.27417 c 0.31457,-0.54484 -255.0615,-0.54484 -254.74694,0 0.31456,0.54484 128.0026,-220.6173249 127.37347,-220.6173249 -0.62912,0 127.05891,221.1621649 127.37347,220.6173249 z" />
    <path
       sodipodi:type="star"
       style="fill:#5ee291;fill-opacity:1;stroke-width:12.102;stroke-linecap:square"
       id="path1808-35"
       inkscape:flatsided="true"
       sodipodi:sides="3"
       sodipodi:cx="291.328"
       sodipodi:cy="152.73506"
       sodipodi:r1="147.07822"
       sodipodi:r2="73.539108"
       sodipodi:arg1="0.52359878"
       sodipodi:arg2="1.5707963"
       inkscape:rounded="-0.00246961"
       inkscape:randomized="0"
       transform="matrix(0.26458333,0,0,0.15067183,189.5355,250.41635)"
       inkscape:transform-center-y="-5.5400649"
       d="m 418.70147,226.27417 c 0.31457,-0.54484 -255.0615,-0.54484 -254.74694,0 0.31456,0.54484 128.0026,-220.6173249 127.37347,-220.6173249 -0.62912,0 127.05891,221.1621649 127.37347,220.6173249 z" />
    <path
       sodipodi:type="star"
       style="fill:#5ee2d4;fill-opacity:0.991968;stroke-width:12.102;stroke-linecap:square"
       id="path1808-90"
       inkscape:flatsided="true"
       sodipodi:sides="3"
       sodipodi:cx="291.328"
       sodipodi:cy="152.73506"
       sodipodi:r1="147.07822"
       sodipodi:r2="73.539108"
       sodipodi:arg1="0.52359878"
       sodipodi:arg2="1.5707963"
       inkscape:rounded="-0.00246961"
       inkscape:randomized="0"
       transform="matrix(0.26458333,0,0,0.26458333,48.512599,224.64101)"
       inkscape:transform-center-y="-9.7284781"
       d="m 418.70147,226.27417 c 0.31457,-0.54484 -255.0615,-0.54484 -254.74694,0 0.31456,0.54484 128.0026,-220.6173249 127.37347,-220.6173249 -0.62912,0 127.05891,221.1621649 127.37347,220.6173249 z" />
    <path
       sodipodi:type="star"
       style="fill:#5ee2d4;fill-opacity:1;stroke-width:12.102;stroke-linecap:square"
       id="path1808-99"
       inkscape:flatsided="true"
       sodipodi:sides="3"
       sodipodi:cx="291.328"
       sodipodi:cy="152.73506"
       sodipodi:r1="147.07822"
       sodipodi:r2="73.539108"
       sodipodi:arg1="0.52359878"
       sodipodi:arg2="1.5707963"
       inkscape:rounded="-0.00246961"
       inkscape:randomized="0"
       transform="matrix(0.26458333,0,0,0.22448964,150.37717,233.97781)"
       inkscape:transform-center-y="-8.2542674"
       d="m 418.70147,226.27417 c 0.31457,-0.54484 -255.0615,-0.54484 -254.74694,0 0.31456,0.54484 128.0026,-220.6173249 127.37347,-220.6173249 -0.62912,0 127.05891,221.1621649 127.37347,220.6173249 z" />
    <path
       id="path1808-81-6"
       style="fill:#5ee29a;stroke-width:12.102;stroke-linecap:square"
       inkscape:transform-center-y="-9.7284781"
       transform="matrix(0.26458333,0,0,0.26458333,223.0144,224.49358)"
       d="m 291.81943,227.33115 c 0.31457,-0.54484 -128.17946,-1.60182 -127.8649,-1.05698 0.31456,0.54484 128.0026,-220.6173249 127.37347,-220.6173249 -0.62912,0 0.17687,222.2191449 0.49143,221.6743049 z"
       sodipodi:nodetypes="ssss" />
  </g>
</svg>
