<?xml version="1.0" encoding="utf-8"?>
<!-- Generator: Adobe Illustrator 24.3.0, SVG Export Plug-In . SVG Version: 6.00 Build 0)  -->
<svg version="1.1" id="Layer_1" xmlns="http://www.w3.org/2000/svg" xmlns:xlink="http://www.w3.org/1999/xlink" x="0px" y="0px"
	 viewBox="0 0 16 16" style="enable-background:new 0 0 16 16;" xml:space="preserve">
<style type="text/css">
	.st0{fill:#EF3A37;}
</style>
<circle class="st0" cx="8" cy="8" r="8"/>
<polygon points="6.9,3.6 5.8,3.9 6.7,4.7 "/>
<g>
	<g>
		<path d="M12,6L9,6.7V5.6c0-0.4,0-0.7-0.1-0.8C8.9,4.6,8.7,4.5,8.5,4.5c-0.2,0-0.3,0.1-0.4,0.2C8.1,4.8,8.1,5.1,8.1,5.6v4.8
			c0,0.4,0,0.6,0.1,0.8s0.2,0.3,0.4,0.3c0.2,0,0.4-0.1,0.4-0.3c0.1-0.2,0.1-0.6,0.1-1.1V9.6L12,8.9c0,0.8,0,1.4-0.1,1.8
			c-0.1,0.4-0.2,0.8-0.5,1.3c-0.3,0.4-0.7,0.8-1.1,1c-0.5,0.2-1,0.3-1.7,0.3c-0.9,0-1.6-0.2-2.1-0.5s-0.9-0.7-1.1-1.3
			C5.1,11.1,5,10.3,5,9.3V6.4c0-0.9,0.1-1.5,0.3-2c0.2-0.4,0.5-0.8,1.1-1.2s1.3-0.5,2.1-0.5c0.8,0,1.5,0.2,2.1,0.5s1,0.8,1.2,1.3
			C11.9,5,12,5.1,12,6z"/>
	</g>
	<polygon class="st0" points="5.6,3 4,5.8 7.3,5.8 	"/>
	<polygon points="5.5,3.5 4.5,5.7 6.9,5.4 	"/>
	<polygon class="st0" points="7.3,2.7 5.7,3.5 7.2,4.4 	"/>
	<polygon points="7.1,2.9 6.1,3.3 6.9,4 	"/>
</g>
</svg>
