<?xml version="1.0" encoding="utf-8"?>
<!-- Generator: Adobe Illustrator 24.3.0, SVG Export Plug-In . SVG Version: 6.00 Build 0)  -->
<svg version="1.1"
	 id="car-style-1" inkscape:version="0.91 r13725" sodipodi:docname="stripes.svg" xmlns:cc="http://creativecommons.org/ns#" xmlns:dc="http://purl.org/dc/elements/1.1/" xmlns:inkscape="http://www.inkscape.org/namespaces/inkscape" xmlns:rdf="http://www.w3.org/1999/02/22-rdf-syntax-ns#" xmlns:sodipodi="http://sodipodi.sourceforge.net/DTD/sodipodi-0.dtd" xmlns:svg="http://www.w3.org/2000/svg"
	 xmlns="http://www.w3.org/2000/svg" xmlns:xlink="http://www.w3.org/1999/xlink" x="0px" y="0px" viewBox="0 0 475 959.3"
	 style="enable-background:new 0 0 475 959.3;" xml:space="preserve">
<style type="text/css">
	.st0{fill:#1E1E1E;fill-opacity:0.9961;stroke:#000000;stroke-width:5;stroke-miterlimit:10;}
	.st1{opacity:0.9;fill:#0F0F0F;fill-opacity:0.9961;stroke:#000000;stroke-width:5;enable-background:new    ;}
	.st2{opacity:0.5;fill:#3C3C3C;fill-opacity:0.9961;enable-background:new    ;}
	.st3{fill:#212121;stroke:#191919;stroke-width:5;}
	.st4{fill:none;stroke:#141414;stroke-width:6;stroke-linecap:round;stroke-linejoin:round;enable-background:new    ;}
	.st5{fill:url(#path3757_1_);}
	.st6{fill:url(#path3787_1_);}
	.st7{fill:url(#path3752_1_);}
	.st8{fill:url(#path3735_1_);}
	.st9{fill:url(#path3783_1_);}
	.st10{fill:url(#path3799_1_);}
	.st11{fill:url(#path3803_1_);}
	.st12{fill:url(#rect3861_1_);}
	.st13{fill:url(#path3864_1_);}
	.st14{opacity:0.9;fill:#191919;enable-background:new    ;}
	.st15{fill:url(#path4165_1_);}
	.st16{fill:url(#path4167_1_);}
	.st17{fill:url(#path4169_1_);}
	.st18{fill:url(#path4171_1_);}
	.st19{fill:url(#path4173_1_);}
	.st20{fill:url(#path4175_1_);}
	.st21{fill:url(#path4177_1_);}
	.st22{fill:url(#path4179_1_);}
	.st23{fill:url(#path4181_1_);}
	.st24{fill:#E6E6E6;}
</style>
<g>
	<g id="layer1" transform="translate(-52.937 -486.69)">
		<g id="g3890">
			<path id="car-color" class="st0" d="M60,889.9c0,1.5,0.3,4.7,0.9,6.5l1.5,3.5l35.8-8.7l0.3,124.8c0.2,78-11.5,166.5-9.5,232.9
				s28,152.1,28,152.1l3.8,13.7c5.3,19.3,97.4,25.7,166.8,25.7c1.1,0,2.3,0,3.4,0s2.3,0,3.4,0c69.4,0,161.5-6.5,166.8-25.7l3.8-13.7
				c0,0,26-85.7,28-152.1s-9.7-155-9.5-232.9l0.3-124.8l35.8,8.7l1.5-3.5c0.6-1.7,0.9-5,0.9-6.5c0-0.8-0.1-1.8-0.2-2.7
				c-0.1-0.3-0.1-0.6-0.2-0.9c-0.1-0.3-0.2-0.6-0.2-0.9c-0.2-0.6-0.4-1.3-0.7-1.9c-0.8-1.8-1.9-3.5-3.3-4.8l0,0
				c-0.7-0.6-1.5-1.1-2.3-1.5L483.9,865l0.2-109.9c11.9-23.9,10.7-45.5,10.7-73.6c0-133.2-86.6-187.6-201.4-187c-0.8,0-1.6,0-2.3,0
				c-0.8,0-1.6,0-2.3,0c-114.8-0.6-201.4,53.7-201.4,187c0,28.1-1.2,49.7,10.7,73.6L98.3,865l-31.2,12.2c-0.8,0.4-1.6,0.8-2.3,1.5
				l0,0c-1.4,1.2-2.5,3-3.3,4.8c-0.3,0.6-0.5,1.2-0.7,1.9c-0.1,0.3-0.2,0.6-0.2,0.9c-0.1,0.3-0.2,0.6-0.2,0.9
				C60.1,888.1,60,889,60,889.9L60,889.9z"/>
			<path id="path3643" class="st1" d="M421.5,1100.1c0,33.4,1.8,65.3,5.1,94.8c48.7-25.7,30.3-98,31.5-205.6
				c0.6-49.7,1.9-89.5,2.4-121.5C437.2,914.9,421.5,1001.3,421.5,1100.1L421.5,1100.1z"/>
			<path id="path3658" class="st2" d="M421.5,1100.1c0,3.2,0,6.4,0.1,9.6c16.2-0.8,30.3-6.4,38.8-14.6c-0.1-4.7-0.2-9.5-0.3-14.4
				c-8.2,8.6-22.2,14.6-38.6,15.7C421.5,1097.6,421.5,1098.8,421.5,1100.1L421.5,1100.1z"/>
			<path id="path3707" class="st3" d="M393,512.6l0.6,5.1c2.5,21.5,26,37.7,54.5,39.3l7.1,0.4l-4.8-5.2
				c-14.7-15.9-32.5-28.3-52.8-37.4L393,512.6L393,512.6z"/>
			<path id="path3715" class="st4" d="M404.8,716.9c0,0-22.6-79.7-32-105.4c-9.8-26.8-39.1-98.9-39.1-98.9s42.5,8.7,57.9,30.5
				c54.9,77.2,53.8,232.7,53.8,232.7"/>
			
				<linearGradient id="path3757_1_" gradientUnits="userSpaceOnUse" x1="887.5008" y1="-130.5927" x2="864.3307" y2="-122.9728" gradientTransform="matrix(4.489659e-11 -1 -1 -4.489659e-11 282.9532 1510.8018)">
				<stop  offset="0" style="stop-color:#1A1A1A"/>
				<stop  offset="1" style="stop-color:#000000;stop-opacity:0"/>
			</linearGradient>
			<path id="path3757" class="st5" d="M384.1,630.4l2.3,4.4c1.2-1,2.4-1.8,3.8-2.4c11.7-4.8,29.2,10.7,35.8,26.9
				c0.2,0.5,0.8,1.8,1.7,3.4l-3.9-13.6c-8.5-17.3-23.1-27.5-34-23C387.7,627.1,385.7,628.5,384.1,630.4L384.1,630.4z"/>
			
				<linearGradient id="path3787_1_" gradientUnits="userSpaceOnUse" x1="906.6296" y1="182.255" x2="894.8696" y2="182.1949" gradientTransform="matrix(4.489659e-11 -1 -1 -4.489659e-11 583.515 1497.6722)">
				<stop  offset="0" style="stop-color:#1A1A1A"/>
				<stop  offset="1" style="stop-color:#000000;stop-opacity:0"/>
			</linearGradient>
			<path id="path3787" class="st6" d="M379.7,621.9l2.3,4.4c1.2-1,2.4-1.8,3.8-2.4c11.7-4.8,29.2,10.7,35.8,26.9
				c0.2,0.5,0.8,1.8,1.7,3.4l-3.9-13.6c-8.5-17.3-23.1-27.5-34-23C383.2,618.5,381.3,619.9,379.7,621.9L379.7,621.9z"/>
			
				<linearGradient id="path3752_1_" gradientUnits="userSpaceOnUse" x1="898.3031" y1="178.6217" x2="834.2232" y2="184.2117" gradientTransform="matrix(4.489659e-11 -1 -1 -4.489659e-11 582.0948 1491.4852)">
				<stop  offset="0" style="stop-color:#1A1A1A"/>
				<stop  offset="1" style="stop-color:#000000;stop-opacity:0"/>
			</linearGradient>
			<path id="path3752" class="st7" d="M378.3,615.7l2.3,4.4c1.2-1,2.4-1.8,3.8-2.4c11.7-4.8,29.2,10.7,35.8,26.9
				c0.2,0.5,0.8,1.8,1.7,3.4l-3.9-13.6c-8.5-17.3-23.1-27.5-34-23C381.8,612.3,379.8,613.8,378.3,615.7L378.3,615.7z"/>
			
				<linearGradient id="path3735_1_" gradientUnits="userSpaceOnUse" x1="905.9268" y1="157.8477" x2="892.4668" y2="164.8777" gradientTransform="matrix(4.489659e-11 -1 -1 -4.489659e-11 583.515 1497.6722)">
				<stop  offset="0" style="stop-color:#1A1A1A"/>
				<stop  offset="1" style="stop-color:#000000;stop-opacity:0"/>
			</linearGradient>
			<path id="path3735" class="st8" d="M374,598.7l1.8,6.2c1.7-1,3.5-1.7,5.5-2c16-3.1,34.3,21,38.5,43c0.6,3.4,8.6,28.9,8.8,32.2
				l0,0l-8-41.4c-5.5-26.3-22.4-44.9-38.2-41.9C379.3,595.4,376.5,596.7,374,598.7L374,598.7z"/>
			
				<linearGradient id="path3783_1_" gradientUnits="userSpaceOnUse" x1="884.1169" y1="153.8979" x2="839.397" y2="204.868" gradientTransform="matrix(4.489659e-11 -1 -1 -4.489659e-11 583.515 1497.6722)">
				<stop  offset="0" style="stop-color:#1A1A1A"/>
				<stop  offset="1" style="stop-color:#000000;stop-opacity:0"/>
			</linearGradient>
			<path id="path3783" class="st9" d="M374,598.7l1.8,6.2c1.7-1,3.5-1.7,5.5-2c16-3.1,34.3,21,38.5,43c0.6,3.4,8.6,28.9,8.8,32.2
				l0,0l-8-41.4c-5.5-26.3-22.4-44.9-38.2-41.9C379.3,595.4,376.5,596.7,374,598.7L374,598.7z"/>
			
				<linearGradient id="path3799_1_" gradientUnits="userSpaceOnUse" x1="855.3606" y1="102.3599" x2="772.7502" y2="101.1097" gradientTransform="matrix(4.010613e-11 -0.8933 -0.8933 -4.010613e-11 499.0607 1377.0844)">
				<stop  offset="0" style="stop-color:#1A1A1A"/>
				<stop  offset="1" style="stop-color:#000000;stop-opacity:0"/>
			</linearGradient>
			<path id="path3799" class="st10" d="M388.8,643.3l2.1,4c1-0.9,2.2-1.6,3.4-2.1c10.5-4.3,26.1,9.6,32,24c0.2,0.5,0.8,1.6,1.5,3
				l-3.5-12.2c-7.6-15.5-20.6-24.5-30.4-20.5C391.9,640.3,390.2,641.6,388.8,643.3L388.8,643.3z"/>
			
				<linearGradient id="path3803_1_" gradientUnits="userSpaceOnUse" x1="847.0674" y1="99.2233" x2="779.3074" y2="103.2233" gradientTransform="matrix(4.010613e-11 -0.8933 -0.8933 -4.010613e-11 502.6407 1390.8914)">
				<stop  offset="0" style="stop-color:#1A1A1A"/>
				<stop  offset="1" style="stop-color:#000000;stop-opacity:0"/>
			</linearGradient>
			<path id="path3803" class="st11" d="M392.3,657.1l2.1,4c1-0.9,2.2-1.6,3.4-2.1c10.5-4.3,26.1,9.6,32,24c0.2,0.5,0.8,1.6,1.5,3
				l-3.5-12.2c-7.6-15.5-20.6-24.5-30.4-20.5C395.5,654.1,393.7,655.4,392.3,657.1L392.3,657.1z"/>
			
				<linearGradient id="rect3861_1_" gradientUnits="userSpaceOnUse" x1="344.5812" y1="-207.7758" x2="320.4713" y2="-202.316" gradientTransform="matrix(0.138 -0.9904 -0.9904 -0.138 176.51 1560.3411)">
				<stop  offset="0" style="stop-color:#1A1A1A"/>
				<stop  offset="1" style="stop-color:#000000;stop-opacity:0"/>
			</linearGradient>
			<path id="rect3861" class="st12" d="M412,1267.1c-2-8.3-1.5-15.5,5.8-19.8l17.9,2.5c6.2,6.9,5,13.8,0.2,20.6L412,1267.1
				L412,1267.1z"/>
			
				<linearGradient id="path3864_1_" gradientUnits="userSpaceOnUse" x1="353.9715" y1="-205.236" x2="331.7014" y2="-204.8259" gradientTransform="matrix(0.138 -0.9904 -0.9904 -0.138 177.792 1550.0811)">
				<stop  offset="0" style="stop-color:#1A1A1A"/>
				<stop  offset="1" style="stop-color:#000000;stop-opacity:0"/>
			</linearGradient>
			<path id="path3864" class="st13" d="M415.3,1246.9c-1.2-8.2-0.6-15.2,5.5-18.8l17,2.4c3,6.5,5.2,13,0.1,19.6L415.3,1246.9
				L415.3,1246.9z"/>
			<path id="path4025" class="st14" d="M419.1,1100.1c0,33.5,1.8,65.5,5.1,95.1l0.4,3.7l3.2-1.7c12.7-6.7,21.1-16.6,26.4-29.1
				s7.6-27.6,8.4-45.1c1.6-35-2.6-80-2-133.6c0.6-49.7,1.9-89.5,2.4-121.5l-4.8-1.1C434.6,914.5,419,1001,419.1,1100.1L419.1,1100.1
				z M424.1,1100.1c0-91.2,13.5-171.7,33.7-220.1c-0.6,30-1.6,65.2-2.1,109.3c-0.6,53.9,3.7,99,2,133.4c-0.8,17.2-3.1,31.8-8.1,43.4
				c-4.5,10.5-11.2,18.5-20.9,24.5C425.7,1162.3,424.1,1131.9,424.1,1100.1L424.1,1100.1z"/>
			<path id="rect2864" class="st1" d="M173.7,1239.9l12.5,77.7c4.4,27.1,48.8,48.9,104.8,51c56.1-2.1,100.5-23.8,104.8-51l12.5-77.7
				c0-13.3-10.7-24-24-24H197.7C184.4,1215.9,173.7,1226.6,173.7,1239.9L173.7,1239.9z"/>
			<path id="path3703" class="st1" d="M139.5,808.4c0,3,0.3,5.9,1,8.8l0,0l12.3,63.8c6.6,17.7,14.3,32,32,32h212.5
				c17.7,0,25.4-14.3,32-32l12.3-63.8l0,0c0.6-2.9,1-5.8,1-8.8c0-45.4-57.4-82.2-151.5-82.3C196.8,726.2,139.5,763,139.5,808.4
				L139.5,808.4z"/>
			<path id="path4157" class="st1" d="M160.5,1100.1c0,33.4-1.8,65.3-5.1,94.8c-48.7-25.7-30.3-98-31.5-205.6
				c-0.6-49.7-1.9-89.5-2.4-121.5C144.8,914.9,160.5,1001.3,160.5,1100.1L160.5,1100.1z"/>
			<path id="path4159" class="st2" d="M160.5,1100.1c0,3.2,0,6.4-0.1,9.6c-16.2-0.8-30.3-6.4-38.8-14.6c0.1-4.7,0.2-9.5,0.3-14.4
				c8.2,8.6,22.2,14.6,38.6,15.7C160.5,1097.6,160.4,1098.8,160.5,1100.1L160.5,1100.1z"/>
			<path id="path4161" class="st3" d="M189.8,512.6l-0.6,5.1c-2.5,21.5-26,37.7-54.5,39.3l-7.1,0.4l4.8-5.2
				c14.7-15.9,32.5-28.3,52.8-37.4L189.8,512.6L189.8,512.6z"/>
			<path id="path4163" class="st4" d="M177.2,716.9c0,0,22.6-79.7,32-105.4c9.8-26.8,39.1-98.9,39.1-98.9s-42.5,8.7-57.9,30.5
				c-54.9,77.2-53.9,232.7-53.9,232.7"/>
			
				<linearGradient id="path4165_1_" gradientUnits="userSpaceOnUse" x1="887.5146" y1="1207.4496" x2="864.3445" y2="1215.0695" gradientTransform="matrix(4.489659e-11 -1 1 4.489659e-11 -1039.1 1510.8018)">
				<stop  offset="0" style="stop-color:#1A1A1A"/>
				<stop  offset="1" style="stop-color:#000000;stop-opacity:0"/>
			</linearGradient>
			<path id="path4165" class="st15" d="M197.8,630.4l-2.3,4.4c-1.2-1-2.4-1.8-3.8-2.4c-11.7-4.8-29.2,10.7-35.8,26.9
				c-0.2,0.5-0.8,1.8-1.7,3.4l3.9-13.6c8.5-17.3,23.1-27.5,34-23C194.3,627.1,196.3,628.5,197.8,630.4L197.8,630.4z"/>
			
				<linearGradient id="path4167_1_" gradientUnits="userSpaceOnUse" x1="906.6291" y1="1520.3395" x2="894.8692" y2="1520.2797" gradientTransform="matrix(4.489659e-11 -1 1 4.489659e-11 -1339.6001 1497.6722)">
				<stop  offset="0" style="stop-color:#1A1A1A"/>
				<stop  offset="1" style="stop-color:#000000;stop-opacity:0"/>
			</linearGradient>
			<path id="path4167" class="st16" d="M202.3,621.9l-2.3,4.4c-1.2-1-2.4-1.8-3.8-2.4c-11.7-4.8-29.2,10.7-35.8,26.9
				c-0.2,0.5-0.8,1.8-1.7,3.4l3.9-13.6c8.5-17.3,23.1-27.5,34-23C198.8,618.5,200.7,619.9,202.3,621.9L202.3,621.9z"/>
			
				<linearGradient id="path4169_1_" gradientUnits="userSpaceOnUse" x1="898.3123" y1="1516.726" x2="834.2323" y2="1522.3159" gradientTransform="matrix(4.489659e-11 -1 1 4.489659e-11 -1338.2 1491.4852)">
				<stop  offset="0" style="stop-color:#1A1A1A"/>
				<stop  offset="1" style="stop-color:#000000;stop-opacity:0"/>
			</linearGradient>
			<path id="path4169" class="st17" d="M203.7,615.7l-2.3,4.4c-1.2-1-2.4-1.8-3.8-2.4c-11.7-4.8-29.2,10.7-35.8,26.9
				c-0.2,0.5-0.8,1.8-1.7,3.4l3.9-13.6c8.5-17.3,23.1-27.5,34-23C200.2,612.3,202.1,613.8,203.7,615.7L203.7,615.7z"/>
			
				<linearGradient id="path4171_1_" gradientUnits="userSpaceOnUse" x1="905.962" y1="1495.9153" x2="892.5018" y2="1502.9451" gradientTransform="matrix(4.489659e-11 -1 1 4.489659e-11 -1339.6001 1497.6722)">
				<stop  offset="0" style="stop-color:#1A1A1A"/>
				<stop  offset="1" style="stop-color:#000000;stop-opacity:0"/>
			</linearGradient>
			<path id="path4171" class="st18" d="M208,598.7l-1.8,6.2c-1.7-1-3.5-1.7-5.5-2c-16-3.1-34.3,21-38.5,43
				c-0.6,3.4-8.6,28.9-8.8,32.2l0,0l8-41.4c5.5-26.3,22.4-44.9,38.2-41.9C202.7,595.4,205.5,596.7,208,598.7L208,598.7z"/>
			
				<linearGradient id="path4173_1_" gradientUnits="userSpaceOnUse" x1="884.1592" y1="1491.9348" x2="839.4392" y2="1542.9049" gradientTransform="matrix(4.489659e-11 -1 1 4.489659e-11 -1339.6001 1497.6722)">
				<stop  offset="0" style="stop-color:#1A1A1A"/>
				<stop  offset="1" style="stop-color:#000000;stop-opacity:0"/>
			</linearGradient>
			<path id="path4173" class="st19" d="M208,598.7l-1.8,6.2c-1.7-1-3.5-1.7-5.5-2c-16-3.1-34.3,21-38.5,43
				c-0.6,3.4-8.6,28.9-8.8,32.2l0,0l8-41.4c5.5-26.3,22.4-44.9,38.2-41.9C202.7,595.4,205.5,596.7,208,598.7L208,598.7z"/>
			
				<linearGradient id="path4175_1_" gradientUnits="userSpaceOnUse" x1="855.3581" y1="1600.3168" x2="772.7481" y2="1599.0668" gradientTransform="matrix(4.010613e-11 -0.8933 0.8933 4.010613e-11 -1255.1857 1377.0844)">
				<stop  offset="0" style="stop-color:#1A1A1A"/>
				<stop  offset="1" style="stop-color:#000000;stop-opacity:0"/>
			</linearGradient>
			<path id="path4175" class="st20" d="M193.2,643.3l-2.1,4c-1-0.9-2.2-1.6-3.4-2.1c-10.5-4.3-26.1,9.6-32,24
				c-0.2,0.5-0.8,1.6-1.5,3l3.5-12.2c7.6-15.5,20.6-24.5,30.4-20.5C190.1,640.3,191.8,641.6,193.2,643.3L193.2,643.3z"/>
			
				<linearGradient id="path4177_1_" gradientUnits="userSpaceOnUse" x1="847.0776" y1="1597.2021" x2="779.3176" y2="1601.2023" gradientTransform="matrix(4.010613e-11 -0.8933 0.8933 4.010613e-11 -1258.7858 1390.8914)">
				<stop  offset="0" style="stop-color:#1A1A1A"/>
				<stop  offset="1" style="stop-color:#000000;stop-opacity:0"/>
			</linearGradient>
			<path id="path4177" class="st21" d="M189.7,657.1l-2.1,4c-1-0.9-2.2-1.6-3.4-2.1c-10.5-4.3-26.1,9.6-32,24
				c-0.2,0.5-0.8,1.6-1.5,3l3.5-12.2c7.6-15.5,20.6-24.5,30.4-20.5C186.5,654.1,188.2,655.4,189.7,657.1L189.7,657.1z"/>
			
				<linearGradient id="path4179_1_" gradientUnits="userSpaceOnUse" x1="159.9503" y1="1117.535" x2="135.8403" y2="1122.9949" gradientTransform="matrix(-0.138 -0.9904 0.9904 -0.138 -932.59 1560.3411)">
				<stop  offset="0" style="stop-color:#1A1A1A"/>
				<stop  offset="1" style="stop-color:#000000;stop-opacity:0"/>
			</linearGradient>
			<path id="path4179" class="st22" d="M170,1267.1c2-8.3,1.5-15.5-5.8-19.8l-17.9,2.5c-6.2,6.9-5,13.8-0.2,20.6L170,1267.1
				L170,1267.1z"/>
			
				<linearGradient id="path4181_1_" gradientUnits="userSpaceOnUse" x1="169.3242" y1="1120.1007" x2="147.0541" y2="1120.5105" gradientTransform="matrix(-0.138 -0.9904 0.9904 -0.138 -933.8901 1550.0811)">
				<stop  offset="0" style="stop-color:#1A1A1A"/>
				<stop  offset="1" style="stop-color:#000000;stop-opacity:0"/>
			</linearGradient>
			<path id="path4181" class="st23" d="M166.7,1246.9c1.2-8.2,0.6-15.2-5.5-18.8l-17,2.4c-3,6.5-5.2,13-0.1,19.6L166.7,1246.9
				L166.7,1246.9z"/>
			<path id="path4183" class="st14" d="M162.9,1100.1c0,33.5-1.8,65.5-5.1,95.1l-0.4,3.7l-3.2-1.7c-12.7-6.7-21.1-16.6-26.4-29.1
				c-5.3-12.5-7.6-27.6-8.4-45.1c-1.6-35,2.6-80,2-133.6c-0.6-49.7-1.9-89.5-2.4-121.5l4.8-1.1
				C147.4,914.5,162.9,1001.1,162.9,1100.1L162.9,1100.1z M157.9,1100.1c0-91.2-13.5-171.7-33.7-220.1c0.6,30,1.6,65.2,2.1,109.3
				c0.6,53.9-3.7,99-2,133.4c0.8,17.2,3.1,31.8,8.1,43.4c4.5,10.5,11.2,18.5,20.9,24.5C156.3,1162.3,157.9,1131.9,157.9,1100.1
				L157.9,1100.1z"/>
		</g>
	</g>
	<path id="line" class="st24" d="M209.3,938.5h24.1V893h-24.1V938.5z M209.3,722.1h24.1V439.5h-24.1V722.1z M209.3,225.3h24.1V14
		h-24.1V225.3z M242.6,938.5h24.1V893h-24.1V938.5z M242.6,722.1h24.1V439.5h-24.1V722.1z M242.6,225.3h24.1V14h-24.1V225.3z"/>
</g>
</svg>
