<?xml version="1.0" encoding="utf-8"?>
<!-- Generator: Adobe Illustrator 24.3.0, SVG Export Plug-In . SVG Version: 6.00 Build 0)  -->
<svg version="1.1" id="Layer_1" xmlns="http://www.w3.org/2000/svg" xmlns:xlink="http://www.w3.org/1999/xlink" x="0px" y="0px"
	 viewBox="0 0 1074.8 567.8" style="enable-background:new 0 0 1074.8 567.8;" xml:space="preserve">
<style type="text/css">
	.st0{fill-rule:evenodd;clip-rule:evenodd;fill:#333333;}
	.st1{fill-rule:evenodd;clip-rule:evenodd;}
	.st2{fill-rule:evenodd;clip-rule:evenodd;fill:#3A3A3A;}
	.st3{fill-rule:evenodd;clip-rule:evenodd;fill-opacity:0.549;}
	.st4{fill-rule:evenodd;clip-rule:evenodd;fill:#E7E7E7;fill-opacity:0.6515;}
	.st5{fill-rule:evenodd;clip-rule:evenodd;fill-opacity:0.702;}
	.st6{opacity:0.4;fill-rule:evenodd;clip-rule:evenodd;fill:url(#path3397_4_);enable-background:new    ;}
	.st7{opacity:0.5;fill-rule:evenodd;clip-rule:evenodd;fill:url(#path3291_4_);enable-background:new    ;}
	.st8{opacity:0.5513;fill-rule:evenodd;clip-rule:evenodd;fill:url(#path3303_4_);enable-background:new    ;}
	.st9{fill-rule:evenodd;clip-rule:evenodd;fill:#FFFFFF;fill-opacity:0.7677;}
	.st10{opacity:0.95;fill-rule:evenodd;clip-rule:evenodd;fill:url(#path3269_4_);enable-background:new    ;}
	.st11{opacity:0.5;fill-rule:evenodd;clip-rule:evenodd;fill:url(#path3279_4_);enable-background:new    ;}
	.st12{opacity:0.5;fill-rule:evenodd;clip-rule:evenodd;fill:#4D4D4D;fill-opacity:0.549;enable-background:new    ;}
	.st13{fill-rule:evenodd;clip-rule:evenodd;fill:#FFFFFF;fill-opacity:0.3922;}
	.st14{fill-rule:evenodd;clip-rule:evenodd;fill:#FFFFFF;fill-opacity:0.549;}
	.st15{opacity:0.5171;fill-rule:evenodd;clip-rule:evenodd;fill:url(#path3419_4_);enable-background:new    ;}
	.st16{fill-rule:evenodd;clip-rule:evenodd;fill:#999999;fill-opacity:0.549;}
	.st17{fill-rule:evenodd;clip-rule:evenodd;fill:url(#path3323_4_);}
	.st18{fill-rule:evenodd;clip-rule:evenodd;fill:url(#path3341_4_);}
	.st19{fill:url(#path3353_4_);}
	.st20{opacity:0.6923;fill:url(#path3365_4_);enable-background:new    ;}
	.st21{opacity:0.6923;fill:url(#path3375_4_);enable-background:new    ;}
	.st22{fill-rule:evenodd;clip-rule:evenodd;fill-opacity:0.1569;}
	.st23{fill-rule:evenodd;clip-rule:evenodd;fill-opacity:0.1765;}
	.st24{opacity:0.2222;fill-rule:evenodd;clip-rule:evenodd;fill:url(#path3383_4_);enable-background:new    ;}
	.st25{fill-rule:evenodd;clip-rule:evenodd;fill:#F15C0F;fill-opacity:0.3726;stroke:#000000;stroke-opacity:0.1765;}
	.st26{fill-rule:evenodd;clip-rule:evenodd;fill:url(#path3409_4_);}
	.st27{fill-rule:evenodd;clip-rule:evenodd;fill:#FFFFFF;fill-opacity:0.4697;}
	.st28{fill-rule:evenodd;clip-rule:evenodd;fill:#FFFFFF;fill-opacity:0.702;}
	.st29{opacity:0.3675;fill-rule:evenodd;clip-rule:evenodd;fill:url(#path3453_4_);enable-background:new    ;}
	.st30{opacity:0.4829;fill-rule:evenodd;clip-rule:evenodd;fill-opacity:0.3922;enable-background:new    ;}
	.st31{fill-rule:evenodd;clip-rule:evenodd;fill:#FFFFFF;fill-opacity:0.2929;}
	.st32{fill-rule:evenodd;clip-rule:evenodd;fill:#FFFFFF;fill-opacity:0.1364;}
	.st33{fill-rule:evenodd;clip-rule:evenodd;fill:#1A1A1A;fill-opacity:0.2828;}
	.st34{fill-rule:evenodd;clip-rule:evenodd;fill:#1A1A1A;}
	.st35{fill-rule:evenodd;clip-rule:evenodd;fill:#FFFFFF;fill-opacity:0.1177;}
	.st36{fill-rule:evenodd;clip-rule:evenodd;fill:#FFFFFF;fill-opacity:0.1465;}
	.st37{fill-rule:evenodd;clip-rule:evenodd;fill:#1A1A1A;fill-opacity:0.2549;}
	.st38{opacity:0.3162;fill-rule:evenodd;clip-rule:evenodd;fill:#FFFFFF;fill-opacity:0.2576;enable-background:new    ;}
	.st39{opacity:0.406;fill-rule:evenodd;clip-rule:evenodd;fill:url(#path3513_4_);enable-background:new    ;}
	.st40{opacity:0.5;fill-rule:evenodd;clip-rule:evenodd;fill:url(#path3643_4_);enable-background:new    ;}
	.st41{opacity:0.95;fill-rule:evenodd;clip-rule:evenodd;fill:url(#path3655_4_);enable-background:new    ;}
	.st42{opacity:0.5;fill-rule:evenodd;clip-rule:evenodd;fill:url(#path3657_4_);enable-background:new    ;}
	.st43{opacity:0.2479;fill-rule:evenodd;clip-rule:evenodd;fill:url(#path3665_4_);enable-background:new    ;}
	.st44{fill-rule:evenodd;clip-rule:evenodd;fill:url(#path3669_4_);}
	.st45{fill-rule:evenodd;clip-rule:evenodd;fill:url(#path3671_4_);}
	.st46{fill:url(#path3675_4_);}
	.st47{opacity:0.6923;fill:url(#path3677_4_);enable-background:new    ;}
	.st48{opacity:0.6923;fill:url(#path3679_4_);enable-background:new    ;}
	.st49{opacity:0.2222;fill-rule:evenodd;clip-rule:evenodd;fill:url(#path3685_4_);enable-background:new    ;}
	.st50{fill-rule:evenodd;clip-rule:evenodd;fill:url(#path3695_4_);}
	.st51{fill-rule:evenodd;clip-rule:evenodd;fill:url(#path3441_4_);}
	.st52{opacity:0.3675;fill-rule:evenodd;clip-rule:evenodd;fill:url(#path3709_4_);enable-background:new    ;}
	.st53{fill:#333333;}
	.st54{fill-rule:evenodd;clip-rule:evenodd;fill:#212121;stroke:#000000;}
	.st55{fill-rule:evenodd;clip-rule:evenodd;fill:#808080;stroke:#000000;}
	.st56{fill-rule:evenodd;clip-rule:evenodd;fill:#B3B3B3;stroke:#000000;}
	.st57{fill-rule:evenodd;clip-rule:evenodd;fill:#999999;stroke:#000000;}
	.st58{fill-rule:evenodd;clip-rule:evenodd;fill:#FE6A00;stroke:#000000;}
	.st59{fill-rule:evenodd;clip-rule:evenodd;fill:#CCCCCC;stroke:#000000;}
	.st60{fill:none;stroke:#000000;}
	.st61{fill-rule:evenodd;clip-rule:evenodd;fill:#806600;stroke:#000000;}
	.st62{fill-rule:evenodd;clip-rule:evenodd;fill:#554400;stroke:#000000;}
	.st63{fill-rule:evenodd;clip-rule:evenodd;stroke:#000000;}
	.st64{fill-rule:evenodd;clip-rule:evenodd;fill:#3A3A3A;stroke:#000000;}
	.st65{fill-rule:evenodd;clip-rule:evenodd;fill:#111111;stroke:#000000;}
	.st66{fill-rule:evenodd;clip-rule:evenodd;fill:#565656;stroke:#000000;}
	.st67{fill-rule:evenodd;clip-rule:evenodd;fill:#FFCC00;stroke:#000000;}
	.st68{fill-rule:evenodd;clip-rule:evenodd;fill:#FFFFFF;stroke:#000000;}
	.st69{fill-rule:evenodd;clip-rule:evenodd;fill:#333333;stroke:#000000;}
	.st70{opacity:0.4;fill:#0C0C0C;}
	.st71{opacity:0.36;fill:#161616;}
	.st72{fill:#878787;}
	.st73{fill:#232323;}
	.st74{fill:#303030;}
	.st75{fill:#020202;}
	.st76{fill-rule:evenodd;clip-rule:evenodd;fill:#606060;}
</style>
<image style="overflow:visible;" width="1433" height="757" xlink:href="Capture-web.JPG"  transform="matrix(0.75 0 0 0.75 0 0)">
</image>
<sodipodi:namedview  bordercolor="#666666" borderopacity="1.0" gridtolerance="10000" guidetolerance="10" id="base" objecttolerance="10" pagecolor="#ffffff" showgrid="false" showguides="true">
	</sodipodi:namedview>
<g id="layer1" transform="translate(-25.11 -227.66)">
	<g id="g3517">
		<g id="g3543" transform="translate(93.099 -27.014)">
			<path id="path3541" class="st0" d="M793.7,236.7c-3.6,0.1-3.5-26.7-3.5-26.7l13.4-1.4C803.6,208.6,802.3,237,793.7,236.7z"/>
			<path id="path3539" class="st1" d="M841,151c0,0,2.4,5.8,3.3,21.6c-2.7,3.8-2.5,3.6-0.1,2c0.1,3,0.2,6.4,0.2,10.2
				c-1.6,3.2-2.6,4.3-0.2,2.2c0,3.1-0.1,6.4-0.2,10.1c-0.9,2.1-4.3,4.6-0.1,2.5c-0.1,3.6-0.5,8.5-1,13.5c-0.1,1-4,7-0.2,3.3
				c-1,8.8-2.5,16.9-3.2,18.2c-0.3,2.4-41.3,4.7-46.1,1.7c5.8-27.2,0-83.4,0-83.4L841,151L841,151z"/>
		</g>
		<g id="g3635" transform="matrix(-1 0 0 1 665.46 -27.014)">
			<path id="path3637" class="st0" d="M27.3,236.7c-3.6,0.1-3.5-26.7-3.5-26.7l13.4-1.4C37.2,208.6,35.9,237,27.3,236.7z"/>
			<path id="path3639" class="st1" d="M74.6,151c0,0,2.4,5.8,3.3,21.6c-2.7,3.8-2.5,3.6-0.1,2c0.1,3,0.2,6.4,0.2,10.2
				c-1.6,3.2-2.6,4.3-0.2,2.2c0,3.1-0.1,6.4-0.2,10.1c-0.9,2.1-4.3,4.6-0.1,2.5c-0.1,3.6-0.5,8.5-1,13.5c-0.1,1-4,7-0.2,3.3
				c-1,8.8-2.5,16.9-3.2,18.2c-0.3,2.4-41.3,4.7-46.1,1.7c5.8-27.2,0-83.4,0-83.4L74.6,151L74.6,151z"/>
		</g>
		<path id="path2487" class="st2" d="M762.5-17.6c-39.9,0.1-86.4,0.5-101.3,13.6c-8.7,8.2-26.3,40-30.7,40.7
			c-0.4,0.4-3.5-2.4-9.6-3.1c-17.7-2.1-24.6-1-26.2,8c-0.4,13.8,13.4,8.9,27,12c-4.5,9.8-8.7,20.1-8.7,20.1s-3.2,3.8-9.5,3.9
			c-15.7,13.9-12.9,48.9-12.9,48.9s-1.7,21,2,31.9c4.4,30,25.2,37.4,25.2,37.4l69.7,7.7l1.7-9l72,2v0.1l1.4,0l1.4,0v-0.1l72-2l1.7,9
			l69.7-7.7c0,0,20.8-7.4,25.2-37.4c3.7-10.9,2-31.9,2-31.9s2.8-35-12.9-48.9c-6.3,0-9.5-3.9-9.5-3.9s-4.3-10.3-8.7-20.1
			c13.5-3.1,27.4,1.8,27-12c-1.6-9-8.6-10.1-26.2-8c-6.1,0.7-9.2,3.5-9.6,3.1C890,36,872.4,4.2,863.8-4
			C848.9-17.1,802.4-17.5,762.5-17.6L762.5-17.6z"/>
		<path id="path3651" class="st3" d="M750.3,168.5c-24.4,0-73.3,0.1-73.9,1c-1,2.7,4.6,12.1,6.2,13.9c7.5,1.4,70.1,1.4,78.4,1.4v0
			c0,0,1.3,0,1.5,0c0.1,0,1.5,0,1.5,0v0c8.3,0,70.9-0.1,78.4-1.4c1.6-1.8,7.2-11.2,6.2-13.9c-0.7-1.1-77-1-84.7-1h-2.7
			C759.5,168.5,756.8,168.5,750.3,168.5L750.3,168.5z"/>
		<path id="path3693" class="st4" d="M724.7,98.4c-19.8,0-40,0.5-41.6,2.3c-4.3,5.4,12.6,31.3,18,34c12.1,4.5,50.6,5.4,60.2,5.5v0
			c0,0,0.7,0,1.1,0c0.4,0,1.1,0,1.1,0v0c9.6-0.1,48-1,60.2-5.5c5.4-2.6,22.4-28.6,18-34c-2.9-3.3-71.3-2.1-79.3-1.9
			C758.7,98.7,742.3,98.4,724.7,98.4L724.7,98.4z"/>
		<path id="path3445" class="st5" d="M741.4,105.4c-21,0.1-49.4,0.5-51.2,2.3c-3.1,5.5,8.4,21.1,15.7,25c2.3,2.6,43.6,3.8,55.1,4.1
			v0.1c0,0,0.9,0,1.5,0c0.7,0,1.5,0,1.5,0v-0.1c11.4-0.3,52.7-1.5,55-4.1c7.3-3.9,18.8-19.5,15.7-25c-2.7-2.7-64.4-2.3-72.3-2.2
			C759.9,105.4,751.9,105.4,741.4,105.4L741.4,105.4z"/>
		
			<radialGradient id="path3397_4_" cx="700.7275" cy="-453.0132" r="51.948" gradientTransform="matrix(-4.2807 3.889200e-02 2.454100e-03 0.2701 3853.8677 191.8095)" gradientUnits="userSpaceOnUse">
			<stop  offset="0" style="stop-color:#FFFFFF"/>
			<stop  offset="1" style="stop-color:#FFFFFF;stop-opacity:0"/>
		</radialGradient>
		<path id="path3397" class="st6" d="M664.8,85.2c12.4,18.1,16.9,26.6,24.4,39c-12.8-34.2,0.1-23.2,73.3-25.5
			c73.2,2.3,86.1-8.8,73.3,25.5c7.5-12.4,23.1-32.7,35.5-50.8C860.9,87.7,773.1,94,762.5,94.7C751.9,94,675.1,99.5,664.8,85.2
			L664.8,85.2z"/>
		
			<radialGradient id="path3291_4_" cx="357.3341" cy="573.5412" r="27.4735" gradientTransform="matrix(0.1865 0.129 1.1433 -1.6532 144.0547 991.3452)" gradientUnits="userSpaceOnUse">
			<stop  offset="0" style="stop-color:#4D4D4D"/>
			<stop  offset="1" style="stop-color:#4D4D4D;stop-opacity:0"/>
		</radialGradient>
		<path id="path3291" class="st7" d="M837.2,127.4c0,0,35.4-54.5,54.7-76.3c3.5,4.1-31.7,52.6-35,55.8
			C849.6,112.8,837.2,127.4,837.2,127.4z"/>
		
			<radialGradient id="path3303_4_" cx="530.207" cy="145.6753" r="73.1195" gradientTransform="matrix(-1.4747 -0.7142 -0.2648 0.5468 1695.6548 367.9106)" gradientUnits="userSpaceOnUse">
			<stop  offset="0" style="stop-color:#FFFFFF;stop-opacity:0"/>
			<stop  offset="0.3741" style="stop-color:#FFFFFF;stop-opacity:0.2273"/>
			<stop  offset="0.8188" style="stop-color:#FFFFFF;stop-opacity:0.6534"/>
			<stop  offset="1" style="stop-color:#5E5E5E"/>
		</radialGradient>
		<path id="path3303" class="st8" d="M824.7,52.4c0,0,34.5-1.8,67.8-4.8c5.7,5.3,10.7,12.1,15.4,26.7
			C892,59.3,824.7,52.4,824.7,52.4z"/>
		<path id="path3259" class="st9" d="M844.8,129.9c0.4,3.1,5.7,2.5,5.7,2.5s29-4.5,39.1-5c12-1.2,28.5-5.4,28.5-5.4l4.3-23.5
			c0,0-8.9-7.9-11.8-8.8C881,97.4,872.6,92.7,844.8,129.9z"/>
		<path id="path3261" class="st3" d="M855.4,182.8c36.7-1.5,43.2-2.4,49.2-4.1c4.1-3.2,13.8-21.8,13.8-21.8S877.3,160.6,855.4,182.8
			z"/>
		
			<linearGradient id="path3269_4_" gradientUnits="userSpaceOnUse" x1="859.1368" y1="689.2166" x2="852.9459" y2="680.9456" gradientTransform="matrix(1 0 0 -1 67.989 780.0413)">
			<stop  offset="0" style="stop-color:#4C4C4C;stop-opacity:0.4773"/>
			<stop  offset="1" style="stop-color:#989898;stop-opacity:0"/>
		</linearGradient>
		<path id="path3269" class="st10" d="M910.1,89.4l6.8-11c0,0,9.2,6.9,11.4,16.5c0.2,13.2-3.4,24.9-3.4,24.9l-6.1,1.9l4-23.3
			L910.1,89.4L910.1,89.4z"/>
		
			<radialGradient id="path3279_4_" cx="345.9178" cy="565.6612" r="20.0771" gradientTransform="matrix(0.2004 0.1505 1.0967 -1.4602 161.9391 875.0239)" gradientUnits="userSpaceOnUse">
			<stop  offset="0" style="stop-color:#FFFFFF"/>
			<stop  offset="1" style="stop-color:#FFFFFF;stop-opacity:0"/>
		</radialGradient>
		<path id="path3279" class="st11" d="M836.5,124.8c0.2-0.8,21.1-28,21.1-28l18.6-28.4c0,0-16.4,18.4-22.4,26.9
			C847.8,103.8,836.5,124.8,836.5,124.8L836.5,124.8z"/>
		<path id="path3289" class="st12" d="M837.2,127.4L858.9,96c0,0,1.4,7.7-1.9,10.9C849.6,112.8,837.2,127.4,837.2,127.4z"/>
		<path id="path3301" class="st13" d="M871.4,81.4c0.4-0.9,11.1-17.1,11.7-17.9c0.6-0.8,9.4-12.2,9.4-12.2L879,73.1L871.4,81.4
			L871.4,81.4z"/>
		<path id="path3319" class="st14" d="M888,127.1l22.1-37.4c-1.3,5.2-9.1,19.7-11.5,24.4C895.3,119.8,888,127.1,888,127.1z"/>
		
			<linearGradient id="path3419_4_" gradientUnits="userSpaceOnUse" x1="776.8422" y1="669.1498" x2="802.8359" y2="653.8431" gradientTransform="matrix(1 0 0 -1 67.989 780.0413)">
			<stop  offset="0" style="stop-color:#CCCCCC;stop-opacity:0"/>
			<stop  offset="0.373" style="stop-color:#FFFFFF;stop-opacity:0.7784"/>
			<stop  offset="0.6865" style="stop-color:#FFFFFF;stop-opacity:0.3882"/>
			<stop  offset="1" style="stop-color:#CCCCCC;stop-opacity:0"/>
		</linearGradient>
		<path id="path3419" class="st15" d="M792.1,144.2c24.1,2.1,62.2,0.4,79.4,1.5c11.1-43.8,39.8-60,39.8-60l-41.8,4.1
			c0,0-17.2,28.7-35,40.6C830,142.1,813.7,141.9,792.1,144.2L792.1,144.2z"/>
		<path id="path3321" class="st16" d="M888,127.1l11.7-10.6l10.4-26.8c-1.3,5.2-9.1,19.7-11.5,24.4C895.3,119.8,888,127.1,888,127.1
			L888,127.1z"/>
		
			<radialGradient id="path3323_4_" cx="400.2994" cy="584.7315" r="13.8146" gradientTransform="matrix(0.1846 9.230800e-02 0.7499 -1.4999 363.3363 943.2952)" gradientUnits="userSpaceOnUse">
			<stop  offset="0" style="stop-color:#FFFFFF"/>
			<stop  offset="1" style="stop-color:#FFFFFF;stop-opacity:0"/>
		</radialGradient>
		<path id="path3323" class="st17" d="M859.8,134.2c10.6-33.9,28.4-54.2,28.4-54.2l-6.6,12.8l6.6-10.2c0,0-8.3,17.2-18.4,32.9
			C868.3,119.1,867.3,117.3,859.8,134.2L859.8,134.2z"/>
		
			<radialGradient id="path3341_4_" cx="726.003" cy="616.0833" r="34.2553" gradientTransform="matrix(0.9745 0.2244 0.2037 -0.8847 33.2775 569.2217)" gradientUnits="userSpaceOnUse">
			<stop  offset="0" style="stop-color:#FFFFFF"/>
			<stop  offset="1" style="stop-color:#FFFFFF;stop-opacity:0"/>
		</radialGradient>
		<path id="path3341" class="st18" d="M837.2,193.9c10-0.9,21.4-27,33.9-39.6c-4,7-27.3,42.5-27.3,42.5l61.9-2.7
			c0,0-56.7,5-63.4,4.6C835.3,204,844.2,196.8,837.2,193.9L837.2,193.9z"/>
		<path id="path3351" class="st14" d="M851.8,184.7l1.7-2.2c0,0,45.2-2.5,50.2-3.6c2.6-0.6,14.6-21.9,14.6-21.9s1.4-0.2,2.5,0.2
			c-2.9,2.1-8.4,22.6-15.7,24.3C894.1,184.3,851.8,184.7,851.8,184.7L851.8,184.7z"/>
		
			<radialGradient id="path3353_4_" cx="829.961" cy="608.4972" r="7.6044" gradientTransform="matrix(1 0 0 -1 67.609 777.9503)" gradientUnits="userSpaceOnUse">
			<stop  offset="0" style="stop-color:#FFFFFF;stop-opacity:0"/>
			<stop  offset="0.3741" style="stop-color:#FFFFFF;stop-opacity:0.2273"/>
			<stop  offset="0.8188" style="stop-color:#FFFFFF;stop-opacity:0.6534"/>
			<stop  offset="1" style="stop-color:#5E5E5E"/>
		</radialGradient>
		<path id="path3353" class="st19" d="M905.2,169.5c0,4.2-3.3,7.6-7.5,7.7c-4.2,0-7.6-3.3-7.7-7.5c0-0.1,0-0.1,0-0.2
			c0-4.2,3.3-7.6,7.5-7.7c4.2,0,7.6,3.3,7.7,7.5C905.2,169.3,905.2,169.4,905.2,169.5z"/>
		
			<radialGradient id="path3365_4_" cx="826.8907" cy="594.0839" r="2.5351" gradientTransform="matrix(1.0926 0 0 -1.0724 -7.7192 802.5859)" gradientUnits="userSpaceOnUse">
			<stop  offset="0" style="stop-color:#FFFFFF"/>
			<stop  offset="1" style="stop-color:#FFFFFF;stop-opacity:0"/>
		</radialGradient>
		<path id="path3365" class="st20" d="M898.5,165.5c0,1.5-1.2,2.7-2.7,2.8c-1.5,0-2.8-1.2-2.8-2.7c0,0,0,0,0-0.1
			c0-1.5,1.2-2.7,2.7-2.8C897.2,162.7,898.5,163.9,898.5,165.5C898.5,165.5,898.5,165.5,898.5,165.5z"/>
		
			<radialGradient id="path3375_4_" cx="821.8316" cy="600.7217" r="2.5351" gradientTransform="matrix(1.0926 0 0 -1.0724 3.2068 816.6559)" gradientUnits="userSpaceOnUse">
			<stop  offset="0" style="stop-color:#FFFFFF"/>
			<stop  offset="1" style="stop-color:#FFFFFF;stop-opacity:0"/>
		</radialGradient>
		<path id="path3375" class="st21" d="M903.9,172.5c0,1.5-1.2,2.7-2.7,2.8c-1.5,0-2.8-1.2-2.8-2.7c0,0,0,0,0-0.1
			c0-1.5,1.2-2.7,2.7-2.8C902.6,169.7,903.9,170.9,903.9,172.5C903.9,172.4,903.9,172.4,903.9,172.5z"/>
		<path id="path3379" class="st22" d="M901.2,49.5c0.3,1.2,1.3,1.3,1.4,3.9c17.5-2.6,25.6,0.7,27.8-10.8
			C923.2,49.6,906.3,42.8,901.2,49.5z"/>
		<path id="path3381" class="st23" d="M907,33.2c4.8-0.6,15.9-1.3,20.3,2.2c4.3,3.7,3,8.5,2.2,11.1C931.1,31.6,918.3,34.5,907,33.2
			L907,33.2z"/>
		
			<radialGradient id="path3383_4_" cx="858.525" cy="903.3665" r="12.8067" gradientTransform="matrix(1.3578 -0.1998 -7.479000e-02 -0.5083 -187.1727 668.545)" gradientUnits="userSpaceOnUse">
			<stop  offset="0" style="stop-color:#FFFFFF"/>
			<stop  offset="1" style="stop-color:#FFFFFF;stop-opacity:0"/>
		</radialGradient>
		<path id="path3383" class="st24" d="M902.4,43.1c-0.1-6.2,5.8-8.1,13.8-8.9c8.5-0.4,10.8,1.1,11.7,4c0.5,1.4-0.3,2.9-1.3,3.2
			c-5.2,0.7-2-2.7-8.4-2.7C913,37.3,904.4,45.9,902.4,43.1L902.4,43.1z"/>
		<path id="path3393" class="st22" d="M896.1,37.4c0.9-0.8,2.6-2.5,8.6-3c-6,3.7-1.9,10.3-1.9,10.3S899.7,40.2,896.1,37.4
			L896.1,37.4z"/>
		<path id="path3395" class="st25" d="M930.2,41.9c0,1.5-0.2,3.9-0.9,5.3c-8.4,0.7-15.2,0.6-19.1,0c-1.8-0.7-3.3-3.2,0.4-4.6
			C914.6,41.5,917,42.9,930.2,41.9z"/>
		
			<linearGradient id="path3409_4_" gradientUnits="userSpaceOnUse" x1="811.7056" y1="638.9792" x2="802.5355" y2="646.9241" gradientTransform="matrix(1 0 0 -1 67.989 780.0413)">
			<stop  offset="0" style="stop-color:#E7E7E7"/>
			<stop  offset="1" style="stop-color:#E7E7E7;stop-opacity:0"/>
		</linearGradient>
		<path id="path3409" class="st26" d="M886.9,128.5c-2.3,9.4-33,9.2-33,9.2l3.9-5.5C857.8,132.1,872.3,130,886.9,128.5L886.9,128.5z
			"/>
		<path id="path3443" class="st27" d="M822.2,168.6c22.5-1.3,26-1.3,26.8,0.6c0.7,1.5-1.5,6.6-4.4,10.7
			C849.6,167.1,854.8,168.6,822.2,168.6L822.2,168.6z"/>
		<path id="path3447" class="st28" d="M761,112.3L761,112.3l-70.5,0.4c0,0,24.4,1.3,70.3,1.7v0c0.6,0,1.2,0,1.8,0c0.6,0,1.1,0,1.7,0
			v0c45.9-0.4,70.3-1.7,70.3-1.7l-70.5-0.4c0,0,0,0,0,0l-1.5,0L761,112.3L761,112.3z"/>
		<path id="path3449" class="st28" d="M694.2,120.3c0,0,20.9,2,66.3,2.4v0c0.7,0,1.3,0,2,0c0.7,0,1.3,0,2,0v0
			c45.4-0.4,66.3-2.4,66.3-2.4l-68.3,0.2L694.2,120.3z"/>
		<path id="path3451" class="st28" d="M699.7,127.4c0,0,15.6,3.4,61,3.9v0c0.6,0,1.2,0,1.8,0c0.6,0,1.1,0,1.7,0v0
			c45.5-0.5,61-3.9,61-3.9s-35.7,1.9-61.2,1.8c0,0,0,0,0,0c-0.5,0-1,0-1.5,0c-0.5,0-1,0-1.5,0c0,0,0,0,0,0
			C735.4,129.3,699.7,127.4,699.7,127.4z"/>
		
			<linearGradient id="path3453_4_" gradientUnits="userSpaceOnUse" x1="854.8848" y1="648.3514" x2="849.1484" y2="648.8849" gradientTransform="matrix(1 0 0 -1 67.989 780.0413)">
			<stop  offset="0" style="stop-color:#FFFFFF;stop-opacity:0.5455"/>
			<stop  offset="1" style="stop-color:#FFFFFF;stop-opacity:2.272700e-02"/>
		</linearGradient>
		<path id="path3453" class="st29" d="M924.6,121.5c0,0-2.2,12.1-10,19.8c4.5-8.8,2.7-16.9,2.7-16.9L924.6,121.5L924.6,121.5z"/>
		<path id="path3463" class="st30" d="M918.5,156.8c10.3-1.7,15.1-4.4,15.1-4.4s-4.3,4.3-13.3,5.1
			C917.9,157.5,919.1,158.5,918.5,156.8z"/>
		<path id="path3465" class="st30" d="M918.2,121.2c10.3-1.7,16.6-5.3,16.6-5.3s-7.6,5.4-16.6,6.2
			C915.8,122.2,918.8,122.9,918.2,121.2z"/>
		<path id="path3467" class="st31" d="M794.8,185.2l47.6-1.6l-0.6,2.1L794.8,185.2L794.8,185.2z"/>
		<path id="path3469" class="st32" d="M702,184.4l58.9,3.1l0,0.2l1.6-0.1l1.6,0.1l0-0.2l58.9-3.1l-60.5,1.1L702,184.4z"/>
		<path id="path3471" class="st32" d="M679.8,172l81.2,1.4v0l1.5,0l1.5,0v0l81.2-1.4l-82.7,0.4L679.8,172z"/>
		<path id="path3473" class="st32" d="M680,175.8l80.8,1.3v0.1l1.7,0l1.7,0v-0.1l80.8-1.3l-82.5,0.4L680,175.8L680,175.8z"/>
		<path id="path3475" class="st32" d="M679.9,179.3l81.1,1.3v0l1.5,0l1.5,0v0l81.1-1.3l-82.6,0.4L679.9,179.3L679.9,179.3z"/>
		<path id="path3477" class="st33" d="M873.4,14c0,0,18.8,22.3,14.1,30.8c-1.1-9.7-14.7-28.5-14.7-28.5L873.4,14L873.4,14z"/>
		<path id="path3265" class="st34" d="M748.7-7c-26.5,0-80.3,0.8-85.6,6.6c-8.1,9.5-21.6,34.8-24.4,44.9c4,3.8,117.3,3,124,3
			c6.7,0,120,0.8,124-3c-2.8-10-16.3-35.4-24.4-44.9c-6.9-7.5-96-6.6-99.6-6.5C761.9-6.9,756.9-7,748.7-7L748.7-7z"/>
		<path id="path3479" class="st33" d="M867.8,7.9c0,0-2.7-4.6-5.9-7.8c-4.7-3.4-26.2-4.4-26.2-4.4s9.5,0.9,23.4,3.9
			C862.8,0.2,867.8,7.9,867.8,7.9L867.8,7.9z"/>
		<path id="path3481" class="st35" d="M855.4,47.8c0,0,27.7,0.7,32.7-3c2.1-7.1-10-23.4-10-23.4L855.4,47.8L855.4,47.8z"/>
		<path id="path3483" class="st35" d="M762.6-15.6c0,0,76.1,0.3,89.4,7c-18.3-4-89.4-2.9-89.4-2.9V-15.6z"/>
		<path id="path3505" class="st36" d="M679,186.5l1.2,1.8l81,2l0,0.1l1.3,0l1.3,0l0-0.1l81-2l1.2-1.8l-83.5,2.6L679,186.5L679,186.5
			z"/>
		<path id="path3507" class="st36" d="M851.9,186.8l58.4-2.8l-59.8,4.2L851.9,186.8L851.9,186.8z"/>
		<path id="path3509" class="st37" d="M932.2,158.6c-7.9,2.7-3.5,16.5-25,37.2c8.9-5.6,11.9-7.4,17.6-15.6
			C931.2,170.9,930.9,166.1,932.2,158.6z"/>
		<path id="path3511" class="st38" d="M855.4,47.8c0,0-82.2,2.6-77.2-1c0.6-2,9.8-39.9,25.2-51.6c31.2,0.7,46.9,1.6,55.3,3.6
			C867.3,9.5,878,21.5,878,21.5L855.4,47.8L855.4,47.8z"/>
		
			<linearGradient id="path3513_4_" gradientUnits="userSpaceOnUse" x1="687.1038" y1="738.9025" x2="686.6838" y2="713.9513" gradientTransform="matrix(1 0 0 -1 67.989 780.0413)">
			<stop  offset="0" style="stop-color:#FFFFFF"/>
			<stop  offset="1" style="stop-color:#FFFFFF;stop-opacity:0"/>
		</linearGradient>
		<path id="path3513" class="st39" d="M638.6,46c0,0-6.2,3.3,187.5,4.3c18.3,3.5,45.1,9.3,45.1,9.3l-224.7-9.4L638.6,46L638.6,46z"
			/>
		
			<radialGradient id="path3643_4_" cx="-681.6696" cy="492.4924" r="27.4735" gradientTransform="matrix(-0.1865 0.129 -1.1433 -1.6532 1094.5052 991.3452)" gradientUnits="userSpaceOnUse">
			<stop  offset="0" style="stop-color:#4D4D4D"/>
			<stop  offset="1" style="stop-color:#4D4D4D;stop-opacity:0"/>
		</radialGradient>
		<path id="path3643" class="st40" d="M687.7,127.4c0,0-35.4-54.5-54.7-76.3c-3.6,4.1,31.7,52.6,35,55.8
			C675.4,112.8,687.7,127.4,687.7,127.4z"/>
		<path id="path3647" class="st9" d="M680.2,129.9c-0.4,3.1-5.7,2.5-5.7,2.5s-29-4.5-39.1-5c-11.9-1.2-28.5-5.4-28.5-5.4l-4.3-23.5
			c0,0,8.9-7.9,11.8-8.8C644,97.4,652.4,92.7,680.2,129.9L680.2,129.9z"/>
		<path id="path3649" class="st3" d="M669.6,182.8c-36.7-1.5-43.2-2.4-49.2-4.1c-4.1-3.2-13.8-21.8-13.8-21.8
			S647.7,160.6,669.6,182.8L669.6,182.8z"/>
		
			<linearGradient id="path3655_4_" gradientUnits="userSpaceOnUse" x1="564.72" y1="692.3353" x2="564.9621" y2="676.5839" gradientTransform="matrix(-1 0 0 -1 1170.5701 780.0413)">
			<stop  offset="0" style="stop-color:#4C4C4C;stop-opacity:0.4773"/>
			<stop  offset="1" style="stop-color:#989898;stop-opacity:0"/>
		</linearGradient>
		<path id="path3655" class="st41" d="M614.9,89.4l-6.8-11c0,0-9.2,6.9-11.4,16.5c-0.2,13.2,3.4,24.9,3.4,24.9l6.1,1.9l-4-23.3
			L614.9,89.4L614.9,89.4z"/>
		
			<radialGradient id="path3657_4_" cx="-567.9288" cy="471.4791" r="20.0771" gradientTransform="matrix(-0.2004 0.1505 -1.0967 -1.4602 1076.621 875.0239)" gradientUnits="userSpaceOnUse">
			<stop  offset="0" style="stop-color:#FFFFFF"/>
			<stop  offset="1" style="stop-color:#FFFFFF;stop-opacity:0"/>
		</radialGradient>
		<path id="path3657" class="st42" d="M688.5,124.8c-0.2-0.8-21.1-28-21.1-28l-18.6-28.4c0,0,16.4,18.4,22.4,26.9
			C677.1,103.8,688.5,124.8,688.5,124.8z"/>
		<path id="path3659" class="st12" d="M687.7,127.4L666.1,96c0,0-1.4,7.7,1.9,10.9C675.4,112.8,687.7,127.4,687.7,127.4z"/>
		<path id="path3661" class="st13" d="M653.5,81.4c-0.4-0.9-11.1-17.1-11.7-17.9c-0.6-0.8-9.4-12.2-9.4-12.2L646,73.1L653.5,81.4z"
			/>
		<path id="path3663" class="st14" d="M636.9,127.1l-22.1-37.4c1.3,5.2,9.1,19.7,11.5,24.4C629.7,119.8,636.9,127.1,636.9,127.1z"/>
		
			<linearGradient id="path3665_4_" gradientUnits="userSpaceOnUse" x1="490.4357" y1="669.1501" x2="516.4295" y2="653.8434" gradientTransform="matrix(-1 0 0 -1 1170.5701 780.0413)">
			<stop  offset="0" style="stop-color:#CCCCCC;stop-opacity:0"/>
			<stop  offset="0.373" style="stop-color:#FFFFFF;stop-opacity:0.7784"/>
			<stop  offset="0.6865" style="stop-color:#FFFFFF;stop-opacity:0.3882"/>
			<stop  offset="1" style="stop-color:#CCCCCC;stop-opacity:0"/>
		</linearGradient>
		<path id="path3665" class="st43" d="M732.8,144.2c-24.1,2.1-62.2,0.4-79.4,1.5c-11.1-43.8-39.8-60-39.8-60l41.8,4.1
			c0,0,17.2,28.7,35,40.6C694.9,142.1,711.3,141.9,732.8,144.2L732.8,144.2z"/>
		<path id="path3667" class="st16" d="M636.9,127.1l-11.7-10.6l-10.4-26.8c1.3,5.2,9.1,19.7,11.5,24.4
			C629.7,119.8,636.9,127.1,636.9,127.1z"/>
		
			<radialGradient id="path3669_4_" cx="-840.7716" cy="508.3526" r="13.8146" gradientTransform="matrix(-0.1846 9.230800e-02 -0.7499 -1.4999 875.2236 943.2952)" gradientUnits="userSpaceOnUse">
			<stop  offset="0" style="stop-color:#FFFFFF"/>
			<stop  offset="1" style="stop-color:#FFFFFF;stop-opacity:0"/>
		</radialGradient>
		<path id="path3669" class="st44" d="M665.1,134.2C654.5,100.3,636.7,80,636.7,80l6.6,12.8l-6.6-10.2c0,0,8.3,17.2,18.4,32.9
			C656.7,119.1,657.6,117.3,665.1,134.2L665.1,134.2z"/>
		
			<radialGradient id="path3671_4_" cx="446.893" cy="545.3002" r="34.2553" gradientTransform="matrix(-0.9745 0.2244 -0.2037 -0.8847 1205.2726 569.2217)" gradientUnits="userSpaceOnUse">
			<stop  offset="0" style="stop-color:#FFFFFF"/>
			<stop  offset="1" style="stop-color:#FFFFFF;stop-opacity:0"/>
		</radialGradient>
		<path id="path3671" class="st45" d="M687.7,193.9c-10-0.9-21.4-27-33.9-39.6c4,7,27.3,42.5,27.3,42.5l-61.8-2.7
			c0,0,56.7,5,63.4,4.6C689.7,204,680.7,196.8,687.7,193.9z"/>
		<path id="path3673" class="st14" d="M673.1,184.7l-1.7-2.2c0,0-45.2-2.5-50.2-3.6c-2.6-0.6-14.5-21.9-14.5-21.9s-1.4-0.2-2.5,0.2
			c2.9,2.1,8.4,22.6,15.7,24.3C630.8,184.3,673.1,184.7,673.1,184.7L673.1,184.7z"/>
		
			<radialGradient id="path3675_4_" cx="543.5544" cy="608.4972" r="7.6044" gradientTransform="matrix(-1 0 0 -1 1170.9501 777.9503)" gradientUnits="userSpaceOnUse">
			<stop  offset="0" style="stop-color:#FFFFFF;stop-opacity:0"/>
			<stop  offset="0.3741" style="stop-color:#FFFFFF;stop-opacity:0.2273"/>
			<stop  offset="0.8188" style="stop-color:#FFFFFF;stop-opacity:0.6534"/>
			<stop  offset="1" style="stop-color:#5E5E5E"/>
		</radialGradient>
		<path id="path3675" class="st46" d="M619.8,169.5c0,4.2,3.3,7.6,7.5,7.7c4.2,0,7.6-3.3,7.7-7.5c0-0.1,0-0.1,0-0.2
			c0-4.2-3.3-7.6-7.5-7.7s-7.6,3.3-7.7,7.5C619.8,169.3,619.8,169.4,619.8,169.5z"/>
		
			<radialGradient id="path3677_4_" cx="564.7581" cy="594.0839" r="2.5351" gradientTransform="matrix(-1.0926 0 0 -1.0724 1246.2792 802.5859)" gradientUnits="userSpaceOnUse">
			<stop  offset="0" style="stop-color:#FFFFFF"/>
			<stop  offset="1" style="stop-color:#FFFFFF;stop-opacity:0"/>
		</radialGradient>
		<path id="path3677" class="st47" d="M626.5,165.5c0,1.5,1.2,2.7,2.7,2.8c1.5,0,2.8-1.2,2.8-2.7c0,0,0,0,0-0.1
			c0-1.5-1.2-2.7-2.7-2.8C627.7,162.7,626.5,163.9,626.5,165.5C626.5,165.5,626.5,165.5,626.5,165.5z"/>
		
			<radialGradient id="path3679_4_" cx="559.6971" cy="600.7217" r="2.5351" gradientTransform="matrix(-1.0926 0 0 -1.0724 1235.3492 816.6559)" gradientUnits="userSpaceOnUse">
			<stop  offset="0" style="stop-color:#FFFFFF"/>
			<stop  offset="1" style="stop-color:#FFFFFF;stop-opacity:0"/>
		</radialGradient>
		<path id="path3679" class="st48" d="M621.1,172.5c0,1.5,1.2,2.7,2.7,2.8c1.5,0,2.8-1.2,2.8-2.7c0,0,0,0,0-0.1
			c0-1.5-1.2-2.7-2.7-2.8C622.3,169.7,621.1,170.9,621.1,172.5C621.1,172.4,621.1,172.4,621.1,172.5z"/>
		<path id="path3681" class="st22" d="M623.7,49.5c-0.3,1.2-1.3,1.3-1.4,3.9c-17.5-2.6-25.6,0.7-27.8-10.8
			C601.8,49.6,618.6,42.8,623.7,49.5z"/>
		<path id="path3683" class="st23" d="M617.9,33.2c-4.8-0.6-15.8-1.3-20.3,2.2c-4.3,3.7-3,8.5-2.2,11.1
			C593.9,31.6,606.7,34.5,617.9,33.2L617.9,33.2z"/>
		
			<radialGradient id="path3685_4_" cx="652.0608" cy="984.5142" r="12.8067" gradientTransform="matrix(-1.3578 -0.1998 7.479000e-02 -0.5083 1425.7328 668.545)" gradientUnits="userSpaceOnUse">
			<stop  offset="0" style="stop-color:#FFFFFF"/>
			<stop  offset="1" style="stop-color:#FFFFFF;stop-opacity:0"/>
		</radialGradient>
		<path id="path3685" class="st49" d="M622.5,43.1c0.1-6.2-5.8-8.1-13.8-8.9c-8.5-0.4-10.8,1.1-11.7,4c-0.5,1.4,0.3,2.9,1.3,3.2
			c5.2,0.7,2-2.7,8.4-2.7C611.9,37.3,620.5,45.9,622.5,43.1L622.5,43.1z"/>
		<path id="path3687" class="st22" d="M628.8,37.4c-0.9-0.8-2.6-2.5-8.6-3c6,3.7,1.9,10.3,1.9,10.3S625.3,40.2,628.8,37.4
			L628.8,37.4z"/>
		<path id="path3689" class="st25" d="M594.8,41.9c0,1.5,0.2,3.9,0.9,5.3c8.4,0.7,15.2,0.6,19.1,0c1.8-0.7,3.3-3.2-0.4-4.6
			C610.4,41.5,608,42.9,594.8,41.9z"/>
		
			<linearGradient id="path3695_4_" gradientUnits="userSpaceOnUse" x1="525.2999" y1="638.9802" x2="516.1297" y2="646.925" gradientTransform="matrix(-1 0 0 -1 1170.5701 780.0413)">
			<stop  offset="0" style="stop-color:#E7E7E7"/>
			<stop  offset="1" style="stop-color:#E7E7E7;stop-opacity:0"/>
		</linearGradient>
		<path id="path3695" class="st50" d="M638,128.5c2.3,9.4,33,9.2,33,9.2l-3.9-5.5C667.1,132.1,652.6,130,638,128.5L638,128.5z"/>
		
			<linearGradient id="path3441_4_" gradientUnits="userSpaceOnUse" x1="923.9837" y1="652.2898" x2="664.6391" y2="647.7195" gradientTransform="matrix(1 0 0 -1 -25.11 795.7703)">
			<stop  offset="0" style="stop-color:#FFFFFF"/>
			<stop  offset="1" style="stop-color:#FFFFFF;stop-opacity:0"/>
		</linearGradient>
		<path id="path3441" class="st51" d="M639.6,144.7c0,0,35.9,3.4,121.5,4.5v0c0.5,0,0.9,0,1.4,0c0.5,0,0.9,0,1.4,0c0,0,0,0,0,0
			c85.7-1.2,121.5-4.5,121.5-4.5l-122.9,1.7L639.6,144.7z"/>
		<path id="path3699" class="st27" d="M702.7,168.6c-22.5-1.3-26-1.3-26.9,0.6c-0.7,1.5,1.5,6.6,4.4,10.7
			C675.4,167.1,670.1,168.6,702.7,168.6z"/>
		
			<linearGradient id="path3709_4_" gradientUnits="userSpaceOnUse" x1="578.1184" y1="645.8406" x2="560.7316" y2="644.8672" gradientTransform="matrix(-1 0 0 -1 1170.5701 780.0413)">
			<stop  offset="0" style="stop-color:#FFFFFF;stop-opacity:0.5455"/>
			<stop  offset="1" style="stop-color:#FFFFFF;stop-opacity:2.272700e-02"/>
		</linearGradient>
		<path id="path3709" class="st52" d="M600.4,121.5c0,0,3,19.2,10.9,26.9c-4.5-8.8-5.3-25.2-5.3-25.2L600.4,121.5z"/>
		<path id="path3711" class="st30" d="M606.4,156.8c-10.3-1.7-15.1-4.4-15.1-4.4s4.3,4.3,13.3,5.1
			C607.1,157.5,605.9,158.5,606.4,156.8z"/>
		<path id="path3713" class="st30" d="M606.8,121.2c-10.3-1.7-16.6-5.3-16.6-5.3s7.6,5.4,16.6,6.2
			C609.2,122.2,606.2,122.9,606.8,121.2z"/>
		<path id="path3715" class="st31" d="M730.2,185.2l-47.6-1.6l0.6,2.1L730.2,185.2z"/>
		<path id="path3725" class="st33" d="M651.6,14c0,0-18.8,22.3-14.1,30.8c1.1-9.7,14.7-28.5,14.7-28.5L651.6,14L651.6,14z"/>
		<path id="path3727" class="st33" d="M657.2,7.9c0,0,2.7-4.6,5.9-7.8c4.7-3.4,26.2-4.4,26.2-4.4s-9.5,0.9-23.4,3.9
			C662.2,0.2,657.2,7.9,657.2,7.9z"/>
		<path id="path3731" class="st35" d="M762.3-15.6c0,0-76.1,0.3-89.4,7c18.3-4,89.4-2.9,89.4-2.9V-15.6z"/>
		<path id="path3735" class="st36" d="M673.1,186.8l-58.4-2.8l59.8,4.2L673.1,186.8L673.1,186.8z"/>
		<path id="path3737" class="st37" d="M592.8,158.6c7.9,2.7,3.5,16.5,25,37.2c-8.9-5.6-11.9-7.4-17.6-15.6
			C593.8,170.9,594.1,166.1,592.8,158.6z"/>
	</g>
</g>
<g>
	<path class="st53" d="M487,580.6c0,0,23.1-55.4,78.7-82c55.6-26.6,204.1-88.9,204.1-88.9l217.9-105l93.3,4.9
		c21.8,1.2,33,26.7,18.9,43.5l-68,85.6c-4.6,5.5-27.3,26.8-33.2,31l-186,134.5c0,0-59.7,40.8-180.9,30.7
		C510.7,624.8,476.7,622.1,487,580.6z"/>
	<g id="layer1_1_" transform="translate(-50.785 -123.98)">
		<g id="g2814">
			<path id="path7689" class="st54" d="M1063.1,503.3l10.2-15l8.7-24.5l11.2-28.7l13.8-19.7l12.1-11l9-2.2l5.5,3.5l3.1,8.3
				l-0.6,10.3l-1.7,7.2l2.7-5l6.2-36.8l-2.8-14.8l-4.4-6.1l-10.3-5.4l-31.4-7.5L1040,346l-52.6-8.5l-17,0l-16.8,4.8l-35.5-4.7
				L890,340l-17.8,7.8l-16.2-0.2l-43.2,7.7L775.7,367l-14.6,8.1l-40.3,27.6l-1.6-4.8l-8.9-5.4l-3.4,2.8l-5.7,5.8l0.7,8.4l4.5,0
				l0,3.2l-114.8,38.7l-38.4,23.4l-26.8,26.5l-28.6,45.2l-3.7,18.7l4,18l25.3,31.3l49.7,30.5l60.6,22.1l46.9,4.2l62.2-13.9
				l29.5-13.1l8.8-22.5l15.2-32.2l28-36.8l22.4-14.9l26.4,1.1l14.9,16.6l1.5,26.3l-10.9,9.7l0.7,9l153.6-85.9L1063.1,503.3
				L1063.1,503.3z"/>
			<path id="path7598" class="st55" d="M691.7,641l-1.7,12.5l-3.3,9.1l-6.6,4.6l-17.3,1l-14.6-1.5l-15.1-18.3l-1.1-2.3l1.4-0.7
				l17.5-0.1l10.4-0.8l13.2-1L691.7,641L691.7,641z"/>
			<path id="path7600" class="st56" d="M674.3,645l2,4.2l1.4,5.4l-0.2,4l-0.9,3.8l-2.9,1.8l-2.8-0.2l-3.4-1.9l-2.8-3.8l-3-4l-2-3.5
				l0-4.7L674.3,645L674.3,645z"/>
			<path id="path7604" class="st56" d="M676.6,662.2l1-3.9l-0.1-3.7l-1.4-5.9l-2-4.1l7.5-0.6l2.3,4.2l0.8,4.5l-0.4,6.3l-4.9,4.3
				l-5.7,0.8L676.6,662.2z"/>
			<path id="path7606" class="st56" d="M664.6,658.8l-2.5-4.4l-3.2,0.6l-2.9,0.6l-2.3,2.2l-0.2,3.6l2,3.4l1.9,1.6l2.8-0.7l2.8-2.3
				L664.6,658.8L664.6,658.8z"/>
			<path id="path7608" class="st56" d="M657.9,666l-2.4-1.7l-1.6-3.5l0.3-3.5l1.7-1l2.8,1l1.4,3.2l-0.8,4.1L657.9,666L657.9,666z"/>
			<path id="path7614" class="st57" d="M748.5,584.2l-14.7,11.4L703,611.9l-19.2,8.5l-14.2-7.6l-18-6.3l21-22.3l28.1-24.6l5.5-1
				l16.4,5.7l17.4,5.7l8.7,6l0.7,5.5L748.5,584.2L748.5,584.2z"/>
			<path id="path7616" class="st58" d="M651.9,605.5l20.9,8.5l12.3,6.7l-17.3,4.3l-2.9,0l-16.7-2.8l-7.4-2.8L651.9,605.5
				L651.9,605.5z"/>
			<path id="path7618" class="st59" d="M709.1,606l2.9,1.9l20.8-12l2.5-9l-1.3-6.1L703,569.1l-6.8-0.6l-11.4,26.7L709.1,606
				L709.1,606z"/>
			<path id="path7620" class="st60" d="M746.9,586.8l-13.8,9.1l2.5-10l-2.6-5.8l-30.9-10.7l-6.1-0.9l11.5-7.2l27.7,8.8l10.7,8.3
				L746.9,586.8L746.9,586.8z"/>
			<path id="path7624" class="st57" d="M566.9,509l-3.8,3.7l-16.5,13.1L521.8,549l-16.2-7.4l12.8-26.9l13-19.2l4.3-1.8l26.2,10.7
				L566.9,509L566.9,509z"/>
			<path id="path7626" class="st58" d="M505.6,541.7l-2.2,3.7l-2.2,5.7l6.2,7.5l3,2l11.3-11.2L505.6,541.7z"/>
			<path id="path7630" class="st59" d="M558.6,515.8l-11.7,10.1l-5.4,5.3l-11.8-4l-4.4-11.6l0.6-9.5l5-3.2l20,6.7L558.6,515.8
				L558.6,515.8z"/>
			<path id="path7632" class="st60" d="M558.6,516.3L551,510l-20.5-7.4l-5,3.2l10.6-12.1l25.3,11l5.3,4.5L558.6,516.3L558.6,516.3z"
				/>
			<path id="path7634" class="st60" d="M635.3,663.9l-10.7-3.6l-6.4-6.1l-10.8-14.9l14.3,2.4l6.4,9.9l12.4,13.5L635.3,663.9z"/>
			<path id="path7636" class="st61" d="M618.4,656l-15.5-6.7l6.3-5.7L618.4,656z"/>
			<path id="path7640" class="st61" d="M586,632.2l-7.7,6.6l-2.7-1.6l6.5-6.4L586,632.2L586,632.2z"/>
			<path id="path7644" class="st60" d="M569.7,641.4L569.7,641.4z"/>
			<path id="path7650" class="st61" d="M538.7,619.3l-7.1-5.4l7.2-4.2l6.5,4.9l14.5,6.8l-7.2,6L538.7,619.3z"/>
			<path id="path7652" class="st62" d="M530.7,614.7l7.8-4.9l-11.8-6.2l-0.3,1.4l-11.5-6.8L530.7,614.7L530.7,614.7z"/>
			<path id="path7658" class="st60" d="M777.5,472.2L777.5,472.2z"/>
			<path id="path7665" class="st63" d="M698.3,526.8l-19.5,13.6l-18.2,19.1l13.2,5.4l12.1-18.4l13.7-17.8L698.3,526.8z"/>
			<path id="path7667" class="st64" d="M728.8,535.5l-46.7,33.7l-49.9-20.5l0.3-3.5l21.7-14.9l44.9-15.7l14.4-5.6l34.7-7.6
				L738,515.9l-2.5,15.1L728.8,535.5z"/>
			<path id="path7669" class="st54" d="M735,505.3l-19.3,3l-16,6.2l-0.2,13.8l18.9-13.6L735,505.3L735,505.3z"/>
			<path id="path7673" class="st54" d="M644.7,502.4L631,519.2L609,535.1l-3.2,3.9l-46.7-18l22.4-14.3l65.3-37.7l-3.4,14.5
				L644.7,502.4L644.7,502.4z"/>
			<path id="path7675" class="st64" d="M644.9,472.5l-7.7,2.3l-19.8,18.5l-15,17.5l-13,21.9l16.4,6.6l8-7.8l3.7-18.3l12.7-24.2
				L644.9,472.5L644.9,472.5z"/>
			<path id="path7677" class="st65" d="M636.5,475.1l-45.8,26l-30.4,19.5l28.7,11.7l12.7-21.6l14.3-16.2L636.5,475.1L636.5,475.1z"
				/>
			<path id="path7679" class="st60" d="M823.6,480.9l-22.5-5.3l-51.8-11.2l-30.3-10.7l-18.1-10.2L648,468l-89,52l122.1,49.9
				l34.8-26.3l55.3-34.4l41.6-22.8L823.6,480.9L823.6,480.9z"/>
			<path id="path7683" class="st60" d="M620,544.3l-3.9-0.9l0.9-3.2l44.5-30.2l87.4-45.9l3.5,1.6l-35.9,17.9l-60.8,34.2l-33.2,23
				L620,544.3L620,544.3z"/>
			<path id="path7685" class="st60" d="M681.8,569.9L681.8,569.9z"/>
			<path id="path7687" class="st60" d="M681.5,569.9l-122.8-49.6l-36.4,31.7l-24.2,29.7l2.9,6.1l23.2,14.9l25.2,14.3l23.5,9.8
				l34.5,11.6l14.5,2.1l-0.7-3.8l24.2-32.6L681.5,569.9L681.5,569.9z"/>
			<path id="path7691" class="st60" d="M761.1,375.1C761.3,374.9,761.2,375,761.1,375.1z"/>
			<path id="path7693" class="st60" d="M1031.6,505.1l-132.2,75.2l6.5-38l-0.6-38.6l11.5-5.9l2.4-19.9l8.1-77.5l-1.6-4.2l-46-13.8
				l0-1.9l40.7-12.8l70.1,7.5l16.4,7.3l16.6,25.3l11.2,34l-10.2,5.2l-3.3,29.9l3.6,3.5l8.7,3.2L1031.6,505.1L1031.6,505.1z"/>
			<path id="path7695" class="st66" d="M1076.2,479.6l-28.1,9.3l-79.8,45.2l0.3-5.6l76.6-43.9l33.2-12L1076.2,479.6z"/>
			<path id="path7697" class="st60" d="M1075.8,480.6C1075.9,480.6,1075.8,480.6,1075.8,480.6z"/>
			<path id="path7699" class="st66" d="M1075.8,481.2l-1.9,5.6l-25,7.6l-83.2,48.3l2.5-7.1l80-44.9L1075.8,481.2L1075.8,481.2z"/>
			<path id="path7701" class="st66" d="M920.8,556.5l-0.9,5.3l-29.4,15.9l0.1-6.4l32.6-17.9L920.8,556.5z"/>
			<path id="path7703" class="st66" d="M919.6,568.7l-30.9,16.1l0.9-5.5l29.8-15.9L919.6,568.7z"/>
			<path id="path7705" class="st66" d="M936.8,547.4l-2.2,0.5l-1.8,11.9l1.8,0l0.9-5.6l9.1-4.6l1.1-4.3l4.5-2.9l-2,9l2.6-1.3l2-8.7
				l12.2-7.1l0,3.5l-2.5,3.1l-3.4,1.3l3.2-2.3l-0.3-1l-5.8,4.5l0.2,2.9l8-4.1l2.2-4.5l1.1-6.6l-1-0.6l-22.7,12.7l-0.8,4.3l-7.2,4.4
				L936.8,547.4L936.8,547.4z"/>
			<path id="path7707" class="st60" d="M932,550C931.9,550,931.9,550,932,550z"/>
			<path id="path7709" class="st66" d="M931.8,550l0.8,1.6l-0.6,6l-1.3,2.9l-6.6,4.2l-3.2,1.1l-0.3-1.6l0.8-6.3l1.9-3.2L931.8,550
				L931.8,550z"/>
			<path id="path7711" class="st67" d="M930.9,552.9l-7.5,3.9l0,6.1l6.2-3.6L930.9,552.9L930.9,552.9z"/>
			<path id="path7713" class="st60" d="M944.8,472.6l-2.7,0.5l-3.7,0.2l-0.2-3.9l-3.4-0.8l-3.4-3.3l-0.4-5l2.7-3.2l5.3-3.2l12.9,1
				l12.2,2.6l3.6,3.4l0.4,4.3l-2.7,2.4l-20.9,0.9L944.8,472.6L944.8,472.6z"/>
			<path id="path7715" class="st60" d="M1021,477.3l3.2,3.2l9,3.5l18.9-10.2l8.9-8.1l3.6-13.5l1-16.7l-3.6-3.4l-3.4-0.6l-34.1,15.5
				L1021,477.3"/>
			<path id="path7717" class="st63" d="M1024.3,477.7l-0.6-0.5l0.8-28.3l3-2.9l8.4-0.2l3.7,5.6l-1.6,23.8l-3.2,6l-4.3-0.3
				L1024.3,477.7L1024.3,477.7z"/>
			<path id="path7719" class="st60" d="M854.3,347.7l-41.7,7.7l-22.3,6.9l28.3,6.4l7.9,0.6l16.5-6.1l22.3-5.3l0.5-1.5l-4.9-5.1
				L854.3,347.7L854.3,347.7z"/>
			<g>
				<path id="path7638" class="st68" d="M606,638.4l-19.8-6.2l-11.1,10.1l-0.7,1.6l23.2,10.7l0.9-2.3l9.9-8.7L606,638.4z"/>
				<path id="path7646" class="st68" d="M570.5,640.4l11.3-9.7l-8.5-3.3l-13.4-6l-8,7l-0.9,2.6l19.5,10.5L570.5,640.4z"/>
				<path id="path7654" class="st68" d="M641.4,552.7l-23.5-8.3l-15.7,13.8l-30.8,29l-22,25.5l0,3.9l23.7,11.1l0.6-7.1l11.3-12.8
					l25-27.2L641.4,552.7L641.4,552.7z"/>
				<path id="path7656" class="st68" d="M613.4,542.9l-20.3-9.2l-28.9,24.1l-27.9,29.8l-10.7,12.3l0,2.4l19.7,12.2l0-3.9l6.5-8.9
					l13.7-16.2L613.4,542.9L613.4,542.9z"/>
				<path id="path7660" class="st68" d="M777.9,470.9l-12.6-2.2l-11.9-3.1l-37.5,18.6l-60.5,33.5l-32,22.7l-2.9,4.2l11.6,4.4
					l1.9-4.8l20.1-14.6l44.6-15.4L777.9,470.9L777.9,470.9z"/>
				<path id="path7663" class="st68" d="M748.9,464.4l-10.6-3.5l-9-3.8l-78.8,39.8L631,519.8l-21.4,15.3l-3.8,4.5l10.6,3.1l1.6-3.2
					l42.5-28.9l49-26.7L748.9,464.4L748.9,464.4z"/>
				<path id="path7671" class="st68" d="M698.3,527.1l-19.8,13l-17.9,19.1l-28.3-10.4l0-3.2l21.4-14.6l44.9-15.7L698.3,527.1
					L698.3,527.1z"/>
				<path id="path7721" class="st68" d="M806.2,381.9l4,2.1l15.6,3.3l6.5-5.7l13.6-6.5l30.5-10l46.8-8.8l-19.8-4l-33.2,5.7
					l-34.3,9.2l-17.8,7L806.2,381.9L806.2,381.9z"/>
				<path id="path7723" class="st68" d="M831.3,387.8l9.4-6.8l17.3-7.7l35.3-10.4l37.2-5.4l19.3,4.4l-18.6,2.7l-44.4,11.6L863,386
					l-8.5,7.5L831.3,387.8L831.3,387.8z"/>
				<path id="path7725" class="st68" d="M1073.3,352.9l-20.3-4.5l-7.7,6.8l-1.8,0.8l-52.4,3.4l13.8,4.2l54.9-3.1l3.2-0.7
					L1073.3,352.9L1073.3,352.9z"/>
				<path id="path7727" class="st68" d="M1048.8,347.9l-19-3.4l-8.1,6.3l-2.4,1.1l-49.8,3.6l15.1,3.1l54.8-3.1l2.2-1L1048.8,347.9
					L1048.8,347.9z"/>
			</g>
			<path id="path7729" class="st69" d="M1000.5,371l41.6,2.3l-45.7-9.8l-49.1-9l-33.8-4.4l-27.2-1.1L1000.5,371L1000.5,371z"/>
			<path id="path7731" class="st60" d="M1025.5,384.4l1.6-1.5l26.4,0.8l9.4,6.2l1.3,3.5l-5.1,5.7l-7.2,2.1l-5.6-1.2l-8.9-8.6
				L1025.5,384.4L1025.5,384.4z"/>
			<path id="path7733" class="st60" d="M1031.6,387.2l5.5,4.1l9.1,8.5l5.5,1.2l7.2-2l5.3-5.7l-1.5-3.5l-8.6-5.9l-2.3,0.3l-19-0.2
				l-1.3,1.3L1031.6,387.2L1031.6,387.2z"/>
			<path id="path7735" class="st63" d="M1032.5,386.4l-0.5,1.1l8.2,5.6l4.3-4.8l0.1-3.7l-11.4-0.2L1032.5,386.4"/>
			<path id="path7737" class="st69" d="M927.4,402.1l-38.3-2.6l-43.7-7.4l-45.4-10l-23.2-9.5l0-5.8l-14.4,7.5l-55,38l-17.3,11
				l-2.5,9.3l13.3,10.8l38.4,18l68.5,16.5l48.5,4.8l37-0.3l26-6L927.4,402.1"/>
			<path id="path7741" class="st69" d="M927,474.1l10.6-3.6l-6.5-4.1l0.6-6.8l8.6-6.5L967,459l54.1-22.9l2.2-7.1l-6.9-20.2
				l-15.6-25.6l-67,15.9L927,474.1L927,474.1z"/>
			<path id="path7743" class="st63" d="M879.3,594.9L878,591l10.9-7.8l-0.5-28.3l-15.2-16.3l-26.7-1.7l-6.4,5.5l15.1,5l14.6,13.1
				l8.5,15.7L879.3,594.9L879.3,594.9z"/>
			<path id="path7751" class="st69" d="M1130.6,420l-4.4-6l-16.5,0.1l-16.6,20.8l-4.4,10.8l-4.1,29.9l-0.6,23.9l8.1,15.4l8.2,1.5
				l13.4-11.5l10-15.5l8-23.3l2.8-18.7l-0.9-15.9l-3-11.9"/>
			<path id="path7753" class="st69" d="M877,615l-6.8,17.2l-22,26.5l-18.1,9.1l-21.5,3.4L784.3,655l-7.8-15l4.2-17.5l14.9-32.1
				l10-13.4l15-14.9l27.1-9l22.5,7.2l8,16.2l0.3,14.1l0.1,12.9L877,615L877,615z"/>
			<path id="path7755" class="st69" d="M830.2,668.8l-21.7,2.4l-24.4-16.1l-8.5-14.9l-3.2,5l-8.3,3.8l11.6,10.2l15.7,11l15.9,3.6
				L830.2,668.8L830.2,668.8z"/>
			<path id="path7757" class="st69" d="M1099.3,516.4l-7.6-1.6l-7.8-14.9l0.6-22.5l3.2-28.9l-14.5,40.4l-8.7,13.7l4.6,10.4l13.7,3.4
				L1099.3,516.4L1099.3,516.4z"/>
			<path id="path7759" class="st60" d="M1126.1,414.2C1126,414.2,1126,414.2,1126.1,414.2z"/>
			<path id="path7761" class="st63" d="M1126.2,414.2l-18.5,0.3l8.9-7.9L1126.2,414.2L1126.2,414.2z"/>
			<path id="path9551" class="st69" d="M868.3,559.5l-20.8-6.4l-27.2,9.2L808.8,573l16.1-21l14.6-9.4l15.6,4.9L868.3,559.5
				L868.3,559.5z"/>
			<path id="path9555" class="st68" d="M871,584.5l1.9,14.5l-7.1,29.1l-29.8,30.2l-31.3,5.7l-17.4-16.7l-0.2-22.7l13.4-31.9l18-20.1
				l30.8-9.8l16.4,6.7L871,584.5L871,584.5z"/>
			<path id="path9557" class="st68" d="M1102.5,429.3l9-9.6l13.2,2.2l4.2,11.8l1.9,12.3l-3.9,21.8l-15.2,30.1l-14.5,11l-10.5-7.7
				l2.4-40.5L1102.5,429.3L1102.5,429.3z"/>
			<path id="path9561" class="st1" d="M1108,463.5c-1.1-0.8-1.6-2.5-1-4.1c0.7-1.9,2.5-3,4-2.4c1.5,0.6,2.2,2.5,1.6,4.4
				c-0.7,1.9-2.5,3-4,2.4"/>
			<path id="path9563" class="st60" d="M1109.1,458.1C1108.8,458.1,1108.8,458.1,1109.1,458.1z"/>
			<path id="path9565" class="st60" d="M1099.4,436.4l9,22"/>
			<path id="path9567" class="st60" d="M1112.9,419.9l-2.7,38.6L1105,427"/>
			<path id="path9569" class="st60" d="M1128.7,433l-18,26.3l10.6-38"/>
			<path id="path9571" class="st60" d="M1129.5,454.6l-18.6,5.4c0.1-0.3,2.3-1.8,3.2-2.3l16.5-13.7"/>
			<path id="path9573" class="st60" d="M1122.4,477.1l-11.9-16l16.6,5.8"/>
			<path id="path9575" class="st60" d="M1115.7,490.1l-5.6-27.7"/>
			<path id="path9577" class="st60" d="M1109.6,499.7l-1.4-37"/>
			<path id="path9579" class="st60" d="M1089.4,502.6l19.9-41l-12.2,46.7"/>
			<path id="path9581" class="st60" d="M1086.8,491.9l22.1-28.6"/>
			<path id="path9583" class="st60" d="M1108.4,462L1108.4,462z"/>
			<path id="path9585" class="st60" d="M1088.9,462.1l19.8-0.1l-20.6,15.6"/>
			<path id="path9587" class="st60" d="M1109.3,461.3C1109,461.3,1109,461.3,1109.3,461.3z"/>
			<path id="path9589" class="st60" d="M1093.2,453l16,8.3"/>
			<path id="path9591" class="st60" d="M1095.8,446.2l14,13.5"/>
			<path id="path9593" class="st1" d="M838.1,614.9c0.9-3-0.3-5.4-2.7-5.7c-2.9-0.4-6.6,2.1-8.3,5.6c-1.7,3.5-0.7,6.7,2.2,7.1
				s6.6-2.1,8.3-5.6"/>
			<path id="path9595" class="st60" d="M830.6,613.7C830.4,613.7,830.4,613.7,830.6,613.7z"/>
			<path id="path9597" class="st60" d="M806.2,587.5l24.4,26"/>
			<path id="path9599" class="st60" d="M814.6,577.3l17.5,38.3"/>
			<path id="path9601" class="st60" d="M825.6,570.5l7.5,44.1"/>
			<path id="path9603" class="st60" d="M834.3,567.7l-2.1,47.2"/>
			<path id="path9605" class="st60" d="M846.9,563.6l-13,49.9"/>
			<path id="path9607" class="st60" d="M865,569l-32,45.8"/>
			<path id="path9609" class="st60" d="M871.1,587.7L834.9,613"/>
			<path id="path9611" class="st60" d="M871.5,604.4L834,614.8"/>
			<path id="path9613" class="st60" d="M833.7,616.2C833.8,616.2,833.7,616.2,833.7,616.2z"/>
			<path id="path9615" class="st60" d="M868.7,618.6l-35.2-2.2"/>
			<path id="path9617" class="st60" d="M861.1,632.9l-28.4-16.5"/>
			<path id="path9619" class="st60" d="M849.6,644.6l-17.1-26.9"/>
			<path id="path9621" class="st60" d="M835.9,658l-5.1-39.2"/>
			<path id="path9623" class="st60" d="M830,619L830,619z"/>
			<path id="path9625" class="st60" d="M820.7,661.6l9-42.5"/>
			<path id="path9627" class="st60" d="M801,660.2l27.5-41"/>
			<path id="path9629" class="st60" d="M787,647.1l42.7-30.2"/>
			<path id="path9631" class="st60" d="M786.7,631.5L829,618"/>
			<path id="path9633" class="st60" d="M791.3,616.1l38.9,1.2"/>
			<path id="path9635" class="st60" d="M796.6,602.1l33.7,13.4"/>
			<path id="path3981" class="st63" d="M1133.3,430.8l3.2-4.5l0.6-12.2l-3.3-9l-7.1-3.2l-10.2,4.6l8.4,7.6l6.5,6.4L1133.3,430.8
				L1133.3,430.8z"/>
		</g>
	</g>
</g>
<g id="layer1_2_" transform="translate(629.59 31.523)">
	<path id="path2519" class="st70" d="M-413.9,529c-31.9-1.9-303.4-37.7-289.5-75.4c0.1-1.4,9.5-7.1,12.3-9.4c0-0.2-0.3-0.7-0.6-1.2
		c-1.8-2.7-2.2-11-1.4-30.4c0.9-22.1,1.1-24.8,2.2-28.4c1.1-3.5,3.6-7.3,5.7-8.8c1.1-0.8,1.2-0.9,1-3.3
		c-2.5-16.1,27.4-9.5,43.8-10.5c14.9-12.1,19.6-28.6,40.2-27.2c12.7-0.9,43.8-0.2,63.9,0.2c3.9,0.8,15.1,3.1,17.2,3.1
		c15.5,1.7,42.2,30.1,50.5,35.3c7.4,6.4,6.3,5.8,11,5.8c31.1,2,100.1,6.8,115.9,39.8c1,5.8,7.1,11.1,7.1,17.9
		c0.4,3.1,0.5,3.4,1.6,3.4c4.3-0.9,0.9,18.4,0.1,22.6c-0.8,2.3-0.8,2.5-0.2,3.8c2.9,4.3,7.3,8.3,4.8,14.6c-0.9,4.4-4.5,4.8-5.9,9.9
		C-345.5,522.9-382.9,531.1-413.9,529z M-345.1,449.2c0.2-2.7,0.2-5,0.2-5.1c-0.2-0.2-15.5,3.3-15.8,3.6c-0.3,0.3-1.3,9.9-1,10.3
		c0.8,0.2,13.4-3.1,16.3-3.9L-345.1,449.2z M-670.4,372.1c3.9-0.3,6.1-0.5,9-0.6c0.1-1.3,0.2-4,0.2-5.4c-6.3-0.5-14.9,2.3-15.8,5.9
		C-677.9,373.8-673,372-670.4,372.1z M-650.9,369.5c4.4-2.2,9.5-4.9,0.6-3.9c-7,0.2-6,1.1-6.1,5.1
		C-654.7,370.3-652.6,370-650.9,369.5z"/>
	<path id="path2517" class="st71" d="M-383.4,512c0,0-25.2-5-25.2-5c-10.3-0.1-25.8-0.2-34.2-1.1c-7.1-0.7-19.9-1.7-21.8-1.7
		c-0.3,0-2.5,1.7-5,3.8c-14.2,12.8-32.4,9.2-46.5,0.7c-5.8-4.2-12-11.7-14.3-17.1c-0.6-3.4-5.3-3.4-7.4-4.9
		c-28.9-10-79-20.3-111.6-26.1c-3.8,8.2-24.2,7.8-29.8,1.8c-2.9-2.2-4.6-5.3-6.1-8.8c-3.8-0.9-15.3-2.3-13-3.2
		c0.3-0.5,7.4-5.2,7.7-5.6c0.1-0.2-0.1-0.8-0.6-1.4c-2.1-2.6-2.5-10.8-1.7-33.6c0.6-17.4,1-22,2.1-25.4c1.4-4.1,4-7.9,7.1-9.7
		c-0.4-3.4-0.6-7.5,1.6-9.4c-0.6-5,31.5-3.5,42.3-3.5c6.1-5.5,19.3-22.4,25.5-24.5c18.6-5.7,29.5-2.5,58.8-2.9
		c0,0,17.6,0.3,17.6,0.3c4.1,0.8,17.1,3.5,19.1,3.5c16.6,2.5,43.7,31.5,56.4,40.7c32.9,2,104.7,6.6,120.5,40
		c1.2,6.2,6.8,10.6,7.2,18.2c0.6,6.9,4.1-0.2,3.7,8.2c-0.2,4.7-0.9,13.2-2,17.6c-0.7,1.9-0.7,2.3-0.2,3.5c1.7,3.9,6.7,6.4,5.6,12.1
		c-0.2,5.2-5.2,7.5-6.9,12.4c-4.5,11.5-12.1,21.3-22.6,26.1C-357.7,516.9-369.5,514.8-383.4,512z M-353,456.4
		c6.1-1.6,7.6-2.1,7.8-2.7c0.2-0.4,0.3-2.8,0.4-5.3c0.1-3.8,0-4.6-0.5-4.5c-1.6,0.2-15.4,3.4-15.7,3.7
		C-362.5,460.1-364.6,459.4-353,456.4L-353,456.4z M-394.1,432.5c0.6-0.7,0.9-4.2-0.3-4.5c-0.9-0.5-1-0.4-1.4,2.2
		C-396.2,432.7-397.1,434.9-394.1,432.5L-394.1,432.5z M-343.9,418c-0.6-2.8-2.9,0.1-1,2.1c0,0,1.1,1.8,1.1,1.8
		C-343.7,420.6-343.6,419.2-343.9,418z M-675,372.9c0.9-0.4,12.7-1,13.6-1.2c0.2-0.4,0.4-4.6,0.4-5.7l-3.2,0.1
		C-671.8,364.9-682.8,374.6-675,372.9z M-652.7,370.2c3.3-0.4,7.2-3.4,8.3-5.1c1-0.4-7.9,0.2-11.9,0.6
		C-656.3,369.2-658.5,372.1-652.7,370.2L-652.7,370.2z"/>
	<path id="path2515" class="st72" d="M-497.6,515.4c-14.8-1.3-28.2-13.1-33.6-26.6c-12.8-5.2-14.8-5.2-39.7-12.1
		c-36.8-10-43.3-12.8-78.8-17.1c-3.1,8.8-22.7,8.6-29,2.5c-5.7-3.5-5-11.8-9.3-15.7c-4-3.3-5-6.4-5-17.3c1.9-18.6-4.1-45,9.6-54.5
		c-0.4-4.7-0.6-8.9,3.5-11.2c-2.2-1.8,32.5-1.8,40-1.7c7.2-6.4,21.8-24.7,26.3-24.7c6.8-3.5,31.6-3.4,43.3-3.1
		c10.7,0.4,21,0.5,30.7,0.4c4.3,0.9,17.4,3.6,19.6,3.6c3.8,0.3,11,2.7,14.7,5.9c8.9,7,34.5,27.7,42.8,35.1
		c32,1.7,104.8,6.7,120.2,39.7c0.2,2.5,0.5,3,2.5,5.9c3.3,4.6,4.4,10.1,5.1,14.5c1,2.6,3.5,0.4,3.5,4.8c-0.7,4.6-0.7,13.6-2,18.1
		c-1.7,4.7-0.4,4.6,4.1,10.4c11,25.9-61.4,30.8-86.2,33.9c-9.4,1.1-36.2-1.9-49.7-2.5C-474.5,512.9-482.6,517.8-497.6,515.4z
		 M-354.9,457.1c4.9-1.3,7-1.8,9.9-2.6c0.1-2.3,1.4-9.5,0-11c-0.9,0-14.6,3.1-15.6,3.6c-0.7,0.3-0.9,0.9-1.3,5.3
		c-0.6,6.2-0.6,6.3,0.1,6.3C-361.4,458.8-358.3,458-354.9,457.1z M-403.9,435.4c5.5-1.4,12.5-0.2,10.6-6.9
		c-1.6-2.4-15.9-9.3-21.3-8.9c-0.4,0.9-2.7,13.6-3.3,16.7C-413.1,436.4-408.9,436.4-403.9,435.4z M-552.8,429.8
		c0.5-1.3,0.3-4.2-0.4-4.4C-555.4,424.1-554.2,433-552.8,429.8L-552.8,429.8z M-343.4,419.3c0.2-2.8-3.1-6.9-3.4-2.8
		C-346.5,418.5-342.3,425.8-343.4,419.3z M-610.5,384.6c-1.6-1.7-7.2-3.9-6.1-7.3c-0.1-8.4,12.5-11.6,18.9-8.2
		c2.3,0.8,7.3,8.6,9.2,11c0.5-0.2,0.1-7.9,0.1-9.5c-3.5-5.2-10.5-15.6-14-20.7c-8.9-1-18.1,1.4-19.9,11.8
		c-1.5,6.2-4.1,19.7-3.8,19.9C-625.7,381.9-616.4,384.5-610.5,384.6z M-566.5,384.4c-0.3-1.5-8.6-20.4-10.2-21.5
		c-1.1,0.2-5.4,1.1-5.7,1.3c-0.7,1.1-1,13.9-0.9,18.2l1.3,1c1.4,1.1,2.5,1.2,11,1.4C-567.9,384.8-566.5,384.7-566.5,384.4
		L-566.5,384.4z M-551.4,379.4c6.5-3.4,29.7-4.8,32.3-2.2c1.3,0.7,2.1,0.7,11.2,0.4c19.5,0,9.6-7,34.7-4.1
		c5.6,1.1-34.4-28.5-35.9-29.9c-3.7-2.1-7.5-3.2-11-3.2c-8.8,0.2-26.5,0.7-31.6,1.3c-2.3,4.7-11,22.6-11.3,24.4
		c-0.3,0.2,4.1,10.5,6.9,16.3C-554.7,381.3-553.3,380.3-551.4,379.4L-551.4,379.4z M-673.4,372.9c2-0.4,10.6-0.6,12.2-1.2
		c0.3-0.5,0.5-4.7,0.5-5.9c-5-0.1-11.1,0-14.5,3c-2.4,1.7-3.7,5.2-1.8,4.7C-676.5,373.4-674.9,373.1-673.4,372.9z M-651,370
		c12.5-6.3,5.8-5.8-5.6-4.5C-656.6,370.3-658.5,372.7-651,370z"/>
	<path id="path2513" class="st73" d="M-497.6,515.4c-14.8-1.3-28.2-13.1-33.6-26.6c-12.8-5.2-14.8-5.2-39.7-12.1
		c-36.8-10-43.3-12.8-78.8-17.1c-3.1,8.8-22.7,8.6-29,2.5c-5.7-3.5-5-11.8-9.3-15.7c-4-3.3-5-6.4-5-17.3c1.9-18.6-4.1-45,9.6-54.5
		c-0.4-4.7-0.6-8.9,3.5-11.2c-2.2-1.8,32.5-1.8,40-1.7c7.2-6.4,21.8-24.7,26.3-24.7c6.8-3.5,31.6-3.4,43.3-3.1
		c10.7,0.4,21,0.5,30.7,0.4c4.3,0.9,17.4,3.6,19.6,3.6c3.8,0.3,11,2.7,14.7,5.9c8.9,7,34.5,27.7,42.8,35.1
		c32,1.7,104.8,6.7,120.2,39.7c0.2,2.5,0.5,3,2.5,5.9c3.3,4.6,4.4,10.1,5.1,14.5c1,2.6,3.5,0.4,3.5,4.8c-0.7,4.6-0.7,13.6-2,18.1
		c-1.7,4.7-0.4,4.6,4.1,10.4c11,25.9-61.4,30.8-86.2,33.9c-9.4,1.1-36.2-1.9-49.7-2.5C-474.5,512.9-482.6,517.8-497.6,515.4z
		 M-354.9,457.1c4.9-1.3,7-1.8,9.9-2.6c0.1-2.3,1.4-9.5,0-11c-0.9,0-14.6,3.1-15.6,3.6c-0.7,0.3-0.9,0.9-1.3,5.3
		c-0.6,6.2-0.6,6.3,0.1,6.3C-361.4,458.8-358.3,458-354.9,457.1z M-403.9,435.4c5.5-1.4,12.5-0.2,10.6-6.9
		c-1.6-2.4-15.9-9.3-21.3-8.9c-0.4,0.9-2.7,13.6-3.3,16.7C-413.1,436.4-408.9,436.4-403.9,435.4z M-552.8,429.8
		c0.5-1.3,0.3-4.2-0.4-4.4C-555.4,424.1-554.2,433-552.8,429.8L-552.8,429.8z M-343.4,419.3c0.2-2.8-3.1-6.9-3.4-2.8
		C-346.5,418.5-342.3,425.8-343.4,419.3z M-610.5,384.6c-1.6-1.7-7.2-3.9-6.1-7.3c-0.1-8.4,12.5-11.6,18.9-8.2
		c1.6,0.8,5.4,5.1,7.2,8.2c0.9,1.5,1.8,2.8,1.9,2.8c0.2-0.7,1.8-27.2,1.6-31.2c-10.9,0.9-27.3-1.2-31.7,5.6
		c-4.7,4-6.9,25.6-7.3,27.1C-625.7,381.9-616.4,384.5-610.5,384.6z M-566.5,384.4c-2.3-5.1-11.9-29.4-14.8-32.3
		c-1.7-1.5-1.8,24.4-2.2,30.1l1.3,1.1c1.5,1.2,2.2,1.3,11.1,1.5C-567.9,384.8-566.5,384.7-566.5,384.4L-566.5,384.4z M-551.4,379.4
		c6.5-3.4,29.7-4.8,32.3-2.2c1.3,0.7,2.1,0.7,11.2,0.4c10.3-0.4,10.7-0.5,13.5-2.5c20.7-8.3,37.8,11.1-2.3-22
		c-12.8-10-13.2-10.9-21.4-12.7c-10.2,0.4-44.5,0-52.6,3.9c-0.9,1.3-2.4,3.9-1.1,5.6c1.4,2.7,14.8,30.6,15.2,31.6l0.4,0.9
		C-554.8,381.4-553.3,380.3-551.4,379.4L-551.4,379.4z M-673.4,372.9c2-0.4,10.6-0.6,12.2-1.2c0.3-0.5,0.5-4.7,0.5-5.9
		c-5-0.1-11.1,0-14.5,3c-2.4,1.7-3.7,5.2-1.8,4.7C-676.5,373.4-674.9,373.1-673.4,372.9z M-651,370c12.5-6.3,5.8-5.8-5.6-4.5
		C-656.6,370.3-658.5,372.7-651,370z"/>
	<path id="path2511" class="st74" d="M-497.6,515.4c-14.8-1.3-28.3-13.2-33.6-26.6c-12.8-5.2-14.8-5.2-39.7-12.1
		c-36.8-10-43.3-12.8-78.8-17.1c-2.7,8.5-22.6,8.7-29,2.5c-5.7-3.5-5-11.8-9.3-15.7c-4-3.3-5-6.4-5-17.3c1.9-18.6-4.1-45,9.6-54.5
		c-0.4-4.7-0.6-8.9,3.5-11.2c-2.2-1.8,32.5-1.8,40-1.7c7.2-6.4,21.8-24.7,26.3-24.7c6.8-3.5,31.6-3.4,43.3-3.1
		c10.7,0.4,21,0.5,30.7,0.4c4.3,0.9,17.4,3.6,19.6,3.6c3.8,0.3,11,2.7,14.7,5.9c8.9,7,34.5,27.7,42.8,35.1
		c32,1.7,104.8,6.7,120.2,39.7c0.2,2.5,0.5,3,2.5,5.9c3.3,4.6,4.4,10.1,5.1,14.5c1,2.6,3.5,0.4,3.5,4.8c-0.7,4.6-0.7,13.6-2,18.1
		c-1.7,4.7-0.4,4.6,4.1,10.4c11,25.9-61.4,30.8-86.2,33.9c-9.4,1.1-36.2-1.9-49.7-2.5C-474.5,512.9-482.6,517.8-497.6,515.4z
		 M-354.9,457.1c4.9-1.3,7-1.8,9.9-2.6c0.1-2.3,1.4-9.5,0-11c-0.9,0-14.6,3.1-15.6,3.6c-0.7,0.3-0.9,0.9-1.3,5.3
		c-0.6,6.2-0.6,6.3,0.1,6.3C-361.4,458.8-358.3,458-354.9,457.1z M-405.6,436c3.4-0.8,8.9-1.4,11.5-2.6c4.5-6.4-3.6-7.9-11.4-12
		c-7.9-3.4-29.4-6.5-37.9-2.3c-4.1,1.3-5,8.8-4.4,11.2c0.5,0.9,4.5,3.8,5.9,4.9C-430.4,436.7-417.1,438-405.6,436L-405.6,436z
		 M-552.8,429.8c0.5-1.3,0.3-4.2-0.4-4.4C-555.4,424.1-554.2,433-552.8,429.8L-552.8,429.8z M-343.4,419.3c0.2-3.1-3.3-6.8-4.8-7.2
		C-349.3,412.7-342.2,427.9-343.4,419.3z M-610.5,384.6c-1.6-1.7-7.2-3.9-6.1-7.3c-0.1-8.4,12.5-11.6,18.9-8.2
		c1.6,0.8,5.4,5.1,7.2,8.2c0.9,1.5,1.8,2.8,1.9,2.8c0.2-0.7,1.8-27.2,1.6-31.2c-10.9,0.9-27.3-1.2-31.7,5.6
		c-4.7,4-6.9,25.6-7.3,27.1C-625.7,381.9-616.4,384.5-610.5,384.6z M-566.5,384.4c-2.3-5.1-11.9-29.4-14.8-32.3
		c-1.7-1.5-1.8,24.4-2.2,30.1l1.3,1.1c1.5,1.2,2.2,1.3,11.1,1.5C-567.9,384.8-566.5,384.7-566.5,384.4L-566.5,384.4z M-551.4,379.4
		c6.5-3.4,29.7-4.8,32.3-2.2c1.3,0.7,2.1,0.7,11.2,0.4c10.3-0.4,10.7-0.5,13.5-2.5c20.7-8.3,37.8,11.1-2.3-22
		c-12.8-10-13.2-10.9-21.4-12.7c-10.2,0.4-44.5,0-52.6,3.9c-0.9,1.3-2.4,3.9-1.1,5.6c1.4,2.7,14.8,30.6,15.2,31.6l0.4,0.9
		C-554.8,381.4-553.3,380.3-551.4,379.4L-551.4,379.4z M-673.4,372.9c2-0.4,10.6-0.6,12.2-1.2c0.3-0.5,0.5-4.7,0.5-5.9
		c-5-0.1-11.1,0-14.5,3c-2.4,1.7-3.7,5.2-1.8,4.7C-676.5,373.4-674.9,373.1-673.4,372.9z M-651,370c12.5-6.3,5.8-5.8-5.6-4.5
		C-656.6,370.3-658.5,372.7-651,370z"/>
	<path id="path2509" d="M-493.9,515.5c-16.2-0.4-30.3-11-36.1-24.9c-0.6-1.7-0.9-1.9-2.7-2.5c-6.7-3-73.9-23.9-108.6-27.7
		c-8.3-1.1-8.6-1.1-9.3,0.3c-4.4,7.7-22,6.5-27.3,1.7c-5.7-2.9-5.7-12.6-10.7-17.1c-2.5-2.6-2.8-3-3.3-5.3c-1.9-8.8,0.2-40.2,0.6-50
		c0.9-7.4,4.2-13.4,9.5-15.5c-1.5-1.2-1.9-0.8-1.6-4c-1.4-13.4,33.5-6.5,43.1-8.2c5.1-2.5,21.9-24.6,26.1-24.4
		c18.4-6.4,43.7-2.9,64.5-3c11,0.2,11,0.2,19.9,2c10.6,2.4,12.1,0.8,20.8,5c17.2,12.4,38.1,30.3,46.8,37.9
		c30.7,1.2,103.9,6.2,119.7,39.1c0.9,5.3,7.2,11.9,7.1,17.9c0.4,3.2,0.9,4.1,2,4.1c1.6,0,2,1.2,1.7,5.8c-0.5,7.6-1.4,14.8-2,16.4
		c-0.9,2.2-0.6,3.6,1.8,6.4c4.4,5.2,4.1,4.7,4.1,7.7c-2.2,22.3-63.4,25.6-87.2,28.9c-9.8,0.9-29.3-1.1-42.5-2.1
		c-8.2-0.5-7-0.9-12.6,4C-478.5,514.8-482.4,516.1-493.9,515.5z M-497.1,505.9c23.6-11.4,22.6-59.4-0.5-71.2
		c-27.1-9.3-33.5,39.2-22.9,56.3C-515.3,500.4-508.1,508.9-497.1,505.9L-497.1,505.9z M-506,504.4c-22.1-12.4-26.7-55.4-3.6-68.3
		c3.9-2.1,8.3-2.1,11.9-0.4c12.5,6.2,19.7,28.1,16.7,43.2C-482.8,491.7-491.9,509.8-506,504.4L-506,504.4z M-414.5,504.7
		c26.2-3.9,84.3-6.8,85.4-28.8c-0.2-1.5-0.7-2.4-2.3-4.2c-5.7-3.9-3.8-14.1-4.8-19.3c-0.3,0.4-1.5,15-1.8,15.4
		c-0.1,0.3-0.7,0.7-1.2,1c-1.6-0.2-0.5,5-0.5,6.6c-3.2,3-7.9,8.3-11.1,9.3c-9,3.3-28,10.1-33.2-2.3c0.4-5.7,4.8-26.4,8.7-32.2
		c1.2-1.9,3.3-2.8,8.5-3.7c8.4-1.5,24.5-5.2,26-6c2.8-1.4,2.8-1.2-1-9.5c-3-5.1-3.8-10.8-7.4-10.7c-0.2,0.1-42.4,5.8-42.7,6
		c-0.4,0.1-0.4,0.4,0.2,1.2c1.5,6.4,1.2,7.8-9.1,9.6c-14.4,2.7-30,2.9-42.8-1.1c-4.8-3.3-2.9-2.9-19.7-3.9c-9.7-0.5-15.1-1-17.4-0.6
		c12,13.5,20,40.9,18.2,55.3c6.4,0.7,18.8,0.5,25,3.8c19.3,4.5,75.6,6.4,95.9-5.9c6.3-3.5,6.3-3.4,5.8-7.6c-0.3-3.3,0.4-3.4,1.9-0.5
		c5.1,9.7-9,12-18,15.7c-26.7,8.1-56.8,8.8-82.9,2.4c-14.2-4.6-20.4-4.9-28.3-5.2c-0.3,0.3-1.1,12.7-0.8,12.9
		C-450,503.3-425.6,505.8-414.5,504.7L-414.5,504.7z M-417.3,489.6c-3-0.7-10.5-6-11.6-8.2c-0.6-1.4-1.3-6.8,0.3-7.6
		c3.6-2.4,10.5-1,14.5-5.2c6.6-3.5-0.3-7.7,8.3-8.1c2.3,0.2,15.2-3.2,13.9-0.3c-0.4,1-4.4,19.7-4.4,20.8c-0.5,1.9,9.6,3.3,11.3,4.9
		c1.4,1.1,2.6,3.2,2.1,3.7C-383.3,489.8-415.8,489.9-417.3,489.6L-417.3,489.6z M-455.4,484.4c-4.5-10.3-3.6-8.3,6.2-8.5
		c1.7,2.7,4.9,6.6,3.9,9C-447.1,484.9-455.9,485.5-455.4,484.4L-455.4,484.4z M-458.3,473.3c-1.3-3-5.7-9.3-0.6-8.6
		c2.5-1.1,8.7,6.7,7.6,8.2C-452.5,475.1-457.3,476.2-458.3,473.3L-458.3,473.3z M-418.7,459.5c-7.5-0.8-5.1-2,4.2-2.2
		c10.8-0.2,17,0.7,12.7,1.8C-404,459.7-414.3,460-418.7,459.5L-418.7,459.5z M-361.7,435.5c-8.8-5.8-0.4-14,4.3-4.2
		C-355.7,434.6-358.5,437.8-361.7,435.5L-361.7,435.5z M-539.3,480.4c0.4-1.6,0.7-3,0.6-3c-0.6-0.5-18.7-6-28.9-8.7
		c-35.2-9.5-64.4-15.6-88.8-16.8c-0.3,0.4-0.5,4.2-0.6,5.3c44.6,6.2,31,2.9,101.2,22.2c8.2,2.3,15.1,4.1,15.3,4.1
		C-540.2,483.3-539.7,482-539.3,480.4z M-370,480.5c4.3-0.8,8.6-3.5,12.6-5.8c2.5-3.9,6.1-12.3,6.2-15.6c0-1.4,1.2-1.9-15.3,6.2
		c-11.7,5.7-13.5,6.8-13.9,7.7C-383.2,483.7-383,482.3-370,480.5L-370,480.5z M-538.4,472.7c0.4-3.9,0.3-6.7-0.2-6.9
		c-0.3-0.1-14.7-3.1-32.1-6.8c-38.7-7.5-56.9-14.5-82.2-20.2c-0.7,0-1,1-2.1,6.5c-0.4,1.9-0.6,3.6-0.4,3.8
		c0.9,0.8,19.4,2.1,23.4,3.2c24.3,3.8,68.3,15,92.7,22.9C-538.8,475.1-538.6,474.6-538.4,472.7L-538.4,472.7z M-538.3,460.2
		c0.6-10.1,0.6-25.6,8.4-32.9c8.7-11,23.5-9.8,35.4-6.8c2.6,1.8,11.1,7.8,12.5,8.4c1.2,0.4,31.6,2.4,32.1,2
		c-0.9-14.8,10-13,6.6-15.3c-11.1-7.3-22.6-12.7-34.5-17.9c-14-3.6-34.3-6.6-47.1-8.4c14.9-0.2,32.1,2.9,47.5,6.6
		c13,5.6,25.7,12.1,37.2,19.6c20.1-0.2,28.7,0.1,45.5,9.2c8.3-1.2,43.6-6,45.7-6.5c-2.7-12.9-6.4-13.5-19.8-20.3
		c-43.3-21.8-123-18.1-178.5-13.5c-9.6,1-12.2,0.3-14.3,4.1c-0.4,2.5-1,28.3-1,39.8c0.1,8.8-0.7,23.9-0.7,30.2
		c0.5,0.5,22.7,4.9,24,4.8C-538.4,463.4-538.3,463-538.3,460.2L-538.3,460.2z M-554.9,431.1c-2.7-2.2-0.2-10.5,3.2-6.4
		C-549.7,426.7-551.9,434.8-554.9,431.1L-554.9,431.1z M-552.6,430.3c1.3-1.5,0.8-5.5-0.7-5.5C-555.9,424.5-555.1,433-552.6,430.3z
		 M-668.4,459c22.2-15.1,2.2-90.5-13.6-42.8c-0.4,1.7-0.7,3.2-0.6,3.3c2-8.7,8.9-24.7,17.2-13.7c10.3,10.7,6.4,69.4-13.3,47.6
		C-678.2,455.9-672,461.5-668.4,459z M-354.2,457.1c12.3-3,9.8-1.4,9.8-13.8c-0.4-0.3-16.4,3.3-16.9,3.8c-0.3,0.4-2.3,14.1,0.1,11.8
		C-360.9,458.9-357.7,458.1-354.2,457.1L-354.2,457.1z M-565.1,457.9c0.4-11.6,1.3-63.4,2.2-70.6l-1.3-0.2c0.2-0.1-22.6-0.9-21.1,0
		c0,0.3,0.4,1.3,0.9,2.3c1.9,3.9-2.3,6.9-7,6.3c-7.1,0.3-6.9-3.4-5.4-7.5c0-1-0.1-1-3.5-1c-11.3,0.1-22.9-2.2-34.1-5.6
		c-2.6,1.6-5.7,5.2-7.1,8c-2.1,4.6-1.5,27.6,1,32.6c2,6.7,7.6,18.1,12.4,20.8c0.6,0.2,6.8,2.1,13.7,4.1
		C-605.2,449.7-573.3,457.9-565.1,457.9L-565.1,457.9z M-633.8,401.4c-2.6-2-5.7-9.6,1.2-8.9c3,0,4.5,0.6,6,2.5
		C-623.2,401.2-628.9,403.4-633.8,401.4z M-627.6,396.7c-0.8-1.8-1.9-2.6-4.7-2.5c-2.3,0-2.7,0.1-2.8,0.7
		C-636.3,397.1-626.7,397.7-627.6,396.7L-627.6,396.7z M-679.5,451.2C-681.9,446.2-677.8,456.5-679.5,451.2L-679.5,451.2z
		 M-681.7,444.5c-0.3-0.4-0.3,1.6,0,0.8C-681.6,445-681.6,444.6-681.7,444.5L-681.7,444.5z M-682.1,442.9c-0.3-0.4-0.3,1.6,0,0.8
		C-682,443.4-682,443-682.1,442.9L-682.1,442.9z M-687.7,438.4c0.8-9.9,1-33.8,3.9-37c4.1-7.6,17.6-6.4,21.8-0.1
		c0,0,2.8,3.2,2.8,3.2c3,8.8,6.3,18.4,5.8,25.7c3.2,1.5,14,4,15.3,3.7c0.1-0.1-0.3-1.3-0.9-2.5c-6-11.2-8-29.7-4.5-41.5
		c1.3-3.4,5.3-7.8,7.1-9.3c0-0.8-6.8-4.4-11-5.8c-4-1.4-4.7-1.8-5.1-2.6c-0.1-0.1-1.7,0.1-3.7,0.5c-11.8,2.7-29.6-1.6-33,11.9
		c-2.2,5.6-3.2,50.6-2,54.2C-690.1,444.5-688.7,444.4-687.7,438.4L-687.7,438.4z M-334.3,442.5c0.1-0.1,0-0.5-0.4-0.8
		c-0.7-0.5-1.3-2.2-1.5-3.1l-0.7,1C-338.7,441.5-335.4,443.3-334.3,442.5z M-682.5,440.9c-0.3-0.4-0.3,1.6,0,0.8
		C-682.4,441.4-682.4,441-682.5,440.9L-682.5,440.9z M-634.5,440.1c-1-0.9-1.9-3.1-2.7-3.9c-1.4-0.5-12.4-2.6-13.9-3.4
		c-1.2-0.5-2.2-0.8-2.3-0.7c-0.2,0.3-0.4,3.3-0.4,4.1c4.3,1,14.2,3.2,17,4.1C-633.4,441.4-633.3,441.4-634.5,440.1L-634.5,440.1z
		 M-401.7,435.4c7.6-1.3,10.6-1.4,8.3-7.8c-9-6.7-25.3-10.9-37.4-10.4c-8.8,0.4-12-0.2-15.8,4.8c-3,7.9-1.7,8.9,4.6,13.2
		C-427.7,436.8-417.4,438.6-401.7,435.4z M-336.6,435.9c-0.7-4.6-4.7-12.9-5.5-11.4C-343.1,423.4-335.1,442.9-336.6,435.9
		L-336.6,435.9z M-683.3,427.3c-0.1-1.7-0.1-0.3-0.1,3.1c0,3.4,0.1,4.8,0.1,3.1C-683.2,431.8-683.2,429-683.3,427.3z M-682.9,421.7
		c-0.3-0.4-0.3,1.6,0,0.8C-682.8,422.2-682.8,421.8-682.9,421.7L-682.9,421.7z M-343.2,419.6c0.3-3.4-2.7-6.5-5-7.6
		C-349.7,412.7-342.4,428.3-343.2,419.6L-343.2,419.6z M-588.1,393.3c4.9-1.8-0.1-7.3-1.7-10.8c-3.5-5.3-5.1-11.6-11.6-12.6
		c-14.8-2.6-19.2,13.2-2.9,13.8C-584,384.2-606.6,396.1-588.1,393.3z M-609.3,384.9c-3.5-2.6-8.8-5.1-6.8-9.5
		c2-6.8,10.8-8.2,16.8-6.6c2.4,0.7,6,4.4,8.8,9c1.7,2.9,2.2,3.4,2.4,2.8c0.4-1.7,1.2-26.5,1.4-28.4c0.9-5.5-3-2.8-10.6-3.4
		c-11.6,0.7-15.3-1-21.5,5.2c-5,4.3-7.2,26.2-7.4,27.6C-626.3,382.2-610,386-609.3,384.9L-609.3,384.9z M-566.3,384.7
		c-0.1-1.6-13-32-15.4-33.2c-1.6,1.5-1.9,22.6-2.1,30.5c0.8,0.7,2.3,2.1,3,2.8C-576.6,384.6-569.3,385.9-566.3,384.7z M-560.5,383.7
		c-0.1-0.3-3.6-8.4-7.9-18c-8-17.9-8.5-19.5-7.1-20.8c2.5-2.4,19.2-5.9,24-5.5c9.6,0,24.4-0.5,24.1-0.9c-3-0.3-57.4-2-56.1,6.5
		c9,6.2,9,14.3,20.3,38.3C-562.8,384.8-560.6,384.8-560.5,383.7L-560.5,383.7z M-554,381.3c1.1-3,28.9-7.4,34.9-3.7
		c1.4,0.7,2.1,0.7,11.3,0.4c10.3-0.4,10.7-0.5,13.5-2.5c2.3-2.6,16.2-2.6,20.5-1.6c3.1,0.7,3.2,0.7,3.2,0.2
		c-1.4-0.4-32.3-29.5-44.3-33.4c-2-0.6-3.8-0.6-20.6-0.2c-20.7,0.8-24,0.3-34.8,3.4c-4.7,6,0,7.2,4.3,18.4c3.4,7,6.9,14.3,7.7,16.2
		C-556.6,381.5-556.9,384.3-554,381.3L-554,381.3z M-629.5,379.8c2-6.8,2.3-19.2,7-27c1.6-2.2,4.2-4.5,6.3-6.3
		c8.1-1.4,20.2-1.4,30-1.4c4.5-11,33.2-7.1,44.2-9c0.2-0.3-2.7-0.4-8.2-0.4c-16.5,0.2-50.5-2.9-63.7,2.9c-4.8,2.2-12,10.3-16,14.7
		c-6.6,8-13.2,12.6-20,18.6c0,0,3.5,1.3,3.5,1.3C-641.9,373.8-632.1,382.6-629.5,379.8L-629.5,379.8z M-666.7,372.7
		c8.2,0.1,6-2.1,6.1-7.2c-6.5-0.3-14,0.4-17.1,6C-680.7,376.1-670.3,372.1-666.7,372.7L-666.7,372.7z M-678.6,371.1
		c1.8-5.4,14.1-7.6,18.8-6.6c1.2-0.5-0.2,6.9,0.6,6.7c4.2-7.7-3.8-6.4,10.6-7.8c-10.3,0.4-32.5-4.2-33.7,6c-0.2,3-0.1,3.3,1.7,3.1
		C-679.4,372.4-679,372.1-678.6,371.1L-678.6,371.1z M-650.6,370.2c2.1-0.7,7-4.3,7-5.2c0-1-12.5-0.4-13.2,0.7
		C-658,371.9-657.4,372.3-650.6,370.2L-650.6,370.2z"/>
	<path id="path2507" class="st75" d="M-494.6,515.1c-16.5-0.7-30.7-12.1-35.8-26.6c-3.1-1.1-6.6-2.6-9.2-4.2
		c1.3-4.9,1.3-4.3,1.8-13.4c0.1-5.9,1.1-5.2-3.6-6.6c-3-0.8-2.5-1,0.9-0.5c3.6,0.7,2.2-0.7,2.9-4.9c1.3-24,2.4-30.1,19.4-39.2
		c8.1-1.1,22.3-1.5,30.2,5.8c3.6,3,6.4,3.4,6.7,5c12.1,18,19.6,36.4,18.1,57.1c8.4,0.2,17,0.4,24,3.2c4.6,1.6,7.5,2.1,15.3,2.6
		c24,1.5,77.6,4.3,89.1-14.2c0-1,0.2-1.8,0.4-1.8c4.5,6.8-9,10.1-14.3,12.7c-22.5,8.1-64.5,10.5-88.2,2.6c-9.3-3-19.6-4.8-26.5-4.1
		c-0.4,0-1.1,16.1-2.1,14.8C-473.7,510.9-481.8,517.2-494.6,515.1z M-498.4,507.3c31.9-9,21.9-88.9-14-72.2
		C-535.5,448.5-530,509-498.4,507.3L-498.4,507.3z M-503.2,502.3c-7.9-4.7-14.8-16.3-15.8-22.9c-0.4-2.2-0.7-2.8-1.4-3.1
		c-1.6-0.6-1.7-3.4-0.1-3.9c0.7-0.2,0.8-0.5,0.8-4c0.7-4.7-2.6-5-0.9-7.9c1.5-2.4,1.6-9.2,3.3-10.9c0.4-0.6,1.7-2.8,3-4.9
		c12.3-22.2,30.2,1.8,32.4,17.1c1.6,5.5-0.1,30.1-4.8,28.9c-0.1-0.2-1.3-1-2.7-1.8c-7.4-3.9-9.8-9.9-5.1-14.4c2.5-0.8,10,6.5,11.2,6
		c1.4-0.8-9.2-6.9-8-7.6c0-0.9,2.5-3,5.5-4.5c5.1-2.6,2.8-2.8-2.7-0.2c-3.2,1.5-5.4,2-7.1-0.1c-2.2-4.6-0.9,10.7-4.7,9.8
		c-2.3-0.4-1.6-2.1-3.6-3.3c-1.4-1-1.5-1-2.6-0.5c-2.4,1.4-4.7-2.3-2.6-4.1c1.4-1.5,2.6-9.2-1-9c-1.2,0.1-1.6-0.1-3-1.8
		c-1.5-0.8-3.1-8-3.8-6.4c-0.6,2.1,5.2,9.7-0.2,8.7c-6.2,0.4,2.7,2.1,3.9,3.3c1.6,1.1,1.6,1.1,1.6,3.9c0,4-0.7,4.7-5,5.1
		c-3.6,0.3-4.2,1-1.1,1.3c6.8,0.3-0.9,5.4,1.4,7.2c1.5-1,3.9-5.8,6-4.6c5.8,1.3-1.8,14.2,0.7,14.4c0.5-0.1,1.8-3.8,2.5-3.7
		c1.1,1.7,2.7,8.9,3.8,9c1.7-1.2-5.2-14.7,1.4-15.1c1.7,0,3.3,1.2,3.6,2.9c0.7,3.4,3.7,12.8,4.2,13c1.1,0,2.3-0.9,0.9-2.3
		c-2.9-4.8-6-12.1,2.3-6.4c3,1.8,4.4,2.8,4.5,3.3C-488,497.9-496.7,506.6-503.2,502.3L-503.2,502.3z M-499.6,476.5
		c1.4-0.8-0.3-4.1-1.4-2.2C-502.7,475.5-500.7,478-499.6,476.5z M-501.9,473.4c0.8-0.7,1.4-0.9,2.1-0.7c2.1,0.7,3-4.3,0.6-5
		c-3.4-1.7-0.3-4.2-1.5-5.9c-1.2-1.8-3.7,2.1-4.8,2.7c-1.7,0-2.5,3.3-1.1,4.6C-505,470.4-504.8,476.6-501.9,473.4L-501.9,473.4z
		 M-506.8,471.9c0-1.2-0.1-1.4-1-1.4C-510.9,470.8-507.1,476.1-506.8,471.9z M-497.9,466.3c1.1-1,0-4.3-1.6-2.4
		C-501.1,464.9-499.2,467.8-497.9,466.3z M-505.6,462.5c0.8-0.8,0.8-1.5,0-2.2C-507.8,458.8-508.1,465.1-505.6,462.5z M-496.3,460.3
		c1.3-2.3,9.1-4.7,9.3-6.4c0-0.6-2,0.1-4.8,1.7c-7.9,5-4.2-3.8-1.8-11.3c0.2-0.5,0.1-0.7-0.3-0.7c-1.9-0.2-4.6,14.9-7.1,15.2
		c-6.8,0.1-2.3-15.1-1.4-19c-2.3-0.7-3.6,20.2-6.9,8c-0.6-1.6-1.2-2.9-1.3-2.9c-0.5,2.7,3.5,10.4,2.9,14.4c1.1,0,2.7-0.1,3.2,0.9
		c0.8,1.6,3.8-0.3,4.7,1.4C-498.2,463.2-498.2,462.1-496.3,460.3L-496.3,460.3z M-377,488.1c-3.2-1.7-7.4-4.9-6.2-7.1
		c0-0.3,0.2-0.1,0.4,0.4c0.3,0.8,0.6,0.9,4.1,0.9c7.4,0.1,15.6-3,21.8-7.3c2.7-4,7.1-15.3,6.6-17.9c-0.2-0.6,0.2-0.8,2.2-1.2
		c3.8-0.7,3.7-0.7,4-6.8c0.3-5.4,0.1-6.3-1.2-6.4c1.3-0.7,7.6-2.7,7.4-4c0.8-1.5,0.6,0.3,0.1,0.7c-0.8,0.8-0.2,2.6,1.1,3.4
		c1.2,1.2,3.4-0.3,4.4-0.5c0.3,0-0.1,6.6-0.7,13.2c-0.4,4.6-1.4,8.7-1.9,8.2c-0.4,0.4-0.2-23.4-1.4-17.8c-0.1,0.5-0.7,5.6-1.2,11.2
		c-1,10.1-1,10.2-2,11c-0.9,0.7-1.1,1.2-1.1,2.6c-0.1,4.6,2.1,2.7-3.6,8.1C-349.6,485.7-369.8,490.9-377,488.1L-377,488.1z
		 M-397.1,485.5c-5.5,0.7-16.2-6.1-7.6-5.5c1.8,0.1,3.3,0.1,3.4-0.1c0.5-1.3,2-9.6,1.8-11.7c-2.2,0.1-9.1,0.5-10.1,0.8
		c-1.4,1.5,0-7.4,0.2-7.2c0.2-0.2,3.3-0.7,6.9-1.1c12.2-1.1,10.5-4.1,7.7,9.9c-1.6,11.2-5.6,10.9,4.5,13.8
		C-382.3,486.3-389.1,486-397.1,485.5L-397.1,485.5z M-454.9,483.6c-3.4-8.6-4-6.6,5.4-6.9c1,1.5,3.7,5.6,3.7,6.7
		c0,0.9-0.1,0.9-4.4,0.9C-454.1,484.3-454.7,484.2-454.9,483.6z M-446.4,483.1c0.1-0.8-2.5-4.6-3.3-5.8c-6.1-0.1-8.7-1.6-4.7,5.7
		C-455.1,484.2-446,484.1-446.4,483.1L-446.4,483.1z M-328.4,476.9c0-3.1,0-3.1,0.3-1.1C-327.6,477.8-328.4,481.9-328.4,476.9z
		 M-382.3,476.6c0-0.4,0.1-0.7,0.2-0.5C-381.8,476.2-382.3,477.7-382.3,476.6z M-457.2,473.4c-1.1-1.5-1.9-2.9-1.8-3.4
		c0.7,0.8,2.3,3.9,3.3,3.8C-454.2,474.5-456.6,474.9-457.2,473.4z M-381.8,472.9c0.7-5.2,3.2-14.2,5.1-18.5c2.6-5.9,3-6.2,9.7-7.5
		c3.8-0.7,5.3-1,7.1-1c-2.7,1.4-2.1,1-2.8,8.8c-0.3,5.4-0.5,4.7,2.6,4.3c2.4-0.7,2.3-0.4-0.2,0.4c-5,0.9-8.5,0.9-15.3,4.3
		c-3.7,1.8-3.9,2.2-5.4,7.5C-381.8,475.1-382.2,475.7-381.8,472.9z M-453.1,472.9c0.6-0.8,1.2-0.8,0.9,0
		C-452.2,473.6-454,473.9-453.1,472.9L-453.1,472.9z M-452.7,471.3c-0.7-1.2-5.4-7.5-7.1-4.7c-0.2,0.5-0.3,0.5-0.6,0.1
		c-0.6-1-0.4-1.1,1.6-1.1c1.8,0,2,0.1,3.7,2.1C-452.2,470.8-451.9,471.7-452.7,471.3z M-666.8,465.5c-7.4,0-9.5-1.9-13.9-6
		c-2.7-2.7-3-10.1-6.5-13.3c-1.9-1.8-2.6-1.6-1.2-3.4c5.2-11.1-5.2-53.6,20-45.2c3.4,0.3,5.8,4,8.4,6.6c2.2,6.6,5.8,16.1,5.8,21.4
		c0.9,5.4-0.9,7.5,0.2,11c2.5,0.8,14.1,3.3,17.1,4.3c3.2,0.7,5.9,2.2,3.4-0.6c-1.4-1.5-3.7-4.9-3.7-5.5c0-1.2,0.9-0.4,2.8,2.3
		c1.3,2.3,4.7,5.3,5.1,6.9c0.6,0.4-26.4-7-24.7-5.6c-3.7,15-4.7,10.7,13.5,13.2c3.8,0.3,17.1,2.7,12.8,2.6c-9.4-1.5-28.3-3.4-29-2.9
		c-0.3,0.2-0.6,1.6-0.7,3.1c-0.3,3.2-0.2,3.3,3.8,3.7c4.7,0,2.9,2.3,0.4,4.9C-655.7,465.3-659,465.8-666.8,465.5L-666.8,465.5z
		 M-667.1,459.3c9.6-6.5,10.5-30,8.6-41.3c-2-10.9-8.8-24.5-18.6-15C-687.3,411.5-689.5,466.3-667.1,459.3z M-672.5,455
		c-12.2-10.1-10.2-43.3,2.6-51.7C-657.8,405.9-657.2,462.2-672.5,455z M-670.3,451.6c-0.3-2.6-1.2-8.4,1.5-10
		c0.7-0.8,2.1,10.1,2.4,4.9c0-2.2,0.3-2.5,1.8-1.5c1.4,0.9,1.6,0.1,0.2-1.3c-3.4-2.6-1.8-7.9-4.6-4.5c-1.5,2.4-4.2-0.4-4.1,0.8
		c2,3.2-3.5,5.2-1.7,8.2c0.7,2.6,2.8-3,2.8,1.9C-672.3,453.1-670.5,453.6-670.3,451.6L-670.3,451.6z M-665.9,449.7
		c-0.3-0.6-0.4-0.6-0.4-0.1C-666.4,451-665.1,451-665.9,449.7L-665.9,449.7z M-675.4,437.8c0.4-1,0.3-1-0.7-0.9
		C-678.4,437.5-676.3,439.4-675.4,437.8z M-670.9,437.9c0.6-0.6,0.6-1.6-0.1-2.5C-673.2,433.1-673.3,440.1-670.9,437.9L-670.9,437.9
		z M-667.8,436.6c0.2-0.7,0-1.2-0.8-2c-3.6-4.7,2.8-3.8,2.1-6.6c0.1-2.6-4-1.1-3.9-3.8c-0.2-2.5-1.5-1.9-2.2-0.1
		c-1.5,2.2,2.2,2,2.1,4.1c0.7,3.8-3.8,2.2-3.3,4.7c0.1,1.2,0.2,1.3,1.6,1.2C-667.8,433.1-671,441.6-667.8,436.6L-667.8,436.6z
		 M-662,435.9c0-0.9-2.4-3.2-2.8-2.8C-665.6,433.5-661.7,437.8-662,435.9L-662,435.9z M-666.5,432.6c0.4-3.2-3.1-1.3-1.8,0.7
		C-667.7,434.4-666.6,434-666.5,432.6z M-663.1,428.8c2.7-2.5-0.6-1.7-1.9-2.2c-1.1-0.6-0.5,3.8-0.4,4.1
		C-665,432.1-664,429.2-663.1,428.8z M-675.1,429.5c-0.3-1.2-2.2-3.7-2.4-3.1C-677.8,426.8-674.6,432.5-675.1,429.5z M-672,429.8
		c0.7-0.9,0.4-2.4-0.6-2.5C-674.6,427-673.6,432-672,429.8z M-667.5,424.7c0.3-0.8-0.4-2.3-1.1-2.3
		C-670.7,422.3-668.8,426.8-667.5,424.7L-667.5,424.7z M-672.7,422.9c0.8-1.3,4.3-2.4,5.5-1.7c0.8,0.4,1.2,0.2,1.2-0.8
		c0.8-1.6,5.6-4.1,0.5-4.1c-1.9,0.7-1.2-2.1-1.4-3.3l-0.6,2.4c-0.7,3.8-3,4.7-2.9,1.1c-0.2-1.3,0.3-5-1.2-4.7c-0.5,0.2-0.8,0-1-0.8
		c-0.6-1.5-2-1.9-0.7,1.3c1.1,3.6,1.7,7.5,1.3,8.2c-4.2,2.8-3.1-2.7-4.7-5.3c-0.7,1.7-0.7,5,1.3,6.7
		C-673.7,423.6-673.8,424.9-672.7,422.9L-672.7,422.9z M-665.6,411.4c-0.2-1.2-1.4,0.7-0.4,0.6C-665.8,412-665.6,411.7-665.6,411.4z
		 M-564.9,459.2c0.2-0.6,0.8-0.7,1-0.1C-563.6,459.7-565,459.7-564.9,459.2z M-564,444.8c0-3.8,0.1-7.8,0.3-8.8
		C-563,431.7-563.8,461.4-564,444.8z M-359.5,445.7c0.2-0.3,1.6,0.1,0.5,0.2C-359.4,446-359.6,445.9-359.5,445.7L-359.5,445.7z
		 M-357.2,445.2c0.5-0.2,3.4-0.6,1.6,0C-356.1,445.4-359,445.8-357.2,445.2z M-354.3,444.5c0.2-0.3,1.6,0.1,0.5,0.2
		C-354.2,444.8-354.4,444.7-354.3,444.5L-354.3,444.5z M-352.5,444.1c0.4-0.3,1.9,0.2,0.5,0.2C-352.6,444.3-352.8,444.2-352.5,444.1
		z M-350.7,443.7c0.2-0.3,1.6,0.1,0.5,0.2C-350.6,444-350.8,443.9-350.7,443.7z M-349.1,443.3c0.2-0.3,1.6,0.1,0.5,0.2
		C-349,443.6-349.2,443.5-349.1,443.3z M-347.1,442.9c0.2-0.3,1.6,0.1,0.5,0.2C-347,443.2-347.2,443.1-347.1,442.9z M-433.4,437.4
		c-10.3-1.2-14.4-2.5,3.9-0.2c10.2,1.3,18.4,0.5,28.3-1.3c10-1.7,7.7-2.7,9.5-6C-389.3,439.9-426.3,438.4-433.4,437.4L-433.4,437.4z
		 M-341.9,429.3c-1.6-4.6-7.1-10.9-5.8-11.3c0.2,0,1,1,1.8,2.2c1.6,2.5,2.3,2.9,3.3,2.1c0.6-0.5,0.6-0.4,0.4,0.5
		c-1,2.9-0.3,3.1,1.7,8.2C-336.6,439.7-338.1,437.1-341.9,429.3L-341.9,429.3z M-449.1,432c-1.1-0.7,1.1-1,1.5-0.3
		c0.6,0.6,0.6,0.7-0.1,0.6C-448.1,432.4-448.7,432.2-449.1,432z M-364.3,431.7c-0.8-1.9,3.2,0.7,3.6-0.9c0.4-0.4,0.8-1,0.9-1.3
		c0.6-0.8,1.1,0.9,0.2,1.7C-360.1,432.4-363.7,432.6-364.3,431.7L-364.3,431.7z M-477.9,430.1c0.4-0.3,1.9,0.2,0.5,0.2
		C-478,430.3-478.2,430.2-477.9,430.1z M-396.3,425.1c-2.6-1.8,0-0.5,1.2-0.1C-392.6,426-393.4,427.4-396.3,425.1z M-448.7,424.1
		c0-0.2,0.2-0.5,0.4-0.6C-447.3,423-448.4,424.9-448.7,424.1z M-642.5,420.4c-2.7-2.6-1.7-41-1-16.7c0.2,9.3,0.4,11.6,1.1,14.3
		C-641.5,421.6-641.5,423.1-642.5,420.4L-642.5,420.4z M-418.7,417.6c-7.8-1.6,8.8,0.1,3.2,0.4
		C-416.3,417.9-417.7,417.8-418.7,417.6z M-441.1,416.6c-0.3-1.5,3,0.6,0.8,0.6C-440.7,417.2-441.1,416.9-441.1,416.6z
		 M-350.5,410.9c-2.4-5.1-0.3-4.6,0.9-0.8C-349.5,412.7-347.8,417.3-350.5,410.9z M-632.7,401.2c-1.1,0.3-4-4.1-2.4-4.2
		c0.8,0.3,7.1,0.9,8.2,0.8c1-0.1,1.2,0.5,0.5,2.1C-627.3,401.5-629.7,402.1-632.7,401.2L-632.7,401.2z M-594.8,394.9
		c-0.7-0.4,1.3-0.9,4.2-0.9c5.6,0.6,5.6-4.9,6-2.8c0.1,0.8-0.2,1.3-1.6,2.5C-587.4,395.8-593.1,395.4-594.8,394.9z M-562.9,393.1
		c0-0.4,0.1-0.7,0.2-0.5C-562.4,392.7-562.8,394.2-562.9,393.1z M-609.3,386.2c-6.5-0.5-13.2-1.7-20.1-3.8c-5-1.4-5.4-1.5-6.9-0.3
		c-2.5,2-2.6,2.1-2.3,1.4c0.1-0.7,3-2.5,3-3.3c0-0.4,0.6-0.4,3,0.3c1.6,0.5,3.1,0.7,3.2,0.6c1.4-5.1,5.5-25.6,6.1-26.3
		c1-1.8,4.9-5.8,7.2-7.7c8.8-1.3,25.2-1.8,32.5-1.5c6,0.7,17.6,34.6,20.6,38.9c0.5,1,2.8,0.3,3.4-0.1c0.2-0.2-3.3-8.4-7.7-18.2
		c-7.2-16.2-8.2-18.8-8.1-20.4c0-0.4,3.6-2.5,4.2-2.5c-0.3,1.4-2.8,6-1.2,7c0.8,1.2,15,31,15,31.5c0.6,2,1.9,1.6,3.6,0.1
		c1.8-2.8,26.5-7.7,34.1-3.8c1.5,0.7,2.1,0.8,9,0.5c13-0.5,13.7-0.5,15.7-2.1c3.9-4,20.1-2.8,25.8-1.1c-1.1-2.7-4.9-4.9-23.3-20.1
		c-19.3-15.6-19.5-15.7-30.9-15.8c-15-0.1,8.5-1.3,8.7,0.3c5.9,1.9,6.6,2.4,30.2,21.5c14.4,11.7,21.5,17.8,21.1,18.2
		c-26.3,1.4-72.7,1-96.5,6.2c-2,0.9-2.1,0.9-14,0.5c-16.9-1.8-9.9,4.8-17.5-7.9c-2.1-4.1-1.3-3.5,1.4,0.9
		c4.5,11.7,3.5-31.7,3.5-30.8c-2.2-1-23.2-0.3-28.9,1.6c0,0-3.1,3-3.1,3c-3.7,3.6-3.6,3.3-6.4,17.7c-1.8,9-2,10.4-1.5,10.9
		c0.5,0.6,15.4,5,18.2,3.3c0.6-0.9,3.7-0.9,4.6,0c0.6,0.6,0.8,0.5,1.8-0.1c0.9-1,4.7,0.1,5.2,1
		C-596.4,386.8-600.6,386.9-609.3,386.2L-609.3,386.2z M-566,385.2c2.2,1.2-13.5-32.4-14.3-33c-5-5.4-3.4,26.9-3.8,30.2
		c0.8,0.7,2.5,2.1,3.3,2.8C-576.3,385.1-569.6,386.2-566,385.2L-566,385.2z M-583.7,384.4c-1.4-2.4-1.1-1.6-1.2-10.3
		c0.5-26.5,1.5-33.7,13-6.4c8.5,19,8.2,17.6,0.2-1c-12.3-28.5-13.9-26.1-14.4,3.4C-586.2,383.4-587.8,385.9-583.7,384.4z
		 M-558.1,383.2c0-0.5-12-26.8-14-30.7c-2.5-5-0.8-0.7,6.1,14.8C-559.6,381.9-558.1,384.8-558.1,383.2L-558.1,383.2z M-619.1,352.5
		c6.4-6.1,12.3-4.3,22.4-4.9c30.4-0.9-19.6-1.5-19.1,0.7c-2.6,1.6-6.9,6-7.6,9.9c-0.9,3.7-0.7,3.8,0.5,0.3
		C-622,355.7-621.5,354.9-619.1,352.5L-619.1,352.5z M-573.6,347.3c0.1-1,0-1.6-0.3-1.6C-575.7,345.5-573.8,351.5-573.6,347.3z
		 M-611.8,382.6c-1.5-0.8-1.4-1.1,0.1-0.4C-610.3,382.9-609.6,383.9-611.8,382.6z M-615.6,376c0-0.6,0.2-1.4,0.6-1.8
		C-613.9,372.3-615.8,378.4-615.6,376z M-651.4,372.5c-0.3-0.5,0.9-2.1,1.7-2.1c0.6,0,0.5,0.1-0.1,0.5
		C-650.8,371.5-649.7,373.9-651.4,372.5z M-660.4,372.1c0-0.5,0.8-0.5,0.8,0C-659.6,372.6-660.4,372.6-660.4,372.1z M-658.4,371.9
		c0-0.2,0.8-0.8,0.8-0.2C-657.5,372.1-658.3,372.2-658.4,371.9z M-642.8,364.6c0-0.4,2-2.1,2.5-2.1
		C-638.9,362.2-643.2,365.9-642.8,364.6z M-559.7,340.7c1.6-0.7,8.5-0.5,11.4-0.5c-4,0.2-10,0.5-13.2,1.1
		C-561.5,341.3-559.7,340.7-559.7,340.7z M-540.5,339.8c1.3-0.1,3.3-0.1,4.6,0C-532.6,340-543.7,340-540.5,339.8z M-532.7,337.3
		c-5-1.2,1.8-0.9,3,0C-529.1,337.8-530.3,337.8-532.7,337.3z M-587.2,334.1c2.4-0.2,7.9-0.2,12.2,0c7.7,0.3,7.6,0.3-4.3,0.3
		C-587.9,334.4-590.2,334.3-587.2,334.1z"/>
</g>
<rect x="1077.1" y="-16.9" class="st76" width="280.9" height="675.7"/>
<rect x="382.7" y="37.1" transform="matrix(-1.836970e-16 1 -1 -1.836970e-16 1171.0289 185.0877)" class="st76" width="220.6" height="1281.9"/>
<rect x="-220.6" y="-48.3" class="st76" width="220.6" height="759.4"/>
</svg>
